<svg width="222" height="200" viewBox="0 0 222 200" fill="none" xmlns="http://www.w3.org/2000/svg">
<path d="M148.686 6.53793C148.686 5.24485 149.069 3.98081 149.787 2.90565C150.506 1.8305 151.527 0.992512 152.722 0.497672C153.916 0.00283227 155.231 -0.12664 156.499 0.125627C157.767 0.377895 158.932 1.00057 159.846 1.91492C160.761 2.82926 161.384 3.9942 161.636 5.26244C161.888 6.53067 161.759 7.84523 161.264 9.03988C160.769 10.2345 159.931 11.2556 158.856 11.974C157.781 12.6924 156.517 13.0759 155.223 13.0759C153.49 13.0739 151.828 12.3844 150.603 11.1588C149.377 9.93309 148.688 8.27129 148.686 6.53793ZM161.073 6.53793C161.073 5.38096 160.73 4.24997 160.087 3.28799C159.445 2.32601 158.531 1.57624 157.462 1.13348C156.393 0.690733 155.217 0.574891 154.082 0.800604C152.948 1.02632 151.905 1.58345 151.087 2.40155C150.269 3.21965 149.712 4.26196 149.486 5.3967C149.26 6.53143 149.376 7.70762 149.819 8.77652C150.262 9.84541 151.012 10.759 151.974 11.4018C152.936 12.0446 154.067 12.3876 155.223 12.3876C156.774 12.3859 158.261 11.769 159.358 10.6724C160.455 9.57572 161.071 8.08883 161.073 6.53793Z" fill="#CCCCCC"/>
<path d="M155.223 10.3232C157.313 10.3232 159.008 8.62856 159.008 6.5381C159.008 4.44764 157.313 2.75299 155.223 2.75299C153.132 2.75299 151.438 4.44764 151.438 6.5381C151.438 8.62856 153.132 10.3232 155.223 10.3232Z" fill="#006466"/>
<path d="M133.2 12.7316C136.62 12.7316 139.394 9.95857 139.394 6.53782C139.394 3.11706 136.62 0.343994 133.2 0.343994C129.779 0.343994 127.006 3.11706 127.006 6.53782C127.006 9.95857 129.779 12.7316 133.2 12.7316Z" fill="#CCCCCC"/>
<path d="M111.178 12.7316C114.599 12.7316 117.372 9.95857 117.372 6.53782C117.372 3.11706 114.599 0.343994 111.178 0.343994C107.757 0.343994 104.984 3.11706 104.984 6.53782C104.984 9.95857 107.757 12.7316 111.178 12.7316Z" fill="#CCCCCC"/>
<path d="M215.784 119.059H57.8419C56.291 119.057 54.8041 118.44 53.7075 117.344C52.6108 116.247 51.9939 114.76 51.9922 113.209V30.2809C51.9939 28.73 52.6108 27.2431 53.7075 26.1464C54.8041 25.0498 56.291 24.4329 57.8419 24.4312H215.784C217.335 24.4329 218.822 25.0498 219.919 26.1464C221.015 27.2431 221.632 28.73 221.634 30.2809V113.209C221.632 114.76 221.015 116.247 219.919 117.344C218.822 118.44 217.335 119.057 215.784 119.059ZM57.8419 25.1194C56.4735 25.1209 55.1615 25.6652 54.1939 26.6328C53.2262 27.6005 52.6819 28.9124 52.6804 30.2809V113.209C52.6819 114.578 53.2262 115.89 54.1939 116.857C55.1615 117.825 56.4735 118.369 57.8419 118.371H215.784C217.153 118.369 218.465 117.825 219.432 116.857C220.4 115.89 220.944 114.578 220.946 113.209V30.2809C220.944 28.9124 220.4 27.6005 219.432 26.6328C218.465 25.6652 217.153 25.1209 215.784 25.1194H57.8419Z" fill="#222222"/>
<path d="M111.522 97.0365H70.9181C69.3672 97.0348 67.8803 96.4179 66.7836 95.3213C65.687 94.2246 65.0701 92.7377 65.0684 91.1868V50.5829C65.0701 49.032 65.687 47.5451 66.7836 46.4484C67.8803 45.3518 69.3672 44.7349 70.9181 44.7332H111.522C113.073 44.7349 114.56 45.3518 115.656 46.4484C116.753 47.5451 117.37 49.032 117.372 50.5829V91.1868C117.37 92.7377 116.753 94.2246 115.656 95.3213C114.56 96.4179 113.073 97.0348 111.522 97.0365ZM70.9181 45.4214C69.5496 45.4229 68.2377 45.9672 67.27 46.9348C66.3024 47.9025 65.7581 49.2144 65.7566 50.5829V91.1868C65.7581 92.5553 66.3024 93.8672 67.27 94.8349C68.2377 95.8025 69.5496 96.3468 70.9181 96.3483H111.522C112.89 96.3468 114.202 95.8025 115.17 94.8349C116.138 93.8672 116.682 92.5553 116.684 91.1868V50.5829C116.682 49.2144 116.138 47.9025 115.17 46.9348C114.202 45.9672 112.89 45.4229 111.522 45.4214H70.9181Z" fill="#CCCCCC"/>
<path d="M211.651 66.7556H133.54C132.81 66.7556 132.11 66.4656 131.593 65.9493C131.077 65.4331 130.787 64.7329 130.787 64.0028C130.787 63.2727 131.077 62.5725 131.593 62.0563C132.11 61.54 132.81 61.25 133.54 61.25H211.651C212.381 61.25 213.081 61.54 213.597 62.0563C214.114 62.5725 214.404 63.2727 214.404 64.0028C214.404 64.7329 214.114 65.4331 213.597 65.9493C213.081 66.4656 212.381 66.7556 211.651 66.7556Z" fill="#CCCCCC"/>
<path d="M172.079 55.0562H133.54C132.81 55.0562 132.11 54.7661 131.593 54.2499C131.077 53.7336 130.787 53.0334 130.787 52.3033C130.787 51.5733 131.077 50.8731 131.593 50.3568C132.11 49.8406 132.81 49.5505 133.54 49.5505H172.079C172.809 49.5505 173.51 49.8406 174.026 50.3568C174.542 50.8731 174.832 51.5733 174.832 52.3033C174.832 53.0334 174.542 53.7336 174.026 54.2499C173.51 54.7661 172.809 55.0562 172.079 55.0562Z" fill="#CCCCCC"/>
<path d="M211.651 89.8103H133.54C132.81 89.8103 132.11 89.5203 131.593 89.004C131.077 88.4878 130.787 87.7876 130.787 87.0575C130.787 86.3274 131.077 85.6272 131.593 85.111C132.11 84.5947 132.81 84.3047 133.54 84.3047H211.651C212.381 84.3047 213.081 84.5947 213.597 85.111C214.114 85.6272 214.404 86.3274 214.404 87.0575C214.404 87.7876 214.114 88.4878 213.597 89.004C213.081 89.5203 212.381 89.8103 211.651 89.8103Z" fill="#CCCCCC"/>
<path d="M172.079 78.1111H133.54C132.81 78.1111 132.11 77.8211 131.593 77.3048C131.077 76.7886 130.787 76.0884 130.787 75.3583C130.787 74.6282 131.077 73.928 131.593 73.4118C132.11 72.8955 132.81 72.6055 133.54 72.6055H172.079C172.809 72.6055 173.51 72.8955 174.026 73.4118C174.542 73.928 174.832 74.6282 174.832 75.3583C174.832 76.0884 174.542 76.7886 174.026 77.3048C173.51 77.8211 172.809 78.1111 172.079 78.1111Z" fill="#CCCCCC"/>
<path d="M115.502 95.3335C115.456 95.3335 115.411 95.3245 115.369 95.3069C115.327 95.2893 115.289 95.2635 115.257 95.231L67.2144 46.5412C67.1826 46.509 67.1575 46.4709 67.1405 46.429C67.1235 46.3872 67.1149 46.3424 67.1152 46.2972C67.1156 46.252 67.1248 46.2073 67.1423 46.1657C67.1599 46.1241 67.1855 46.0864 67.2177 46.0546C67.2498 46.0229 67.2879 45.9978 67.3298 45.9808C67.3716 45.9638 67.4164 45.9552 67.4616 45.9555C67.5068 45.9558 67.5515 45.965 67.5931 45.9826C67.6347 46.0002 67.6725 46.0258 67.7042 46.0579L115.747 94.7478C115.794 94.7961 115.827 94.8574 115.84 94.924C115.852 94.9906 115.845 95.0596 115.819 95.1222C115.793 95.1848 115.749 95.2382 115.692 95.2758C115.636 95.3134 115.57 95.3335 115.502 95.3335Z" fill="#CCCCCC"/>
<path d="M66.9379 95.3335C66.87 95.3335 66.8037 95.3134 66.7472 95.2758C66.6907 95.2382 66.6466 95.1847 66.6204 95.1221C66.5942 95.0595 66.5871 94.9906 66.6 94.924C66.6129 94.8574 66.6453 94.796 66.6929 94.7477L114.734 46.0579C114.766 46.0257 114.803 46 114.845 45.9823C114.887 45.9647 114.931 45.9554 114.977 45.9551C115.022 45.9547 115.067 45.9633 115.109 45.9803C115.15 45.9973 115.189 46.0224 115.221 46.0542C115.253 46.0859 115.279 46.1237 115.296 46.1654C115.314 46.2071 115.323 46.2518 115.323 46.297C115.324 46.3423 115.315 46.3871 115.298 46.429C115.281 46.4709 115.256 46.509 115.224 46.5411L67.1828 95.231C67.1509 95.2635 67.1127 95.2893 67.0707 95.3069C67.0286 95.3245 66.9835 95.3335 66.9379 95.3335Z" fill="#CCCCCC"/>
<path d="M209.247 108.908H187.224C185.81 108.908 184.453 108.346 183.453 107.346C182.453 106.346 181.891 104.989 181.891 103.574C181.891 102.16 182.453 100.803 183.453 99.8031C184.453 98.8028 185.81 98.2409 187.224 98.2409H209.247C210.661 98.2409 212.018 98.8028 213.018 99.8031C214.018 100.803 214.58 102.16 214.58 103.574C214.58 104.989 214.018 106.346 213.018 107.346C212.018 108.346 210.661 108.908 209.247 108.908Z" fill="#006466"/>
<path d="M0.344101 200H103.919C104.01 200 104.097 199.964 104.162 199.899C104.226 199.835 104.263 199.747 104.263 199.656C104.263 199.565 104.226 199.477 104.162 199.413C104.097 199.348 104.01 199.312 103.919 199.312H0.344101C0.25284 199.312 0.165311 199.348 0.100779 199.413C0.0362479 199.477 0 199.565 0 199.656C0 199.747 0.0362479 199.835 0.100779 199.899C0.165311 199.964 0.25284 200 0.344101 200Z" fill="#222222"/>
<path d="M65.0105 196.06L69.2291 196.059L71.2359 179.787L65.0098 179.788L65.0105 196.06Z" fill="#EC9C9F"/>
<path d="M77.3652 199.976L64.1068 199.977L64.1065 194.854L72.2424 194.854C73.601 194.854 74.904 195.394 75.8647 196.354C76.8254 197.315 77.3652 198.618 77.3652 199.976Z" fill="#222222"/>
<path d="M34.4004 191.281L38.2375 193.034L46.8242 179.067L41.1606 176.48L34.4004 191.281Z" fill="#EC9C9F"/>
<path d="M44.0117 199.977L31.9517 194.468L34.0799 189.809L41.4804 193.189C42.7162 193.753 43.6772 194.786 44.1519 196.059C44.6266 197.332 44.5762 198.741 44.0117 199.977Z" fill="#222222"/>
<path d="M46.6859 141.195C46.2817 140.891 45.9491 140.501 45.7116 140.055C45.474 139.608 45.3373 139.115 45.311 138.61C45.2848 138.105 45.3696 137.6 45.5595 137.131C45.7494 136.662 46.0398 136.241 46.4102 135.896L41.4512 124.644L47.7512 125.712L51.4945 136.233C52.032 136.894 52.3084 137.729 52.2715 138.58C52.2345 139.431 51.8867 140.238 51.294 140.85C50.7013 141.461 49.9048 141.834 49.0555 141.898C48.2062 141.961 47.3631 141.711 46.6859 141.195Z" fill="#EC9C9F"/>
<path d="M63.741 190.397L59.6936 155.049C59.661 154.765 59.5282 154.501 59.3189 154.306C59.1096 154.111 58.8376 153.996 58.5516 153.983C58.2656 153.97 57.9844 154.06 57.7583 154.235C57.5322 154.411 57.3761 154.661 57.318 154.942L55.3116 164.609C55.2832 164.746 55.2364 164.878 55.1724 165.002L43.4274 187.84C43.2544 188.176 42.9645 188.437 42.6123 188.574C42.26 188.711 41.8698 188.715 41.5151 188.584L37.4312 187.08C37.2385 187.009 37.0619 186.9 36.9116 186.76C36.7613 186.62 36.6403 186.452 36.5556 186.265C36.471 186.078 36.4244 185.876 36.4186 185.671C36.4128 185.466 36.4478 185.261 36.5217 185.07L46.0826 160.276C46.1332 160.145 46.1605 160.006 46.1631 159.866L46.6515 133.977C46.6588 133.598 46.8051 133.234 47.0628 132.955C47.3205 132.677 47.6716 132.502 48.0493 132.465L73.4216 129.99C73.646 129.968 73.8725 129.995 74.0853 130.07C74.298 130.145 74.4919 130.265 74.6533 130.423C74.8147 130.58 74.9398 130.771 75.0198 130.982C75.0998 131.193 75.1327 131.418 75.1164 131.643L70.854 190.333C70.8243 190.722 70.6489 191.087 70.3627 191.353C70.0764 191.619 69.7004 191.768 69.3096 191.769H65.2795C64.8993 191.769 64.5323 191.629 64.2486 191.376C63.9649 191.123 63.7842 190.774 63.741 190.397Z" fill="#222222"/>
<path d="M63.2718 85.7541C67.9394 85.7541 71.7233 81.9702 71.7233 77.3026C71.7233 72.635 67.9394 68.8511 63.2718 68.8511C58.6042 68.8511 54.8203 72.635 54.8203 77.3026C54.8203 81.9702 58.6042 85.7541 63.2718 85.7541Z" fill="#EC9C9F"/>
<path d="M70.5968 90.371C70.3655 90.2604 70.1358 90.1541 69.9078 90.0521C67.1327 88.8036 64.0748 88.3177 61.0493 88.6444C58.0239 88.9711 55.1403 90.0986 52.6957 91.9107C48.1945 95.2633 46.0249 100.311 46.7432 105.759C48.2575 117.243 46.5238 132.821 46.3438 134.372C60.2371 140.761 72.4261 132.729 73.5079 131.982L70.5968 90.371Z" fill="#006466"/>
<path d="M45.9655 134.224C45.7123 134.184 45.4732 134.082 45.2695 133.926C45.0659 133.77 44.9042 133.566 44.7991 133.333L37.7072 117.619C37.4415 117.031 37.3242 116.387 37.3655 115.743C37.4069 115.1 37.6057 114.476 37.9445 113.927L46.6535 99.7954C46.9276 99.2865 47.3495 98.8725 47.8636 98.6082C48.3777 98.3439 48.9599 98.2416 49.5333 98.3149C50.1067 98.3881 50.6445 98.6335 51.0756 99.0185C51.5067 99.4036 51.811 99.9103 51.9484 100.472C52.1041 101.112 52.0349 101.785 51.7524 102.38L45.31 115.909L49.5442 130.24C49.6191 130.496 49.6268 130.767 49.5667 131.027C49.5065 131.287 49.3805 131.528 49.2007 131.725L47.352 133.742C47.2073 133.9 47.0313 134.027 46.8351 134.113C46.6388 134.2 46.4267 134.244 46.2123 134.244C46.1296 134.244 46.0471 134.237 45.9655 134.224Z" fill="#006466"/>
<path opacity="0.2" d="M65.7075 130.94L64.3965 104.72L64.7366 104.676L70.6305 132.411H67.254C66.8567 132.412 66.4745 132.259 66.1866 131.985C65.8987 131.711 65.7271 131.337 65.7075 130.94Z" fill="#222222"/>
<path d="M70.3777 139.307C70.0455 138.926 69.8009 138.476 69.6613 137.99C69.5216 137.504 69.4903 136.993 69.5695 136.493C69.6487 135.993 69.8364 135.517 70.1195 135.098C70.4027 134.679 70.7743 134.327 71.2081 134.067L68.6934 122.03L74.6344 124.383L76.1117 135.452C76.5003 136.21 76.5973 137.084 76.3845 137.909C76.1717 138.733 75.6638 139.451 74.957 139.927C74.2502 140.402 73.3936 140.601 72.5496 140.487C71.7056 140.373 70.9328 139.953 70.3777 139.307Z" fill="#EC9C9F"/>
<path d="M69.1904 131.127L64.2254 98.027L64.2207 97.9957L65.1804 93.5809C65.4209 92.4748 66.0561 91.4943 66.9673 90.8228C67.8784 90.1513 69.003 89.8347 70.1306 89.9324C71.2583 90.0301 72.3117 90.5352 73.0938 91.3534C73.8759 92.1716 74.3331 93.2467 74.3798 94.3776L75.8697 130.433C75.8847 130.825 75.7512 131.207 75.496 131.505C75.2408 131.802 74.8828 131.992 74.4936 132.036L70.8927 132.436C70.8347 132.443 70.7764 132.446 70.7181 132.446C70.3474 132.446 69.9892 132.313 69.7087 132.071C69.4282 131.829 69.2442 131.494 69.1904 131.127Z" fill="#006466"/>
<path d="M59.7985 84.9778C58.6489 84.968 57.5256 84.6328 56.5586 84.0111C55.5916 83.3895 54.8204 82.5066 54.3343 81.4649C53.5509 79.8077 53.1156 78.4876 53.0405 77.5408C52.8384 74.997 54.2757 70.9997 56.1791 68.8118C58.2673 66.4115 61.5724 66.0766 64.7687 65.7528C65.642 65.6643 66.545 65.5729 67.3998 65.44C68.1331 65.3261 69.0458 65.1843 69.8217 65.4722C70.0459 65.5544 70.251 65.6814 70.4244 65.8455C70.5979 66.0096 70.7361 66.2073 70.8306 66.4266C70.861 66.5036 70.9069 66.5736 70.9655 66.6322C71.024 66.6909 71.0939 66.7369 71.1709 66.7675C71.2374 66.793 71.3085 66.8044 71.3796 66.801C71.4507 66.7976 71.5203 66.7795 71.5841 66.7478C71.7139 66.6818 71.8574 66.6474 72.0029 66.6474C72.1485 66.6474 72.292 66.6817 72.4218 66.7477C72.5364 66.8053 72.6358 66.8893 72.7118 66.9927C72.7877 67.0961 72.8382 67.216 72.8589 67.3426C72.8725 67.4295 72.8994 67.5138 72.9388 67.5925C73.0057 67.7148 73.0978 67.8215 73.209 67.9056C73.3202 67.9897 73.4479 68.0494 73.5838 68.0806C73.7912 68.1268 73.9746 68.2473 74.0994 68.4193C74.2242 68.5914 74.2818 68.803 74.2614 69.0146C74.2099 69.4487 74.188 69.9171 74.1668 70.3703C74.087 72.0754 74.0048 73.8381 72.2907 73.8097C71.8523 73.7914 71.4183 73.7148 71.0002 73.5818C70.3793 73.4094 69.8889 73.2725 69.2283 73.6845C68.2126 74.3176 68.0468 75.641 67.9005 76.8088L67.8748 77.0129C67.7039 78.3485 66.9981 79.9558 65.571 80.0902C65.118 80.105 64.6667 80.0267 64.245 79.8603C63.8113 79.6684 63.3301 79.6106 62.8633 79.6945C62.0796 79.9181 61.7023 80.8541 61.7347 81.6633C61.7556 81.9946 61.798 82.3243 61.8616 82.6501C61.977 83.1662 62.014 83.6967 61.9712 84.2237C61.9305 84.5443 61.5622 84.7557 60.8121 84.8886C60.4775 84.9479 60.1383 84.9778 59.7985 84.9778Z" fill="#222222"/>
</svg>
