<svg width="269" height="200" viewBox="0 0 269 200" fill="none" xmlns="http://www.w3.org/2000/svg">
<path d="M266.392 12.4252H95.5124C95.1371 12.4169 94.8395 12.106 94.8478 11.7307C94.8559 11.3671 95.1487 11.0742 95.5124 11.0662H266.392C266.767 11.0745 267.064 11.3854 267.056 11.7607C267.048 12.1243 266.755 12.4172 266.392 12.4252Z" fill="#F2F2F2"/>
<path d="M125.605 82.2561H194.547C194.722 82.2561 194.864 82.3982 194.864 82.5734V122.66C194.864 122.836 194.722 122.978 194.547 122.978H125.605V82.2561Z" fill="#F2F2F2"/>
<path d="M194.467 123.194L125.516 82.5637L125.697 81.9487L194.648 122.579C194.818 122.63 194.915 122.808 194.865 122.978C194.815 123.148 194.637 123.245 194.467 123.194Z" fill="white"/>
<path d="M125.697 123.285L125.516 122.67L194.467 82.0396C194.637 81.9894 194.815 82.0864 194.865 82.2562C194.915 82.4261 194.818 82.6044 194.648 82.6546L125.697 123.285Z" fill="white"/>
<path d="M186.717 42.1545H133.675C132.846 42.1545 132.174 42.8266 132.174 43.6557V43.6557C132.174 44.4848 132.846 45.1568 133.675 45.1568H186.717C187.546 45.1568 188.218 44.4848 188.218 43.6557C188.218 42.8266 187.546 42.1545 186.717 42.1545Z" fill="#F2F2F2"/>
<path d="M193.847 51.526H126.544C125.715 51.526 125.043 52.1981 125.043 53.0271V53.0272C125.043 53.8562 125.715 54.5283 126.544 54.5283H193.847C194.676 54.5283 195.348 53.8562 195.348 53.0271C195.348 52.1981 194.676 51.526 193.847 51.526Z" fill="#F2F2F2"/>
<path d="M193.847 60.8973H126.544C125.715 60.8973 125.043 61.5694 125.043 62.3985C125.043 63.2275 125.715 63.8996 126.544 63.8996H193.847C194.676 63.8996 195.348 63.2275 195.348 62.3985C195.348 61.5694 194.676 60.8973 193.847 60.8973Z" fill="#006466"/>
<path d="M257.669 92.533C257.664 104.122 250.34 114.444 239.403 118.277C239.171 118.36 238.939 118.436 238.704 118.509C224.359 123.095 209.013 115.184 204.427 100.839C199.841 86.4942 207.753 71.1479 222.097 66.5621C236.442 61.9762 251.788 69.8874 256.374 84.2321C257.232 86.9155 257.669 89.7158 257.669 92.533Z" fill="#F2F2F2"/>
<path d="M193.835 64.5018C193.725 65.7657 194.661 66.8793 195.925 66.9891C196.06 67.0008 196.195 67.0005 196.33 66.9884L199.688 74.4291L201.955 70.8437L198.419 64.3276C198.22 63.0675 197.038 62.2069 195.778 62.4052C194.724 62.5711 193.92 63.4379 193.835 64.5018Z" fill="#EC9C9F"/>
<path d="M226.925 92.5229C226.876 92.303 226.813 92.0864 226.738 91.8741C226.257 90.5065 225.276 89.3712 223.994 88.6956C223.963 88.678 223.931 88.6603 223.9 88.6451L208.561 80.8617L207.2 78.2083L201.701 67.4963L200.353 67.8978L197.167 68.8445L197.094 68.8647L202.375 86.6381L203.587 87.5671L217.313 98.0645L217.76 98.4078C220.041 100.148 223.251 99.9596 225.311 97.9635C225.517 97.7664 225.707 97.5537 225.879 97.3273C226.926 95.9615 227.309 94.2001 226.925 92.5229Z" fill="#006466"/>
<path d="M235.453 112.043L235.373 109.115L235.14 100.622C235.981 95.1865 236.577 94.5831 232.522 90.8668C232.209 90.7997 231.939 90.6035 231.777 90.3266C231.409 89.5742 232.295 88.2968 231.53 86.3301L225.494 86.676L223.994 88.6957L217.96 96.825C217.724 97.2269 217.508 97.6406 217.314 98.0645C214.731 103.674 218.233 106.656 218.506 107.168L220.177 112.432L221.098 117.537L221.396 118.246L222.237 118.554C227.6 120.229 233.349 120.213 238.703 118.509C237.802 116.267 236.715 114.104 235.453 112.043Z" fill="#006466"/>
<path d="M247.145 132.689C247.662 131.53 247.141 130.172 245.982 129.656C245.859 129.601 245.73 129.557 245.599 129.524L244.855 121.395L241.541 124.043L242.756 131.357C242.532 132.613 243.369 133.812 244.624 134.036C245.675 134.224 246.717 133.667 247.145 132.689Z" fill="#EC9C9F"/>
<path d="M235.6 92.8284C234.724 91.5039 233.342 90.5988 231.777 90.3265C231.443 90.2659 231.103 90.2354 230.763 90.2356C229.628 90.2358 228.519 90.5703 227.574 91.1975C227.274 91.3954 226.994 91.622 226.738 91.8741C224.444 94.0962 224.385 97.7575 226.608 100.052L226.61 100.054L235.373 109.115L238.566 112.417L239.402 118.277L240.687 127.292L242.091 127.353L245.413 127.499L245.489 127.502L246.042 114.868L246.299 108.978L235.6 92.8284Z" fill="#006466"/>
<path d="M223.625 72.4723C221.491 76.6787 222.885 81.551 226.846 84.1132C231.128 86.8839 236.688 86.2772 238.487 80.893C240.489 74.8972 238.844 72.325 235.266 69.2521C231.074 65.651 225.931 67.9274 223.625 72.4723Z" fill="#222222"/>
<path d="M234.131 81.8426C231.868 84.8095 227.628 85.3798 224.661 83.1163C221.698 80.8558 221.125 76.6229 223.38 73.6557L223.438 73.5787C225.768 70.6631 230.019 70.1879 232.935 72.5172C235.784 74.7936 236.313 78.9201 234.13 81.8413L234.131 81.8426Z" fill="#EC9C9F"/>
<path d="M221.557 71.7911C222.655 72.836 223.993 73.5944 225.454 73.9994C225.747 73.6607 226.094 73.3731 226.481 73.1483C226.296 73.5339 226.169 73.9449 226.104 74.3678C226.756 75.7199 229.416 76.6916 231.959 77.6856L235.328 71.7412L230.869 69.2149C227.287 66.7382 223.07 67.7953 221.557 71.7911Z" fill="#222222"/>
<path d="M237.871 69.2594C238.531 69.016 239.27 69.1239 239.834 69.5461C240.377 69.9587 240.815 70.4925 241.115 71.1048C241.661 72.0956 242.052 73.1633 242.277 74.2716C242.47 75.2305 242.437 76.3897 241.577 76.89C240.859 77.3075 239.833 77.0447 239.173 76.4875C238.561 75.9029 238.098 75.1814 237.82 74.3824C237.498 73.6178 237.193 72.8249 236.621 72.1899L237.215 72.4674C237.028 71.897 236.94 71.2984 236.957 70.6981C236.984 70.0903 237.332 69.5427 237.871 69.2594Z" fill="#222222"/>
<path d="M230.158 70.0386L234.941 72.7488C237.634 74.2749 238.58 77.6954 237.054 80.3887C234.842 84.2919 230.025 85.8729 225.93 84.0395L230.301 80.1811L224.371 83.2021L223.105 82.4848C229.464 81.3286 230.691 76.3405 230.158 70.0386Z" fill="#222222"/>
<path d="M239.194 74.802C239.999 75.7391 241.259 76.1034 242.396 76.5911C246.47 78.3783 249.399 82.0614 250.223 86.433C250.537 88.1869 250.496 90.0025 250.993 91.7123C251.486 93.4222 252.708 95.0997 254.462 95.3964C255.649 95.5992 256.839 95.1408 257.955 94.6884C258.569 94.4416 259.183 94.1939 259.797 93.9451C259.157 92.3381 258.517 90.7311 257.879 89.1241C258.905 90.6407 260.098 92.0371 261.437 93.2871C263.637 92.3998 265.839 91.5126 268.044 90.6253C262.621 90.6459 263.546 85.3812 262.333 80.099C261.666 77.1963 255.987 75.2309 254.873 72.4693C253.134 68.1397 248.215 66.0397 243.885 67.7787C242.019 68.5281 240.482 69.9184 239.549 71.6996C238.436 72.1432 238.404 73.8766 239.194 74.802Z" fill="#222222"/>
<path d="M81.6534 125.656C80.6373 124.369 80.8566 122.503 82.1433 121.486C82.2679 121.388 82.4003 121.3 82.539 121.222L80.9902 106.507L84.9551 105.078L86.6669 122.569C87.355 124.055 86.7085 125.817 85.2229 126.505C83.9798 127.081 82.5041 126.73 81.6534 125.656Z" fill="#EC9C9F"/>
<path d="M79.5339 71.7056C79.5339 71.7056 85.9704 74.846 85.9913 78.538C86.0122 82.23 86.5454 85.5693 86.0417 86.9978C85.538 88.4264 87.3216 98.81 86.4867 99.8383C85.6517 100.867 87.3719 101.393 86.468 103.153C85.5641 104.912 85.1638 105.244 85.4951 105.644C85.8264 106.044 86.313 113.673 86.313 113.673L81.0092 114.336L75.3672 89.7135L79.5339 71.7056Z" fill="#222222"/>
<path d="M48.9241 127.151C50.1304 126.04 50.2081 124.162 49.0978 122.956C48.9902 122.839 48.8734 122.731 48.7486 122.633L52.5982 108.346L48.9082 106.31L44.46 123.312C43.5463 124.671 43.9068 126.513 45.2654 127.426C46.4021 128.191 47.9147 128.077 48.9241 127.151Z" fill="#EC9C9F"/>
<path d="M59.5242 74.2095C59.5242 74.2095 52.673 76.2958 52.0703 79.9384C51.4675 83.5809 50.4145 86.7943 50.6867 88.2844C50.9588 89.7745 47.5603 99.747 48.2226 100.894C48.885 102.041 47.1034 102.29 47.7185 104.17C48.3337 106.05 48.6767 106.44 48.2864 106.783C47.8962 107.126 46.2129 114.583 46.2129 114.583L51.3457 116.074L60.7995 92.6491L59.5242 74.2095Z" fill="#222222"/>
<path d="M85.8346 191.07L90.4043 191.07L92.5783 173.444L85.834 173.444L85.8346 191.07Z" fill="#EC9C9F"/>
<path d="M91.9241 191.482V188.384L90.7228 188.457L85.8325 188.747L84.7007 188.816L83.8354 199.192L83.7891 199.748H87.0338L87.1381 199.196L87.6093 196.685L88.8261 199.196L89.0926 199.748H97.6951C98.7605 199.741 99.6218 198.878 99.6265 197.813C99.9896 196.117 92.8357 192.451 91.9241 191.482Z" fill="#222222"/>
<path d="M32.2969 186.096L36.2715 188.351L46.8607 174.094L40.9947 170.766L32.2969 186.096Z" fill="#EC9C9F"/>
<path d="M37.394 189.458L38.9198 186.765L37.846 186.236L33.4463 184.077L32.4265 183.575L27.4164 190.91L26.2383 192.633L27.5709 193.39L29.0581 194.236L31.0745 191.857L30.8504 195.252L37.8769 199.242H37.8807L38.3327 199.497C39.2619 200.022 40.4407 199.695 40.9671 198.767C42.1182 197.469 37.7069 190.756 37.394 189.458Z" fill="#222222"/>
<path d="M63.157 104.548C53.0289 104.912 49.4695 146.206 52.5624 146.955L38.1289 173.853L58.6728 183.062L72.1808 136.16L74.4322 153.42L71.4304 180.811L84.7096 184.022L93.8946 183.366C91.5079 150.717 85.5489 116.281 80.6104 102.961L63.157 104.548Z" fill="#222222"/>
<path d="M58.5071 107.443L58.4405 107.694C64.9141 111.296 69.3347 110.525 76.4113 108.345L81.5774 107.259C82.705 105.789 81.786 104.351 80.5367 102.95L83.6337 77.4771C83.6129 74.1769 80.9206 71.5184 77.6204 71.5392C77.4848 71.5401 77.3493 71.5456 77.214 71.5556L72.5619 68.1094L65.9391 68.3379L61.5091 73.2312L58.8625 74.1768L56.8062 74.9099C56.3905 75.2843 55.9367 75.7159 55.502 76.1919L58.7546 95.5494L60.1382 101.338C58.2835 103.452 57.2617 105.516 58.5071 107.443Z" fill="#222222"/>
<path d="M1.70333e-06 199.622C-0.000617101 199.83 0.167447 199.999 0.375384 200H267.666C267.875 200 268.044 199.831 268.044 199.622C268.044 199.414 267.875 199.245 267.666 199.245H0.377634C0.169687 199.244 0.000620507 199.412 4.87669e-06 199.62L1.70333e-06 199.622Z" fill="#BDBDBD"/>
<path d="M78.6703 63.7639L78.6769 63.7622C79.3981 63.5714 79.828 62.832 79.6372 62.1107L77.7131 54.8215C77.3696 53.5153 76.767 52.2914 75.9411 51.2227C74.3259 49.138 71.9686 47.7571 69.3604 47.3677C68.0142 47.1682 66.6416 47.2434 65.3253 47.5886C59.94 49.0011 58.4359 50.7822 58.132 59.897C57.828 69.0118 60.059 67.1973 60.059 67.1973C60.1052 67.373 60.1863 67.5377 60.2975 67.6814C60.515 67.9616 60.8324 68.1469 61.1833 68.1986C61.3633 68.2249 61.5467 68.2148 61.7228 68.1689C68.4478 67.4766 75.2586 66.8462 78.6714 63.7637L78.6703 63.7639Z" fill="#222222"/>
<path d="M62.8585 56.0684C61.8715 60.0522 64.301 64.0817 68.2847 65.0686C70.194 65.5416 72.2129 65.2384 73.899 64.2253C75.5846 63.2197 76.7976 61.5813 77.2673 59.6755C78.251 55.691 75.8183 51.6634 71.8337 50.6798C69.9292 50.2096 67.916 50.5116 66.2332 51.5199C64.5454 52.524 63.33 54.1619 62.8585 56.0684Z" fill="#EC9C9F"/>
<path d="M80.182 54.8044C79.9103 53.7713 79.4337 52.8034 78.7805 51.9581C77.8525 49.6448 76.397 47.7751 73.5767 48.9102C72.5189 48.7539 71.4405 48.8119 70.4056 49.0809L68.9447 49.4587C68.9283 49.4629 68.9119 49.4672 68.8955 49.4715C64.6476 50.5956 62.1153 54.9505 63.2394 59.1984L63.2779 59.3444L66.3675 58.5422L66.6438 55.3243L67.6318 58.2145L69.2278 57.8008L69.3669 56.1774L69.8654 57.6345C72.8914 58.8102 76.3985 57.6438 80.2192 54.951L80.182 54.8044Z" fill="#222222"/>
<path d="M73.0926 64.9905C73.2031 65.2133 73.2489 65.4628 73.2247 65.7104C73.2131 65.8369 73.1839 65.9611 73.1379 66.0795C73.0983 66.1805 73.047 66.2764 72.985 66.3653C72.801 66.628 72.5294 66.8164 72.219 66.897C72.1996 66.9019 72.1802 66.9064 72.1606 66.9106C72.1411 66.9148 72.1214 66.9186 72.1016 66.9219C72.0816 66.9254 72.0617 66.9284 72.0416 66.9307C72.0216 66.9332 72.0014 66.9352 71.981 66.9369L70.833 67.027L68.4734 64.2018L69.2527 67.1544L64.0358 67.5724L60.7285 55.0432L69.0882 52.8794L68.9451 53.1736C68.4723 54.1588 68.2805 55.2554 68.3908 56.3426C68.5078 57.4423 68.8125 58.5139 69.2914 59.5108C69.768 60.5216 70.3406 61.4843 71.0013 62.3857C71.5819 63.1855 72.2081 63.9511 72.8768 64.6789C72.963 64.7721 73.0356 64.877 73.0926 64.9905Z" fill="#222222"/>
<path d="M114.48 5.48677C115.963 5.48677 117.164 4.25852 117.164 2.74339C117.164 1.22826 115.963 0 114.48 0C112.998 0 111.797 1.22826 111.797 2.74339C111.797 4.25852 112.998 5.48677 114.48 5.48677Z" fill="#222222"/>
<path d="M123.752 5.48677C125.234 5.48677 126.436 4.25852 126.436 2.74339C126.436 1.22826 125.234 0 123.752 0C122.27 0 121.068 1.22826 121.068 2.74339C121.068 4.25852 122.27 5.48677 123.752 5.48677Z" fill="#222222"/>
<path d="M133.021 5.48677C134.504 5.48677 135.705 4.25852 135.705 2.74339C135.705 1.22826 134.504 0 133.021 0C131.539 0 130.338 1.22826 130.338 2.74339C130.338 4.25852 131.539 5.48677 133.021 5.48677Z" fill="#222222"/>
<path d="M143.593 4.91159C143.511 4.91159 143.428 4.87967 143.366 4.81615L141.555 2.96513C141.435 2.84179 141.435 2.64469 141.555 2.52135L143.366 0.670488C143.489 0.545289 143.69 0.543274 143.815 0.665531C143.94 0.788095 143.942 0.989064 143.82 1.11426L142.226 2.74324L143.82 4.37237C143.942 4.49757 143.94 4.69854 143.815 4.8211C143.753 4.88153 143.673 4.91159 143.593 4.91159Z" fill="#222222"/>
<path d="M146.634 4.91183C146.554 4.91183 146.474 4.88177 146.412 4.82134C146.287 4.69877 146.284 4.49796 146.407 4.3726L148 2.74347L146.407 1.11449C146.284 0.989296 146.287 0.788328 146.412 0.665763C146.537 0.543044 146.738 0.54537 146.861 0.67072L148.671 2.52158C148.792 2.64492 148.792 2.84202 148.671 2.96536L146.861 4.81638C146.798 4.87991 146.716 4.91183 146.634 4.91183Z" fill="#222222"/>
<path d="M241.363 0.317627H237.996C237.612 0.317627 237.301 0.628609 237.301 1.01259V4.38269C237.301 4.76667 237.612 5.07766 237.996 5.07766H241.363C241.747 5.07766 242.061 4.76667 242.061 4.38269V1.01259C242.061 0.628609 241.747 0.317627 241.363 0.317627Z" fill="#222222"/>
<path d="M233.113 0.317627H229.746C229.362 0.317627 229.051 0.628609 229.051 1.01259V4.38269C229.051 4.76667 229.362 5.07766 229.746 5.07766H233.113C233.497 5.07766 233.811 4.76667 233.811 4.38269V1.01259C233.811 0.628609 233.497 0.317627 233.113 0.317627Z" fill="#222222"/>
<path d="M249.136 0.476318H245.769C245.385 0.476318 245.074 0.787301 245.074 1.17128V4.54138C245.074 4.92537 245.385 5.23635 245.769 5.23635H249.136C249.52 5.23635 249.834 4.92537 249.834 4.54138V1.17128C249.834 0.787301 249.52 0.476318 249.136 0.476318Z" fill="#222222"/>
<path d="M198.389 1.75833H171.476C171.007 1.75833 170.629 2.13914 170.629 2.60563C170.629 3.07212 171.007 3.45291 171.476 3.45291H198.389C198.856 3.45291 199.237 3.0721 199.237 2.60563C199.237 2.13916 198.856 1.75833 198.389 1.75833Z" fill="#222222"/>
</svg>
