<svg width="231" height="200" viewBox="0 0 231 200" fill="none" xmlns="http://www.w3.org/2000/svg">
<path d="M213.35 185.359L219.557 183.39C220.331 180.059 220.28 176.589 219.408 173.282C216.914 178.826 209.598 180.185 205.429 184.611C204.14 186.001 203.18 187.663 202.62 189.475C202.06 191.287 201.916 193.202 202.197 195.077L200.891 199.507C203.941 199.246 206.898 198.328 209.559 196.814C212.22 195.3 214.521 193.228 216.303 190.74C217.29 189.334 218.095 187.809 218.7 186.202C216.053 185.937 213.35 185.359 213.35 185.359Z" fill="#F2F2F2"/>
<path d="M206.716 177.167L211.394 172.637C210.6 169.31 209.007 166.227 206.752 163.656C206.993 169.731 201.05 174.21 199.293 180.03C198.759 181.849 198.641 183.766 198.948 185.637C199.255 187.508 199.98 189.286 201.067 190.84L201.874 195.387C204.488 193.794 206.725 191.652 208.431 189.111C210.138 186.57 211.273 183.689 211.759 180.666C212.015 178.968 212.056 177.244 211.881 175.536C209.393 176.479 206.716 177.167 206.716 177.167Z" fill="#F2F2F2"/>
<path d="M175.623 13.2794H0.681114C0.499156 13.2755 0.325953 13.2005 0.19863 13.0705C0.0713066 12.9404 0 12.7657 0 12.5837C0 12.4017 0.0713066 12.2269 0.19863 12.0969C0.325953 11.9668 0.499156 11.8918 0.681114 11.888H175.623C175.805 11.8918 175.978 11.9668 176.105 12.0969C176.232 12.2269 176.304 12.4017 176.304 12.5837C176.304 12.7657 176.232 12.9404 176.105 13.0705C175.978 13.2005 175.805 13.2755 175.623 13.2794Z" fill="#222222"/>
<path d="M12.5888 8.3359C14.8405 8.3359 16.6659 6.46984 16.6659 4.16795C16.6659 1.86605 14.8405 0 12.5888 0C10.3371 0 8.51172 1.86605 8.51172 4.16795C8.51172 6.46984 10.3371 8.3359 12.5888 8.3359Z" fill="#222222"/>
<path d="M26.6747 8.3359C28.9265 8.3359 30.7518 6.46984 30.7518 4.16795C30.7518 1.86605 28.9265 0 26.6747 0C24.423 0 22.5977 1.86605 22.5977 4.16795C22.5977 6.46984 24.423 8.3359 26.6747 8.3359Z" fill="#222222"/>
<path d="M40.7587 8.3359C43.0104 8.3359 44.8358 6.46984 44.8358 4.16795C44.8358 1.86605 43.0104 0 40.7587 0C38.507 0 36.6816 1.86605 36.6816 4.16795C36.6816 6.46984 38.507 8.3359 40.7587 8.3359Z" fill="#222222"/>
<path d="M167.142 1.0332H157.137C156.939 1.03715 156.75 1.1187 156.611 1.26034C156.472 1.40198 156.395 1.59241 156.395 1.79075C156.395 1.98909 156.472 2.17953 156.611 2.32117C156.75 2.4628 156.939 2.54435 157.137 2.5483H167.142C167.34 2.54435 167.529 2.4628 167.668 2.32117C167.807 2.17953 167.885 1.98909 167.885 1.79075C167.885 1.59241 167.807 1.40198 167.668 1.26034C167.529 1.1187 167.34 1.03715 167.142 1.0332Z" fill="#222222"/>
<path d="M167.142 3.87646H157.137C156.939 3.88039 156.75 3.96193 156.611 4.10357C156.472 4.24521 156.395 4.43566 156.395 4.63401C156.395 4.83237 156.472 5.02282 156.611 5.16446C156.75 5.3061 156.939 5.38764 157.137 5.39156H167.142C167.34 5.38764 167.529 5.3061 167.668 5.16446C167.807 5.02282 167.885 4.83237 167.885 4.63401C167.885 4.43566 167.807 4.24521 167.668 4.10357C167.529 3.96193 167.34 3.88039 167.142 3.87646Z" fill="#222222"/>
<path d="M167.142 6.7168H157.137C156.939 6.72072 156.75 6.80225 156.611 6.9439C156.472 7.08554 156.395 7.27599 156.395 7.47435C156.395 7.6727 156.472 7.86315 156.611 8.00479C156.75 8.14643 156.939 8.22797 157.137 8.23189H167.142C167.34 8.22797 167.529 8.14643 167.668 8.00479C167.807 7.86315 167.885 7.6727 167.885 7.47435C167.885 7.27599 167.807 7.08554 167.668 6.9439C167.529 6.80225 167.34 6.72072 167.142 6.7168Z" fill="#222222"/>
<path d="M13.5522 41.5449C16.336 41.5449 18.5928 39.2882 18.5928 36.5044C18.5928 33.7206 16.336 31.4639 13.5522 31.4639C10.7684 31.4639 8.51172 33.7206 8.51172 36.5044C8.51172 39.2882 10.7684 41.5449 13.5522 41.5449Z" fill="#F2F2F2"/>
<path d="M141.91 47.6657H10.0127C9.6146 47.6657 9.23282 47.5076 8.95133 47.2261C8.66985 46.9447 8.51172 46.5629 8.51172 46.1648C8.51172 45.7667 8.66985 45.3849 8.95133 45.1034C9.23282 44.822 9.6146 44.6638 10.0127 44.6638H141.91C142.308 44.6638 142.69 44.822 142.971 45.1034C143.253 45.3849 143.411 45.7667 143.411 46.1648C143.411 46.5629 143.253 46.9447 142.971 47.2261C142.69 47.5076 142.308 47.6657 141.91 47.6657Z" fill="#F2F2F2"/>
<path d="M107.317 53.5968H10.0128C9.61466 53.5968 9.23287 53.4387 8.95137 53.1572C8.66987 52.8757 8.51172 52.4939 8.51172 52.0958C8.51172 51.6977 8.66987 51.3159 8.95137 51.0344C9.23287 50.7529 9.61466 50.5947 10.0128 50.5947H107.317C107.716 50.5947 108.097 50.7529 108.379 51.0344C108.66 51.3159 108.819 51.6977 108.819 52.0958C108.819 52.4939 108.66 52.8757 108.379 53.1572C108.097 53.4387 107.716 53.5968 107.317 53.5968Z" fill="#F2F2F2"/>
<path d="M13.5522 120.219C16.336 120.219 18.5928 117.963 18.5928 115.179C18.5928 112.395 16.336 110.138 13.5522 110.138C10.7684 110.138 8.51172 112.395 8.51172 115.179C8.51172 117.963 10.7684 120.219 13.5522 120.219Z" fill="#F2F2F2"/>
<path d="M141.91 126.34H10.0131C9.81582 126.341 9.62038 126.302 9.438 126.227C9.25562 126.151 9.08987 126.041 8.95024 125.902C8.8106 125.762 8.69983 125.597 8.62425 125.414C8.54867 125.232 8.50977 125.037 8.50977 124.839C8.50977 124.642 8.54867 124.447 8.62425 124.264C8.69983 124.082 8.8106 123.917 8.95024 123.777C9.08987 123.638 9.25562 123.527 9.438 123.452C9.62038 123.377 9.81582 123.338 10.0131 123.338H141.91C142.328 123.362 142.723 123.54 143.016 123.84C143.309 124.139 143.48 124.537 143.495 124.955C143.482 125.15 143.431 125.341 143.345 125.517C143.258 125.692 143.138 125.849 142.991 125.978C142.844 126.106 142.672 126.205 142.487 126.267C142.301 126.329 142.105 126.354 141.91 126.34Z" fill="#F2F2F2"/>
<path d="M107.317 132.271H10.0128C9.61466 132.271 9.23287 132.113 8.95137 131.832C8.66987 131.55 8.51172 131.168 8.51172 130.77C8.51172 130.372 8.66987 129.99 8.95137 129.709C9.23287 129.427 9.61466 129.269 10.0128 129.269H107.317C107.716 129.269 108.097 129.427 108.379 129.709C108.66 129.99 108.819 130.372 108.819 130.77C108.819 131.168 108.66 131.55 108.379 131.832C108.097 132.113 107.716 132.271 107.317 132.271Z" fill="#F2F2F2"/>
<path d="M13.5522 77.9165C16.336 77.9165 18.5928 75.6598 18.5928 72.876C18.5928 70.0922 16.336 67.8354 13.5522 67.8354C10.7684 67.8354 8.51172 70.0922 8.51172 72.876C8.51172 75.6598 10.7684 77.9165 13.5522 77.9165Z" fill="#F2F2F2"/>
<path d="M141.91 84.0376H10.0127C9.6146 84.0376 9.23282 83.8794 8.95133 83.598C8.66985 83.3165 8.51172 82.9347 8.51172 82.5366C8.51172 82.1385 8.66985 81.7568 8.95133 81.4753C9.23282 81.1938 9.6146 81.0356 10.0127 81.0356H141.91C142.308 81.0356 142.69 81.1938 142.971 81.4753C143.253 81.7568 143.411 82.1385 143.411 82.5366C143.411 82.9347 143.253 83.3165 142.971 83.598C142.69 83.8794 142.308 84.0376 141.91 84.0376Z" fill="#F2F2F2"/>
<path d="M123.542 89.9686H10.0128C9.61466 89.9686 9.23287 89.8105 8.95137 89.529C8.66987 89.2475 8.51172 88.8657 8.51172 88.4676C8.51172 88.0695 8.66987 87.6877 8.95137 87.4062C9.23287 87.1247 9.61466 86.9666 10.0128 86.9666H123.542C123.94 86.9666 124.322 87.1247 124.604 87.4062C124.885 87.6877 125.043 88.0695 125.043 88.4676C125.043 88.8657 124.885 89.2475 124.604 89.529C124.322 89.8105 123.94 89.9686 123.542 89.9686Z" fill="#F2F2F2"/>
<path d="M115.837 95.8995H10.0128C9.61466 95.8995 9.23287 95.7414 8.95137 95.4599C8.66987 95.1784 8.51172 94.7966 8.51172 94.3985C8.51172 94.0004 8.66987 93.6186 8.95137 93.3371C9.23287 93.0556 9.61466 92.8975 10.0128 92.8975H115.837C116.235 92.8975 116.617 93.0556 116.898 93.3371C117.18 93.6186 117.338 94.0004 117.338 94.3985C117.338 94.7966 117.18 95.1784 116.898 95.4599C116.617 95.7414 116.235 95.8995 115.837 95.8995Z" fill="#F2F2F2"/>
<path d="M118.027 162.257C138.642 162.257 155.355 145.545 155.355 124.93C155.355 104.314 138.642 87.602 118.027 87.602C97.4114 87.602 80.6992 104.314 80.6992 124.93C80.6992 145.545 97.4114 162.257 118.027 162.257Z" fill="#006466"/>
<path d="M117.977 137.953C120.922 137.953 123.31 135.566 123.31 132.621C123.31 129.676 120.922 127.288 117.977 127.288C115.032 127.288 112.645 129.676 112.645 132.621C112.645 135.566 115.032 137.953 117.977 137.953Z" fill="#222222"/>
<path d="M117.975 135.082C119.334 135.082 120.436 133.98 120.436 132.621C120.436 131.261 119.334 130.159 117.975 130.159C116.616 130.159 115.514 131.261 115.514 132.621C115.514 133.98 116.616 135.082 117.975 135.082Z" fill="#006466"/>
<path d="M127.875 144.491H108.18C106.23 144.489 104.36 143.713 102.981 142.334C101.602 140.956 100.826 139.086 100.824 137.136V128.106C100.826 126.156 101.602 124.286 102.981 122.907C104.36 121.528 106.23 120.752 108.18 120.75H127.875C129.825 120.752 131.695 121.528 133.073 122.907C134.452 124.286 135.228 126.156 135.23 128.106V137.136C135.228 139.086 134.452 140.956 133.073 142.334C131.694 143.713 129.825 144.489 127.875 144.491ZM108.18 121.52C106.434 121.522 104.76 122.217 103.525 123.451C102.291 124.686 101.596 126.36 101.594 128.106V137.136C101.596 138.882 102.291 140.556 103.525 141.79C104.76 143.025 106.434 143.719 108.18 143.721H127.875C129.621 143.719 131.295 143.025 132.529 141.79C133.764 140.556 134.458 138.882 134.46 137.136V128.106C134.458 126.36 133.764 124.686 132.529 123.451C131.295 122.217 129.621 121.522 127.875 121.52L108.18 121.52Z" fill="white"/>
<path d="M107.013 139.589H124.494C125.401 139.589 126.3 139.411 127.138 139.063C127.977 138.716 128.738 138.207 129.38 137.566C130.021 136.924 130.53 136.162 130.878 135.324C131.225 134.486 131.404 133.587 131.404 132.68V125.123C131.402 124.285 131.248 123.455 130.948 122.672C131.801 123.314 132.493 124.146 132.969 125.101C133.446 126.056 133.694 127.109 133.694 128.177V135.734C133.694 136.641 133.515 137.539 133.168 138.378C132.821 139.216 132.312 139.978 131.67 140.619C131.028 141.261 130.267 141.77 129.428 142.117C128.59 142.464 127.692 142.643 126.784 142.643H109.303C107.902 142.642 106.535 142.215 105.382 141.419C104.229 140.623 103.346 139.495 102.85 138.185C104.046 139.096 105.509 139.59 107.013 139.589Z" fill="#222222"/>
<path d="M160.546 195.062L156.251 195.061L154.207 178.492L160.547 178.493L160.546 195.062Z" fill="#EC9C9F"/>
<path d="M160.698 199.543L147.488 199.542V199.375C147.488 198.012 148.03 196.704 148.994 195.74C149.959 194.776 151.266 194.234 152.63 194.234L155.043 192.403L159.545 194.234L160.698 194.234L160.698 199.543Z" fill="#222222"/>
<path d="M190.94 195.062L195.236 195.061L197.279 178.492L190.939 178.493L190.94 195.062Z" fill="#EC9C9F"/>
<path d="M190.789 199.543L203.999 199.542V199.375C203.999 198.012 203.457 196.704 202.493 195.74C201.529 194.776 200.221 194.234 198.857 194.234L196.444 192.403L191.942 194.234L190.789 194.234L190.789 199.543Z" fill="#222222"/>
<path d="M154.018 166.317C154.081 165.371 154.586 160.143 154.586 160.143L155.794 149.054L157.924 119.662L158.063 117.737L169.217 115.596L176.841 111.941L185.903 114.838L192.959 117.484C192.959 117.484 192.971 118.616 193.025 119.985C193.098 121.776 193.224 123.972 193.527 124.543C194.031 125.552 193.904 130.967 193.904 130.967C193.904 130.967 194.406 141.986 195.037 143.195C195.668 144.403 195.795 146.919 195.605 147.423C195.414 147.928 196.236 161.161 196.236 161.161C196.236 161.161 198.345 184.578 197.022 188.109C195.699 191.64 190.699 189.327 190.699 189.327C190.699 189.327 190.941 188.385 189.491 187.941C188.041 187.497 183.625 154.292 183.625 154.292C183.625 154.292 182.804 147.484 182.049 145.532C181.293 143.581 180.599 138.099 180.599 138.099C180.599 138.099 175.935 129.025 175.875 127.007C175.875 127.007 175.264 125.12 174.688 127.198C174.111 129.276 172.41 134.254 172.41 134.254L170.752 140.367L168.8 149.501L167.538 157.192C167.538 157.192 165.647 167.398 165.345 167.839C165.043 168.28 165.345 177.604 165.345 177.604C165.345 177.604 163.883 185.545 161.817 186.932C159.751 188.318 154.277 186.954 154.277 186.954C154.277 186.954 153.955 167.262 154.018 166.317Z" fill="#222222"/>
<path d="M158.777 90.9302L161.257 98.4L158.197 102.043L159.545 103.429L158.551 105.389L155.959 125.935L170.167 131.324L174.952 125.325L178.725 131.324L195.166 127.306L190.973 101.106V99.3936L189.789 96.0861V89.0844L192.915 68.2429L183.585 64.9746L179.123 61.4438L177.68 66.4095L171.533 65.3162L171.373 61.5855L166.67 66.029L162.71 67.1585L157.968 68.2429L157.363 69.7532L158.571 69.4513L158.375 89.0998L158.777 90.9302Z" fill="#222222"/>
<path d="M154.531 118.261L156.918 95.1631L157.547 85.6567L150.868 84.449C150.868 84.449 151.133 91.2463 150.258 95.0815C149.395 98.866 150.143 117.754 150.197 118.259C149.706 118.698 149.36 119.275 149.205 119.914C149.05 120.554 149.092 121.225 149.327 121.84C149.561 122.455 149.977 122.984 150.519 123.357C151.061 123.731 151.703 123.931 152.361 123.931C153.019 123.931 153.662 123.732 154.204 123.359C154.746 122.986 155.163 122.458 155.398 121.843C155.633 121.228 155.676 120.557 155.521 119.917C155.367 119.278 155.021 118.7 154.531 118.261Z" fill="#EC9C9F"/>
<path d="M148.014 99.9496L149.872 100.333L156.245 101.653L156.598 101.726L157.351 98.7353L158.223 97.805L159.885 89.0998L159.972 88.6468L162.482 83.2823L164.219 67.1587L157.761 68.3186C157.728 68.3518 157.698 68.388 157.668 68.4243C156.74 69.4754 156.079 70.9374 154.997 72.4084C151.478 77.1959 148.778 88.828 148.884 95.2013C148.887 95.304 148.781 95.4158 148.654 95.5306C148.056 96.081 147.665 96.8212 147.548 97.6262C147.432 98.4312 147.596 99.2518 148.014 99.9496Z" fill="#222222"/>
<path d="M196.051 118.261L193.665 95.1631L193.035 85.6567L199.714 84.449C199.714 84.449 199.45 91.2463 200.325 95.0815C201.188 98.866 200.439 117.754 200.386 118.259C200.876 118.698 201.222 119.275 201.378 119.914C201.533 120.554 201.49 121.225 201.256 121.84C201.021 122.455 200.605 122.984 200.064 123.357C199.522 123.731 198.879 123.931 198.221 123.931C197.563 123.931 196.921 123.732 196.378 123.359C195.836 122.986 195.42 122.458 195.185 121.843C194.95 121.228 194.906 120.557 195.061 119.917C195.216 119.278 195.561 118.7 196.051 118.261Z" fill="#EC9C9F"/>
<path d="M202.566 99.9496L200.708 100.333L194.335 101.653L193.982 101.726L193.23 98.7353L192.357 97.805L190.695 89.0998L190.608 88.6468L188.098 83.2823L188.672 67.1587L192.819 68.3186C192.852 68.3518 192.882 68.388 192.913 68.4243C193.84 69.4754 194.501 70.9374 195.583 72.4084C199.102 77.1959 201.802 88.828 201.696 95.2013C201.693 95.304 201.799 95.4158 201.926 95.5306C202.524 96.081 202.915 96.8212 203.032 97.6262C203.148 98.4312 202.984 99.2518 202.566 99.9496Z" fill="#222222"/>
<path d="M168.339 69.5441L171.373 61.5856L179.124 61.4436L181.696 69.5441L190.94 121.185C190.94 121.185 162.619 129.072 162.906 119.592C163.209 109.624 164.571 96.3836 164.571 96.3836L168.339 69.5441Z" fill="#006466"/>
<path d="M175.076 59.3596C180.118 59.3596 184.206 55.2718 184.206 50.2292C184.206 45.1867 180.118 41.0989 175.076 41.0989C170.033 41.0989 165.945 45.1867 165.945 50.2292C165.945 55.2718 170.033 59.3596 175.076 59.3596Z" fill="#EC9C9F"/>
<path d="M165.405 43.6059C166.892 41.988 168.751 39.0264 174.382 37.7828C181.341 36.2461 184.629 42.5323 182.874 42.6354C188.006 44.1892 184.709 54.8081 183.238 53.9175C183.226 53.9087 183.213 53.8993 183.202 53.8892C182.411 53.3066 181.747 52.5687 181.25 51.7208C180.754 50.8729 180.436 49.9326 180.315 48.9576L180.036 46.4447C179.996 48.4892 177.906 48.7597 175.771 48.0067C175.897 47.5585 176.138 47.1508 176.47 46.8241C176.802 46.4974 177.213 46.2628 177.663 46.1436C176.175 47.4927 174.285 48.3153 172.283 48.4846C172.388 47.9727 172.601 47.4891 172.908 47.0664C173.216 46.6437 173.61 46.2916 174.064 46.0338L173.98 45.951C173.146 46.6541 172.189 47.196 171.157 47.5493C169.98 47.8866 168.57 47.7041 167.764 46.7829C167.547 46.5287 167.383 46.2335 167.282 45.9149C167.456 47.534 166.37 49.3823 165.526 49.065C164.825 48.9286 164.416 44.6829 165.405 43.6059Z" fill="#222222"/>
<path d="M230.43 199.542C230.43 199.602 230.419 199.662 230.396 199.717C230.373 199.773 230.339 199.824 230.296 199.866C230.254 199.909 230.203 199.943 230.147 199.965C230.092 199.988 230.032 200 229.972 200H122.036C121.915 200 121.798 199.952 121.712 199.866C121.626 199.78 121.578 199.663 121.578 199.542C121.578 199.42 121.626 199.304 121.712 199.218C121.798 199.132 121.915 199.083 122.036 199.083H229.972C230.032 199.083 230.092 199.095 230.147 199.118C230.203 199.141 230.254 199.175 230.296 199.217C230.339 199.26 230.373 199.31 230.396 199.366C230.419 199.422 230.43 199.482 230.43 199.542Z" fill="#BDBDBD"/>
<path d="M118.329 104.69C114.679 104.69 111.469 106.343 109.652 108.824C111.595 107.41 113.94 106.658 116.342 106.677C121.996 106.677 126.596 110.637 126.596 115.505V119.552H128.583V113.518C128.583 108.65 123.983 104.69 118.329 104.69Z" fill="#222222"/>
<path d="M129.949 121.623H106.105V114.608C106.105 108.947 111.454 104.343 118.027 104.343C124.601 104.343 129.949 108.947 129.949 114.608V121.623ZM106.876 120.853H129.179V114.608C129.179 109.372 124.176 105.113 118.027 105.113C111.878 105.113 106.876 109.372 106.876 114.608V120.853Z" fill="white"/>
<path d="M124.133 118.945H111.92C111.37 118.944 110.844 118.726 110.455 118.337C110.067 117.948 109.848 117.422 109.848 116.872V114.08C109.848 110.188 113.517 107.021 118.026 107.021C122.536 107.021 126.205 110.188 126.205 114.08V116.872C126.205 117.422 125.986 117.948 125.598 118.337C125.209 118.726 124.682 118.944 124.133 118.945ZM118.026 107.791C113.941 107.791 110.618 110.612 110.618 114.08V116.872C110.618 117.217 110.755 117.548 111 117.793C111.244 118.037 111.575 118.174 111.92 118.175H124.133C124.478 118.174 124.809 118.037 125.053 117.793C125.297 117.548 125.435 117.217 125.435 116.872V114.08C125.435 110.612 122.112 107.791 118.026 107.791Z" fill="white"/>
</svg>
