<svg width="261" height="200" viewBox="0 0 261 200" fill="none" xmlns="http://www.w3.org/2000/svg">
<path d="M37.2101 41.3643C35.4729 41.3643 33.7747 40.8491 32.3303 39.884C30.8859 38.9189 29.7601 37.5471 29.0954 35.9422C28.4306 34.3372 28.2566 32.5712 28.5955 30.8674C28.9344 29.1636 29.771 27.5986 30.9993 26.3702C32.2277 25.1418 33.7927 24.3053 35.4965 23.9664C37.2003 23.6275 38.9664 23.8014 40.5713 24.4662C42.1763 25.131 43.548 26.2568 44.5132 27.7012C45.4783 29.1456 45.9934 30.8438 45.9934 32.5809C45.9934 34.9104 45.068 37.1445 43.4209 38.7917C41.7737 40.4389 39.5396 41.3643 37.2101 41.3643ZM37.2101 24.1007C35.5328 24.1007 33.8932 24.5981 32.4986 25.53C31.1039 26.4618 30.017 27.7863 29.3751 29.3359C28.7332 30.8855 28.5653 32.5907 28.8925 34.2357C29.2197 35.8808 30.0274 37.3919 31.2134 38.5779C32.3995 39.764 33.9106 40.5716 35.5556 40.8989C37.2007 41.2261 38.9058 41.0582 40.4555 40.4163C42.0051 39.7744 43.3295 38.6874 44.2614 37.2928C45.1933 35.8982 45.6906 34.2586 45.6906 32.5813C45.6906 31.4676 45.4713 30.3648 45.0451 29.3359C44.6189 28.307 43.9942 27.3721 43.2067 26.5846C42.4193 25.7971 41.4844 25.1725 40.4555 24.7463C39.4266 24.3201 38.3238 24.1007 37.2101 24.1007Z" fill="#222222"/>
<path d="M126.246 41.3643C124.509 41.3643 122.811 40.8491 121.366 39.884C119.922 38.9189 118.796 37.5471 118.131 35.9422C117.467 34.3372 117.293 32.5712 117.632 30.8674C117.971 29.1636 118.807 27.5986 120.035 26.3702C121.264 25.1418 122.829 24.3053 124.533 23.9664C126.236 23.6275 128.003 23.8014 129.607 24.4662C131.212 25.131 132.584 26.2568 133.549 27.7012C134.514 29.1456 135.03 30.8438 135.03 32.5809C135.03 34.9104 134.104 37.1445 132.457 38.7917C130.81 40.4389 128.576 41.3643 126.246 41.3643ZM126.246 24.1007C124.569 24.1007 122.929 24.5981 121.535 25.53C120.14 26.4618 119.053 27.7863 118.411 29.3359C117.769 30.8855 117.601 32.5907 117.929 34.2357C118.256 35.8808 119.064 37.3919 120.25 38.5779C121.436 39.764 122.947 40.5716 124.592 40.8989C126.237 41.2261 127.942 41.0582 129.492 40.4163C131.041 39.7744 132.366 38.6874 133.298 37.2928C134.229 35.8982 134.727 34.2586 134.727 32.5813C134.727 31.4676 134.507 30.3648 134.081 29.3359C133.655 28.307 133.03 27.3721 132.243 26.5846C131.455 25.7971 130.52 25.1725 129.492 24.7463C128.463 24.3201 127.36 24.1007 126.246 24.1007Z" fill="#222222"/>
<path d="M158.405 20.9786H5.39655C2.41791 20.9837 0.004078 23.9657 0 27.6461V100.594C0.004078 104.274 2.41791 107.254 5.39655 107.261H158.405C161.383 107.256 163.797 104.274 163.801 100.594V27.6458C163.797 23.9657 161.383 20.9851 158.405 20.9783V20.9786ZM163.167 100.594C163.164 103.841 161.034 106.473 158.405 106.477H5.39655C2.76794 106.473 0.638885 103.841 0.634807 100.594V27.6458C0.637866 24.3984 2.76794 21.7667 5.39655 21.7629H158.405C161.033 21.767 163.162 24.3984 163.167 27.6458L163.167 100.594Z" fill="#222222"/>
<path d="M38.4015 50.3186H11.2148V69.3493H38.4015V50.3186Z" fill="#F2F2F2"/>
<path d="M76.463 50.3186H49.2764V69.3493H76.463V50.3186Z" fill="#F2F2F2"/>
<path d="M114.524 50.3186H87.3369V69.3493H114.524V50.3186Z" fill="#F2F2F2"/>
<path d="M152.585 50.3185H125.398V69.3492H152.585V50.3185Z" fill="#F2F2F2"/>
<path d="M38.4015 78.1848H11.2148V97.2155H38.4015V78.1848Z" fill="#F2F2F2"/>
<path d="M76.463 78.1848H49.2764V97.2155H76.463V78.1848Z" fill="#F2F2F2"/>
<path d="M114.524 78.1848H87.3369V97.2155H114.524V78.1848Z" fill="#F2F2F2"/>
<path d="M152.585 78.1849H125.398V97.2155H152.585V78.1849Z" fill="#F2F2F2"/>
<path d="M58.3318 97.1046L51.9141 88.2414L53.6622 86.9758L58.5748 93.7599L77.3733 74.4465L78.9196 75.952L58.3318 97.1046Z" fill="#006466"/>
<path d="M96.7332 69.2383L90.3154 60.3751L92.0635 59.1095L96.9762 65.8936L115.775 46.5802L117.321 48.0857L96.7332 69.2383Z" fill="#006466"/>
<path d="M37.3259 0H36.8613V32.6206H37.3259V0Z" fill="#222222"/>
<path d="M126.702 0H126.237V32.6206H126.702V0Z" fill="#222222"/>
<path d="M260.102 199.999H131.22C131.156 200.003 131.092 199.994 131.032 199.973C130.971 199.951 130.916 199.918 130.87 199.874C130.823 199.83 130.786 199.777 130.76 199.719C130.735 199.66 130.722 199.597 130.722 199.533C130.722 199.469 130.735 199.406 130.76 199.347C130.786 199.288 130.823 199.235 130.87 199.192C130.916 199.148 130.971 199.114 131.032 199.093C131.092 199.071 131.156 199.062 131.22 199.067H260.102C260.166 199.062 260.23 199.071 260.29 199.093C260.35 199.114 260.405 199.148 260.452 199.192C260.499 199.235 260.536 199.288 260.561 199.347C260.587 199.406 260.6 199.469 260.6 199.533C260.6 199.597 260.587 199.66 260.561 199.719C260.536 199.777 260.499 199.83 260.452 199.874C260.405 199.918 260.35 199.951 260.29 199.973C260.23 199.994 260.166 200.003 260.102 199.999Z" fill="#222222"/>
<path d="M20.6101 69.2384L14.1924 60.3752L15.9405 59.1096L20.8531 65.8937L39.6517 46.5803L41.1979 48.0858L20.6101 69.2384Z" fill="#006466"/>
<path d="M223.016 126.685C223.196 126.631 223.38 126.592 223.567 126.567L231.009 111.445L228.737 108.039L233.429 103.938L239.328 111.156L227.314 128.64C227.61 129.301 227.698 130.037 227.566 130.749C227.433 131.462 227.087 132.117 226.573 132.628C226.06 133.139 225.402 133.482 224.689 133.61C223.976 133.738 223.24 133.646 222.581 133.346C221.921 133.046 221.368 132.552 220.996 131.931C220.624 131.309 220.45 130.588 220.497 129.865C220.544 129.142 220.81 128.45 221.26 127.882C221.71 127.314 222.323 126.897 223.016 126.685Z" fill="#EC9C9F"/>
<path d="M235.72 106.029C235.618 106.136 235.502 106.228 235.374 106.301L227.76 110.715C227.409 110.919 226.992 110.974 226.6 110.87C226.208 110.766 225.874 110.51 225.67 110.159C225.649 110.122 225.629 110.085 225.611 110.046L221.907 102.223C221.749 101.893 221.715 101.518 221.811 101.166C221.907 100.814 222.126 100.508 222.429 100.304L227.149 97.0934C227.444 96.893 227.799 96.8017 228.154 96.8355C228.509 96.8692 228.841 97.0259 229.092 97.2783L235.69 103.899C235.97 104.18 236.131 104.56 236.136 104.958C236.142 105.356 235.992 105.74 235.719 106.029L235.72 106.029Z" fill="#BDBDBD"/>
<path d="M246.411 192.677L242.391 193.771L236.259 178.784L242.192 177.17L246.411 192.677Z" fill="#EC9C9F"/>
<path d="M239.208 193.402L246.961 191.292L248.288 196.173L235.654 199.61C235.302 198.316 235.478 196.934 236.145 195.769C236.811 194.605 237.913 193.753 239.207 193.4L239.208 193.402Z" fill="#222222"/>
<path d="M212.043 195.745H207.877L205.895 179.675H212.043V195.745Z" fill="#EC9C9F"/>
<path d="M204.901 194.554H212.936V199.613H199.842C199.842 198.949 199.973 198.291 200.227 197.677C200.481 197.064 200.854 196.506 201.323 196.036C201.793 195.566 202.351 195.193 202.965 194.939C203.578 194.685 204.237 194.554 204.901 194.554Z" fill="#222222"/>
<path d="M216.433 91.759C221.042 91.759 224.779 88.022 224.779 83.4123C224.779 78.8026 221.042 75.0657 216.433 75.0657C211.823 75.0657 208.086 78.8026 208.086 83.4123C208.086 88.022 211.823 91.759 216.433 91.759Z" fill="#EC9C9F"/>
<path d="M211.788 184.287H206.095C205.706 184.286 205.331 184.138 205.047 183.871C204.763 183.605 204.591 183.24 204.566 182.852C202.869 155.882 203.862 136.536 207.689 121.969C207.706 121.906 207.726 121.843 207.751 121.782L208.057 121.02C208.169 120.735 208.365 120.491 208.618 120.32C208.872 120.148 209.171 120.057 209.477 120.058H221.185C221.405 120.058 221.623 120.106 221.824 120.198C222.024 120.29 222.202 120.424 222.346 120.592L223.936 122.447C223.967 122.484 223.996 122.521 224.024 122.559C231.194 132.559 237.621 152.109 245.064 178.386C245.174 178.768 245.13 179.178 244.942 179.528C244.755 179.878 244.437 180.142 244.059 180.261L237.942 182.219C237.59 182.33 237.211 182.311 236.873 182.165C236.534 182.02 236.259 181.758 236.098 181.427L220.22 148.495C220.109 148.265 219.927 148.076 219.7 147.958C219.474 147.839 219.215 147.797 218.963 147.837C218.711 147.877 218.478 147.997 218.299 148.179C218.12 148.362 218.005 148.597 217.97 148.85L213.304 182.964C213.252 183.33 213.071 183.665 212.793 183.908C212.514 184.151 212.158 184.285 211.788 184.287Z" fill="#222222"/>
<path d="M223.294 122.584H223.246L209.023 122.134C208.658 122.124 208.308 121.982 208.038 121.736C207.768 121.489 207.596 121.153 207.552 120.79C205.751 106.197 210.694 102.288 212.903 101.284C213.088 101.2 213.248 101.071 213.368 100.907C213.487 100.744 213.563 100.553 213.587 100.351L213.778 98.8222C213.811 98.552 213.915 98.2955 214.081 98.0793C217.545 93.5918 222.275 92.1546 224.785 91.6979C225.184 91.6263 225.595 91.7159 225.927 91.9471C226.259 92.1783 226.486 92.5321 226.558 92.9307C226.563 92.9558 226.566 92.981 226.57 93.0063L226.856 95.2026C226.885 95.412 226.969 95.6102 227.099 95.7773C234.323 105.222 226.275 119.167 224.588 121.867C224.45 122.086 224.259 122.266 224.033 122.392C223.807 122.517 223.552 122.583 223.294 122.584Z" fill="#BDBDBD"/>
<path d="M218.819 140.823L208.074 142.894L207.666 140.775L215.89 139.189L206.331 113.99L208.349 113.225L218.819 140.823Z" fill="#006466"/>
<path d="M233.273 84.352C231.411 81.7302 229.178 79.3927 226.645 77.4126C224.538 75.7675 222.193 74.3616 219.607 73.6894C217.021 73.0172 214.163 73.1314 211.803 74.3857C209.444 75.64 207.003 78.1324 206.988 80.8048C206.984 81.6636 207.202 82.8251 208.048 82.6766L208.292 82.7106L214.412 81.4746L217.018 90.5196C217.201 91.1551 217.447 91.8657 218.05 92.1366C218.618 92.3918 219.273 92.1512 219.851 91.9112C219.946 91.8718 220.758 90.0483 220.758 90.0483C220.778 89.9913 220.813 89.9408 220.86 89.9019C220.906 89.8631 220.962 89.8373 221.022 89.8274C221.081 89.8174 221.143 89.8235 221.199 89.8452C221.256 89.8668 221.305 89.9031 221.343 89.9504L221.826 90.5536C221.918 90.6691 222.045 90.7514 222.188 90.7882C222.331 90.825 222.482 90.8142 222.618 90.7575L232.598 86.5915C233.058 86.3995 233.571 86.1497 233.705 85.6689C233.83 85.2063 233.549 84.7415 233.273 84.352Z" fill="#222222"/>
<path d="M221.967 143.325C222.404 143.019 222.769 142.62 223.035 142.158C223.301 141.695 223.463 141.18 223.508 140.648C223.554 140.117 223.482 139.581 223.299 139.08C223.115 138.579 222.824 138.124 222.445 137.748L225.087 105.848L217.222 106.93L217.072 137.922C216.481 138.6 216.159 139.471 216.167 140.37C216.175 141.269 216.513 142.133 217.117 142.8C217.72 143.466 218.547 143.888 219.441 143.985C220.335 144.082 221.233 143.847 221.966 143.326L221.967 143.325Z" fill="#EC9C9F"/>
<path d="M225.601 110.441C225.454 110.441 225.307 110.42 225.166 110.378L216.723 107.895C216.53 107.838 216.35 107.744 216.194 107.618C216.038 107.492 215.908 107.336 215.812 107.16C215.716 106.984 215.655 106.79 215.634 106.59C215.612 106.391 215.63 106.189 215.687 105.996C215.699 105.955 215.713 105.915 215.728 105.876L218.853 97.8034C218.983 97.4623 219.232 97.1795 219.553 97.0066C219.875 96.8337 220.248 96.7821 220.604 96.8613L226.182 98.0739C226.531 98.1496 226.841 98.3446 227.061 98.6251C227.281 98.9056 227.396 99.2541 227.386 99.6103L227.126 108.953C227.116 109.351 226.95 109.728 226.666 110.006C226.381 110.284 225.999 110.44 225.601 110.441V110.441Z" fill="#BDBDBD"/>
</svg>
