<svg width="284" height="200" viewBox="0 0 284 200" fill="none" xmlns="http://www.w3.org/2000/svg">
<path d="M274.062 168.727H170.486C168.031 168.725 165.678 167.748 163.942 166.012C162.206 164.276 161.229 161.923 161.227 159.468V9.25958C161.229 6.80464 162.206 4.45104 163.942 2.71513C165.678 0.979224 168.031 0.00277092 170.486 0H274.062C276.517 0.00277188 278.87 0.979224 280.606 2.71513C282.342 4.45104 283.319 6.80464 283.321 9.25958V159.468C283.319 161.923 282.342 164.276 280.606 166.012C278.87 167.748 276.517 168.725 274.062 168.727Z" fill="#F2F2F2"/>
<path d="M274.245 162.819H170.305C169.548 162.819 168.822 162.518 168.287 161.982C167.752 161.447 167.451 160.722 167.45 159.965V8.76221C167.451 8.00545 167.752 7.27993 168.287 6.74482C168.822 6.20971 169.548 5.9087 170.305 5.90784H274.245C275.002 5.9087 275.727 6.20971 276.262 6.74482C276.797 7.27993 277.098 8.00545 277.099 8.76221V159.965C277.098 160.722 276.797 161.447 276.262 161.982C275.727 162.518 275.002 162.819 274.245 162.819Z" fill="white"/>
<path d="M264.169 105.473H180.379C180.31 105.473 180.243 105.445 180.194 105.396C180.145 105.347 180.117 105.28 180.117 105.21V65.05C180.117 64.9805 180.145 64.9138 180.194 64.8646C180.243 64.8154 180.31 64.7878 180.379 64.7878C180.449 64.7878 180.516 64.8154 180.565 64.8646C180.614 64.9138 180.642 64.9805 180.642 65.05V104.948H264.169C264.238 104.948 264.305 104.976 264.354 105.025C264.403 105.075 264.43 105.141 264.43 105.21C264.43 105.28 264.403 105.346 264.354 105.396C264.305 105.445 264.238 105.472 264.169 105.473Z" fill="#222222"/>
<path d="M198.281 102.588H190.66C190.454 102.588 190.256 102.506 190.11 102.36C189.964 102.214 189.882 102.016 189.882 101.81V91.3042C189.882 91.0979 189.964 90.9 190.11 90.7541C190.256 90.6082 190.454 90.5261 190.66 90.5259H198.281C198.488 90.5261 198.685 90.6082 198.831 90.7541C198.977 90.9 199.059 91.0979 199.06 91.3042V101.81C199.059 102.016 198.977 102.214 198.831 102.36C198.685 102.506 198.488 102.588 198.281 102.588Z" fill="#006466"/>
<path d="M212.18 102.588H204.559C204.352 102.588 204.154 102.506 204.009 102.36C203.863 102.214 203.781 102.016 203.78 101.81V81.3398C203.781 81.1334 203.863 80.9356 204.009 80.7897C204.154 80.6438 204.352 80.5617 204.559 80.5615H212.18C212.386 80.5617 212.584 80.6438 212.73 80.7897C212.876 80.9356 212.958 81.1334 212.958 81.3398V101.81C212.958 102.016 212.876 102.214 212.73 102.36C212.584 102.506 212.386 102.588 212.18 102.588Z" fill="#006466"/>
<path d="M226.077 102.588H218.456C218.25 102.588 218.052 102.506 217.906 102.36C217.76 102.214 217.678 102.016 217.678 101.81V91.3043C217.678 91.0979 217.76 90.9001 217.906 90.7542C218.052 90.6083 218.25 90.5262 218.456 90.526H226.077C226.283 90.5262 226.481 90.6083 226.627 90.7542C226.773 90.9001 226.855 91.0979 226.856 91.3043V101.81C226.855 102.016 226.773 102.214 226.627 102.36C226.481 102.506 226.283 102.588 226.077 102.588Z" fill="#006466"/>
<path d="M239.976 102.588H232.355C232.153 102.593 231.958 102.517 231.812 102.378C231.666 102.238 231.581 102.047 231.576 101.845V77.3712C231.581 77.1695 231.666 76.9781 231.812 76.8388C231.958 76.6995 232.153 76.6238 232.355 76.6281H239.976C240.177 76.6238 240.372 76.6995 240.518 76.8388C240.664 76.9781 240.749 77.1695 240.754 77.3712V101.845C240.749 102.047 240.664 102.238 240.518 102.378C240.372 102.517 240.177 102.593 239.976 102.588Z" fill="#006466"/>
<path d="M253.873 102.588H246.252C246.046 102.588 245.848 102.506 245.702 102.36C245.556 102.214 245.474 102.016 245.474 101.81V70.3262C245.474 70.1198 245.556 69.922 245.702 69.7761C245.848 69.6302 246.046 69.5481 246.252 69.5479H253.873C254.079 69.5481 254.277 69.6302 254.423 69.7761C254.569 69.922 254.651 70.1198 254.651 70.3262V101.81C254.651 102.016 254.569 102.214 254.423 102.36C254.277 102.506 254.079 102.588 253.873 102.588Z" fill="#006466"/>
<path d="M194.472 87.3794C195.341 87.3794 196.045 86.6749 196.045 85.806C196.045 84.9371 195.341 84.2327 194.472 84.2327C193.603 84.2327 192.898 84.9371 192.898 85.806C192.898 86.6749 193.603 87.3794 194.472 87.3794Z" fill="#222222"/>
<path d="M208.369 77.1525C209.238 77.1525 209.943 76.4481 209.943 75.5792C209.943 74.7103 209.238 74.0059 208.369 74.0059C207.5 74.0059 206.796 74.7103 206.796 75.5792C206.796 76.4481 207.5 77.1525 208.369 77.1525Z" fill="#222222"/>
<path d="M222.267 87.3794C223.136 87.3794 223.84 86.6749 223.84 85.806C223.84 84.9371 223.136 84.2327 222.267 84.2327C221.398 84.2327 220.693 84.9371 220.693 85.806C220.693 86.6749 221.398 87.3794 222.267 87.3794Z" fill="#222222"/>
<path d="M236.165 72.1704C237.034 72.1704 237.738 71.466 237.738 70.597C237.738 69.7281 237.034 69.0237 236.165 69.0237C235.296 69.0237 234.592 69.7281 234.592 70.597C234.592 71.466 235.296 72.1704 236.165 72.1704Z" fill="#222222"/>
<path d="M250.063 66.4013C250.932 66.4013 251.636 65.6969 251.636 64.8279C251.636 63.959 250.932 63.2546 250.063 63.2546C249.194 63.2546 248.489 63.959 248.489 64.8279C248.489 65.6969 249.194 66.4013 250.063 66.4013Z" fill="#222222"/>
<path d="M222.3 86.1583L208.369 75.7241L194.628 86.0157L194.313 85.5961L208.369 75.0685L222.233 85.4535L236.011 70.3761L236.067 70.3535L249.964 64.7539L250.16 65.2405L236.318 70.8179L222.3 86.1583Z" fill="#222222"/>
<path d="M99.8642 81.631C99.3325 81.6306 98.8071 81.7471 98.3254 81.9723C97.8437 82.1975 97.4173 82.5259 97.0766 82.9341L80.7822 82.4248L80.1444 79.6777L71.7119 83.7927L72.8028 91.3161L97.6357 88.1365C98.0926 88.4915 98.6277 88.7322 99.1964 88.8388C99.7652 88.9453 100.351 88.9145 100.906 88.749C101.46 88.5834 101.967 88.2879 102.384 87.887C102.801 87.4861 103.117 86.9914 103.304 86.444C103.492 85.8966 103.546 85.3123 103.462 84.7398C103.379 84.1672 103.159 83.623 102.823 83.1522C102.486 82.6815 102.042 82.2979 101.528 82.0333C101.013 81.7687 100.443 81.6308 99.8642 81.631Z" fill="#EC9C9F"/>
<path d="M69.6824 195.304H74.1405L76.2616 178.108L69.6816 178.108L69.6824 195.304Z" fill="#EC9C9F"/>
<path d="M68.5449 193.848L77.3246 193.848H77.3249C78.8088 193.848 80.2319 194.437 81.2811 195.487C82.3304 196.536 82.9199 197.959 82.92 199.443V199.625L68.5452 199.625L68.5449 193.848Z" fill="#222222"/>
<path d="M52.8604 191.759L57.1433 192.996L63.9549 177.066L57.6338 175.239L52.8604 191.759Z" fill="#EC9C9F"/>
<path d="M52.172 190.045L60.6066 192.482C62.0321 192.894 63.2359 193.855 63.9526 195.155C64.6693 196.454 64.8405 197.985 64.4287 199.41L64.3782 199.585L50.5684 195.595L52.172 190.045Z" fill="#222222"/>
<path d="M64.2075 120.636C64.2075 120.636 62.6218 125.06 65.1233 131.096L67.0536 155.957L67.6248 191.314H75.7522L80.6708 155.27L83.6248 122.587L64.2075 120.636Z" fill="#222222"/>
<path d="M59.6366 120.636C59.6366 120.636 58.0509 125.06 60.5524 131.096L62.4827 155.957L52.8721 189.631H60.9995L76.0999 155.27L79.0539 122.587L59.6366 120.636Z" fill="#222222"/>
<path d="M83.4791 63.6138C88.4117 63.6138 92.4104 59.6151 92.4104 54.6825C92.4104 49.7499 88.4117 45.7512 83.4791 45.7512C78.5465 45.7512 74.5479 49.7499 74.5479 54.6825C74.5479 59.6151 78.5465 63.6138 83.4791 63.6138Z" fill="#EC9C9F"/>
<path d="M84.6739 76.4078L82.8639 67.9981L73.6478 62.7654L71.779 65.3817C71.779 65.3817 58.5919 68.8471 60.1868 83.9897C61.7816 99.1324 61.0543 106.405 61.0543 106.405L57.418 123.132C57.418 123.132 58.5373 123.325 84.2287 127.813L85.3196 91.4493L84.6739 76.4078Z" fill="#BDBDBD"/>
<path opacity="0.1" d="M75.7333 158.244L67.3643 175.149V179.995L75.7333 158.244Z" fill="#222222"/>
<path d="M73.8487 57.5074C74.7003 59.7879 77.9225 60.1039 79.0591 57.9512C79.1475 57.7841 79.2195 57.6088 79.2741 57.4279C79.5855 56.3939 79.3896 55.2548 79.9646 54.2662C80.1047 54.0188 80.3055 53.8113 80.5482 53.6633C82.4595 52.536 84.3408 56.1131 86.1182 55.1123C87.2081 54.4986 86.975 52.7165 87.9448 51.9267C89.2248 50.8843 91.0737 52.4368 92.7149 52.2596C94.541 52.0623 95.4051 49.749 95.0082 47.9557C94.524 45.7688 92.813 43.9937 90.8053 43.0006C88.7975 42.0075 86.5163 41.7077 84.277 41.652C81.7328 41.5888 79.0705 41.8588 76.9193 43.2187C74.3032 44.8724 72.8292 47.9511 72.503 51.0288C72.3045 52.9011 73.1533 55.645 73.8487 57.5074Z" fill="#222222"/>
<path d="M117.615 118.812C117.628 118.812 117.641 118.811 117.654 118.811C124.383 118.459 130.725 115.557 135.391 110.696C140.057 105.834 142.696 99.3782 142.772 92.6405C142.847 85.9028 140.353 79.3892 135.798 74.4244C131.242 69.4597 124.967 66.4165 118.247 65.9137C118.164 65.9072 118.081 65.9179 118.002 65.9452C117.923 65.9725 117.851 66.0158 117.79 66.0723C117.729 66.1279 117.68 66.1955 117.646 66.2709C117.612 66.3463 117.595 66.4279 117.594 66.5104L117.015 118.2C117.013 118.36 117.076 118.515 117.188 118.63C117.301 118.744 117.454 118.81 117.615 118.812Z" fill="#222222"/>
<path d="M96.8289 74.461C97.0352 74.4635 97.2322 74.5476 97.3767 74.6949L115.171 92.8928C115.243 92.9656 115.299 93.0519 115.337 93.1466C115.375 93.2414 115.394 93.3427 115.393 93.4448L115.115 118.178C115.115 118.284 115.092 118.389 115.049 118.486C115.005 118.583 114.942 118.67 114.864 118.741C114.785 118.814 114.693 118.869 114.592 118.904C114.491 118.939 114.383 118.953 114.277 118.945C109.329 118.575 104.583 116.832 100.571 113.913C96.5596 110.994 93.4415 107.014 91.5674 102.42C89.6932 97.8261 89.1373 92.8007 89.962 87.9083C90.7867 83.0159 92.9595 78.4505 96.236 74.7249C96.307 74.6446 96.3936 74.5798 96.4906 74.5344C96.5877 74.489 96.693 74.4641 96.8 74.4611C96.8096 74.4609 96.8193 74.4609 96.8289 74.461Z" fill="#F2F2F2"/>
<path d="M114.923 65.7024C115.122 65.7048 115.312 65.7826 115.455 65.92C115.532 65.9933 115.593 66.0817 115.634 66.1797C115.676 66.2776 115.696 66.3831 115.694 66.4893L115.444 88.8054C115.442 88.959 115.395 89.1087 115.308 89.2355C115.222 89.3623 115.099 89.4605 114.957 89.5178C114.814 89.575 114.658 89.5886 114.507 89.557C114.357 89.5253 114.219 89.4498 114.112 89.3399L98.5839 73.46C98.5125 73.3869 98.4561 73.3004 98.4181 73.2054C98.3801 73.1105 98.3612 73.009 98.3624 72.9068C98.3636 72.8045 98.3849 72.7035 98.4252 72.6095C98.4654 72.5155 98.5238 72.4304 98.5969 72.3589C98.6063 72.3498 98.6159 72.3408 98.6257 72.3322C103.142 68.3571 108.867 66.0216 114.875 65.7034C114.891 65.7026 114.907 65.7023 114.923 65.7024Z" fill="#006466"/>
<path d="M90.7734 91.8129C90.2417 91.8125 89.7163 91.929 89.2346 92.1542C88.7529 92.3794 88.3265 92.7077 87.9858 93.116L71.6914 92.6066L71.0536 89.8596L62.6211 93.9746L63.712 101.498L88.5448 98.3184C89.0018 98.6733 89.5369 98.9141 90.1056 99.0207C90.6744 99.1272 91.2603 99.0964 91.8148 98.9309C92.3692 98.7653 92.8761 98.4698 93.2934 98.0689C93.7106 97.668 94.0261 97.1733 94.2136 96.6259C94.4011 96.0785 94.4553 95.4942 94.3715 94.9217C94.2878 94.3491 94.0685 93.8049 93.7321 93.3341C93.3956 92.8634 92.9516 92.4798 92.437 92.2152C91.9224 91.9506 91.3521 91.8127 90.7734 91.8129Z" fill="#EC9C9F"/>
<path d="M61.2481 97.0732L60.7952 74.6613C60.7793 73.877 60.9191 73.0973 61.2064 72.3674C61.4937 71.6374 61.9229 70.9717 62.4691 70.4087C63.0153 69.8456 63.6677 69.3965 64.3886 69.0871C65.1095 68.7778 65.8845 68.6144 66.6689 68.6065C67.4533 68.5986 68.2315 68.7462 68.9585 69.0409C69.6855 69.3356 70.3469 69.7715 70.9044 70.3234C71.4619 70.8752 71.9044 71.5322 72.2064 72.2561C72.5084 72.9801 72.6639 73.7568 72.6639 74.5412V90.9205L61.2481 97.0732Z" fill="#BDBDBD"/>
<path d="M138.909 200H0.363636C0.267194 200 0.174701 199.962 0.106506 199.893C0.0383113 199.825 0 199.733 0 199.636C0 199.54 0.0383113 199.447 0.106506 199.379C0.174701 199.311 0.267194 199.273 0.363636 199.273H138.909C139.006 199.273 139.098 199.311 139.166 199.379C139.234 199.447 139.273 199.54 139.273 199.636C139.273 199.733 139.234 199.825 139.166 199.893C139.098 199.962 139.006 200 138.909 200Z" fill="#BDBDBD"/>
</svg>
