<svg width="1920" height="714" viewBox="0 0 1920 714" fill="none" xmlns="http://www.w3.org/2000/svg">
<rect width="1920" height="714" fill="#006466"/>
<g opacity="0.12">
<mask id="mask0_510_1565" style="mask-type:alpha" maskUnits="userSpaceOnUse" x="0" y="0" width="1920" height="714">
<rect width="1920" height="714" fill="#006466"/>
</mask>
<g mask="url(#mask0_510_1565)">
<path d="M984.8 651.497C1001.22 608.655 1020.16 566.942 1041.49 526.627C1050.98 508.708 1061.22 490.689 1076.51 477.817C1115.54 444.902 1174.4 454.679 1223.33 472.597C1268.39 489.095 1311.73 511.071 1352.15 537.932C1392.2 564.547 1430.11 596.322 1474.71 612.78C1519.32 629.235 1574.26 626.508 1604.54 590.77C1622.56 569.499 1629.14 539.535 1627.29 510.738C1625.45 481.925 1615.89 453.951 1604.69 427.153C1591.86 396.46 1576.39 364.937 1578.42 332.112C1580.51 298.129 1603.31 267.246 1634.24 256.491C1678.24 241.197 1726.18 264.935 1770.73 282.096C1827.32 303.888 1889.67 315.479 1946.5 298.79C2003.32 282.122 2052.46 231.947 2055.47 170.44" stroke="white" stroke-miterlimit="10"/>
<path d="M993.823 662.233C1009.91 620.116 1028.68 579.183 1049.88 539.763C1059.3 522.245 1069.49 504.643 1084.5 491.984C1114.64 466.564 1156.56 466.366 1196.44 475.475C1207.3 477.943 1218.02 481.115 1228.31 484.64C1272.56 499.829 1315.23 520.462 1355.17 545.897C1394.74 571.108 1432.19 601.631 1476.18 617.244C1500.83 625.992 1528.36 629.546 1553.58 625.546C1575.56 622.055 1595.9 612.641 1610.66 595.734C1613.31 592.714 1615.71 589.513 1617.89 586.164C1631.35 565.454 1636.07 539.029 1634.65 513.413C1634.19 505.185 1633.15 497.018 1631.68 488.914C1627.82 467.777 1621.04 447.056 1613.63 426.986C1601.91 395.125 1588.8 362.763 1592.05 329.742C1595.29 296.721 1617.06 267.028 1647.21 256.364C1690.11 241.2 1736.77 263.226 1780.02 278.752C1783.42 279.971 1786.86 281.16 1790.3 282.298C1842.4 299.555 1898.37 306.975 1949.29 290.665C2003.59 273.272 2050.11 223.93 2052.21 164.032" stroke="white" stroke-miterlimit="10"/>
<path d="M1002.99 673.005C1018.77 631.629 1037.32 591.521 1058.42 552.991C1067.78 535.865 1077.94 518.703 1092.66 506.264C1122.23 481.282 1163.14 480.407 1202.15 488.508C1212.79 490.699 1223.3 493.572 1233.4 496.79C1276.83 510.683 1318.85 529.941 1358.29 553.944C1397.36 577.74 1434.39 606.956 1477.71 621.76C1503.21 630.472 1531.48 634.266 1557.58 630.505C1580.25 627.22 1601.43 617.908 1616.83 600.779C1619.59 597.718 1622.12 594.454 1624.41 591.009C1638.52 569.839 1643.33 542.637 1642.08 516.187C1641.67 507.7 1640.69 499.273 1639.3 490.94C1635.66 469.172 1629.35 447.707 1622.63 426.971C1612.03 393.974 1601.23 360.822 1605.73 327.559C1610.23 294.297 1630.85 267.013 1660.21 256.445C1702 241.419 1747.37 261.723 1789.32 275.61C1792.62 276.705 1795.96 277.754 1799.3 278.769C1849.78 294.094 1903.54 299.726 1952.1 282.751C2003.86 264.662 2047.77 216.157 2048.96 157.896" stroke="white" stroke-miterlimit="10"/>
<path d="M1012.16 683.753C1027.62 643.136 1045.98 603.831 1066.94 566.199C1076.26 549.478 1086.34 532.746 1100.8 520.539C1129.83 496.011 1169.7 494.446 1207.87 501.553C1218.3 503.481 1228.59 506.039 1238.52 508.951C1281.12 521.531 1322.48 539.418 1361.42 562.006C1400 584.389 1436.63 612.274 1479.28 626.293C1505.62 634.946 1534.64 639.002 1561.59 635.482C1584.94 632.404 1607 623.172 1623.03 605.822C1625.91 602.716 1628.55 599.395 1630.94 595.875C1645.7 574.232 1650.59 546.273 1649.5 518.992C1649.16 510.263 1648.23 501.576 1646.93 492.994C1643.51 470.578 1637.67 448.41 1631.63 426.993C1622.13 392.849 1613.62 358.985 1619.41 325.437C1624.65 295.097 1644.63 267.074 1673.23 256.599C1713.91 241.711 1758 260.296 1798.65 272.544C1801.85 273.516 1805.07 274.446 1808.31 275.317C1857.19 288.692 1908.74 292.539 1954.91 274.908C2004.14 256.126 2045.42 208.462 2045.7 151.836" stroke="white" stroke-miterlimit="10"/>
<path d="M1021.34 694.502C1036.47 654.628 1054.66 616.12 1075.49 579.379C1084.74 563.049 1094.78 546.775 1108.95 534.771C1137.42 510.697 1176.28 508.44 1213.6 514.556C1223.8 516.208 1233.89 518.464 1243.62 521.075C1285.41 532.362 1326.11 548.879 1364.55 570.04C1402.62 591.015 1438.85 617.535 1480.83 630.808C1508.02 639.403 1537.76 643.702 1565.57 640.441C1589.62 637.586 1612.52 628.439 1629.19 610.85C1632.18 607.703 1634.93 604.32 1637.43 600.726C1652.84 578.606 1657.81 549.874 1656.88 521.765C1656.58 512.781 1655.73 503.849 1654.5 495.021C1651.32 471.973 1645.92 449.088 1640.58 426.987C1632.18 391.696 1625.91 357.167 1633.03 323.291C1639.15 294.185 1658.37 267.085 1686.17 256.727C1725.74 241.976 1768.54 258.828 1807.89 269.459C1810.98 270.291 1814.11 271.099 1817.23 271.851C1864.49 283.3 1913.85 285.361 1957.65 267.071C2004.34 247.596 2043.01 200.766 2042.38 145.772" stroke="white" stroke-miterlimit="10"/>
<path d="M1030.52 705.237C1045.33 666.099 1063.33 628.407 1084.04 592.555C1093.23 576.631 1103.21 560.781 1117.12 549.008C1145.05 525.384 1182.88 522.44 1219.36 527.566C1229.33 528.942 1239.21 530.901 1248.75 533.224C1289.73 543.204 1329.75 558.375 1367.7 578.111C1405.26 597.662 1441.1 622.819 1482.38 635.352C1510.42 643.871 1540.9 648.449 1569.57 645.428C1594.3 642.779 1618.06 633.732 1635.37 615.918C1638.49 612.727 1641.35 609.286 1643.96 605.613C1660.03 583.033 1665.07 553.532 1664.32 524.59C1664.08 515.364 1663.28 506.156 1662.15 497.096C1659.2 473.419 1654.22 449.805 1649.61 427.03C1642.24 390.609 1638.24 355.41 1646.74 321.191C1653.67 293.335 1672.18 267.158 1699.19 256.879C1737.66 242.264 1779.17 257.403 1817.22 266.403C1820.22 267.113 1823.23 267.78 1826.26 268.41C1871.9 277.937 1919.06 278.199 1960.48 259.254C2004.65 239.082 2040.67 193.074 2039.15 139.721" stroke="white" stroke-miterlimit="10"/>
<path d="M1039.69 715.96C1054.19 677.557 1071.99 640.661 1092.57 605.716C1101.7 590.198 1111.62 574.771 1125.27 563.211C1152.64 540.039 1189.45 536.406 1225.08 540.526C1234.84 541.623 1244.5 543.286 1253.87 545.305C1294.03 553.996 1333.39 567.804 1370.84 586.1C1407.91 604.245 1443.35 627.988 1483.95 639.833C1512.85 648.274 1544.08 653.129 1573.57 650.352C1599.01 647.925 1623.61 638.963 1641.56 620.905C1644.8 617.653 1647.77 614.171 1650.49 610.423C1667.2 587.371 1672.33 557.111 1671.74 527.343C1671.55 517.859 1670.82 508.409 1669.77 499.104C1667.02 474.781 1662.51 450.465 1658.59 426.99C1652.32 389.408 1650.46 353.604 1660.4 319.009C1668.05 292.385 1685.95 267.127 1712.2 256.956C1749.55 242.477 1789.78 255.907 1826.53 263.262C1829.42 263.849 1832.33 264.377 1835.24 264.888C1879.28 272.476 1924.23 270.978 1963.28 251.375C2004.92 230.495 2038.33 185.333 2035.91 133.603" stroke="white" stroke-miterlimit="10"/>
<path d="M1048.87 726.654C1063.04 688.987 1080.66 652.899 1101.12 618.838C1110.2 603.703 1120.05 588.719 1133.44 577.372C1160.26 554.647 1196.06 550.325 1230.83 553.463C1240.36 554.285 1249.81 555.669 1258.99 557.367C1298.33 564.755 1337.04 577.201 1373.99 594.095C1410.56 610.838 1445.63 633.165 1485.52 644.331C1515.29 652.673 1547.23 657.83 1577.58 655.293C1603.69 653.071 1629.16 644.187 1647.74 625.929C1651.08 622.636 1654.18 619.093 1657 615.27C1674.37 591.759 1679.56 560.713 1679.14 530.133C1679.01 520.391 1678.33 510.7 1677.37 501.145C1674.87 476.191 1670.8 451.143 1667.58 427.002C1662.4 388.277 1662.62 351.862 1674.06 316.88C1682.36 291.483 1699.73 267.157 1725.18 257.086C1761.41 242.746 1800.37 254.466 1835.82 260.194C1838.61 260.642 1841.42 261.065 1844.23 261.437C1886.65 267.109 1929.41 263.817 1966.07 243.561C2005.18 221.989 2035.98 177.654 2032.63 127.548" stroke="white" stroke-miterlimit="10"/>
<path d="M1058.02 737.357C1071.88 700.421 1089.3 665.126 1109.62 631.95C1118.65 617.219 1128.44 602.655 1141.55 591.542C1167.83 569.263 1202.6 564.329 1236.5 566.413C1245.82 566.978 1255.06 568.046 1264.06 569.441C1302.59 575.545 1340.63 586.631 1377.08 602.108C1413.17 617.451 1447.87 638.327 1487.05 648.849C1517.68 657.097 1550.34 662.534 1581.54 660.254C1608.35 658.253 1634.66 649.453 1653.88 630.952C1657.36 627.613 1660.56 623.996 1663.5 620.112C1681.5 596.129 1686.79 564.325 1686.55 532.916C1686.47 522.933 1685.85 512.984 1684.97 503.184C1682.68 477.584 1679.08 451.835 1676.53 427.017C1672.46 387.149 1674.69 350.139 1687.68 314.736C1696.56 290.562 1713.46 267.156 1738.12 257.179C1773.25 242.974 1810.92 252.99 1845.08 257.095C1847.76 257.421 1850.46 257.709 1853.16 257.958C1893.97 261.719 1934.52 256.656 1968.84 235.738C2005.41 213.477 2033.59 169.969 2029.35 121.476" stroke="white" stroke-miterlimit="10"/>
<path d="M1067.19 748.046C1080.73 711.838 1097.95 677.354 1118.16 645.055C1127.12 630.709 1136.87 616.582 1149.71 605.681C1175.43 583.85 1209.18 578.229 1242.25 579.33C1251.33 579.621 1260.37 580.393 1269.18 581.485C1306.89 586.29 1344.26 596.041 1380.23 610.099C1415.82 624.028 1450.16 643.455 1488.61 653.356C1520.13 661.484 1553.49 667.244 1585.56 665.198C1613.05 663.402 1640.22 654.701 1660.08 635.974C1663.67 632.595 1667.01 628.912 1670.03 624.957C1688.69 600.498 1694.04 567.927 1693.97 535.707C1693.94 525.469 1693.39 515.259 1692.6 505.227C1690.54 479 1687.39 452.517 1685.54 427.033C1682.57 386.024 1686.74 348.398 1701.36 312.613C1710.74 289.64 1727.26 267.184 1751.14 257.301C1785.16 243.23 1821.57 251.524 1854.41 254.029C1856.99 254.233 1859.58 254.382 1862.19 254.51C1901.39 256.357 1939.73 249.508 1971.67 227.939C2005.73 204.983 2031.29 162.301 2026.14 115.42" stroke="white" stroke-miterlimit="10"/>
<path d="M1076.35 758.725C1089.56 723.248 1106.61 689.548 1126.7 658.144C1135.62 644.197 1145.29 630.492 1157.87 619.819C1183.05 598.415 1215.78 592.146 1247.99 592.23C1256.85 592.265 1265.68 592.722 1274.32 593.512C1311.21 597.037 1347.93 605.433 1383.4 618.078C1418.47 630.615 1452.47 648.555 1490.21 657.852C1522.59 665.848 1556.67 671.944 1589.59 670.136C1617.78 668.561 1645.78 659.925 1666.28 640.976C1669.99 637.552 1673.43 633.812 1676.56 629.782C1695.88 604.865 1701.31 571.522 1701.39 538.462C1701.41 527.983 1700.91 517.515 1700.22 507.235C1698.39 480.36 1695.7 453.176 1694.54 427.015C1692.68 384.861 1698.7 346.606 1715.03 310.455C1724.87 288.654 1741.03 267.16 1764.13 257.388C1797.04 243.451 1832.17 250.047 1863.69 250.937C1866.18 251.002 1868.67 251.047 1871.15 251.04C1908.74 250.963 1944.9 242.361 1974.47 220.135C2006 196.473 2028.94 154.632 2022.88 109.361" stroke="white" stroke-miterlimit="10"/>
<path d="M1085.52 769.378C1098.41 734.627 1115.26 701.731 1135.22 671.19C1144.07 657.643 1153.69 644.373 1165.99 633.898C1190.61 612.94 1222.32 605.985 1253.69 605.09C1262.34 604.847 1270.96 605.01 1279.4 605.519C1315.47 607.749 1351.53 614.791 1386.49 626.031C1421.07 637.175 1454.7 653.598 1491.72 662.331C1524.98 670.175 1559.77 676.605 1593.53 675.056C1622.4 673.685 1651.27 665.144 1672.4 645.956C1676.24 642.487 1679.78 638.689 1683.02 634.564C1702.98 609.175 1708.49 575.079 1708.76 541.188C1708.84 530.451 1708.4 519.742 1707.79 509.218C1706.18 481.716 1703.94 453.799 1703.48 426.974C1702.71 383.679 1710.54 344.751 1728.62 308.279C1738.85 287.626 1754.72 267.131 1777.04 257.436C1808.84 243.632 1842.69 248.532 1872.92 247.805C1875.3 247.749 1877.69 247.655 1880.07 247.527C1916.04 245.546 1950.01 235.16 1977.21 212.282C2006.21 187.931 2026.55 146.908 2019.58 103.243" stroke="white" stroke-miterlimit="10"/>
<path d="M1094.68 780.038C1107.24 746.014 1123.92 713.916 1143.75 684.25C1152.54 671.087 1162.11 658.251 1174.14 647.986C1198.22 627.469 1228.92 619.83 1259.43 617.958C1267.86 617.443 1276.26 617.312 1284.54 617.516C1319.8 618.469 1355.2 624.161 1389.65 633.992C1423.75 643.745 1457.03 658.668 1493.31 666.825C1527.45 674.495 1562.94 681.301 1597.55 679.991C1627.11 678.839 1656.82 670.38 1678.58 650.97C1682.52 647.46 1686.19 643.6 1689.54 639.401C1710.15 613.536 1715.73 578.67 1716.16 543.973C1716.3 532.996 1715.91 522.012 1715.39 511.256C1714.01 483.128 1712.29 454.5 1712.46 426.989C1712.88 382.553 1722.32 342.903 1742.26 306.156C1752.85 286.642 1768.49 267.131 1790.02 257.545C1820.73 243.874 1853.29 247.081 1882.22 244.74C1884.5 244.562 1886.79 244.33 1889.05 244.084C1923.41 240.201 1955.19 228.05 1980.03 204.517C2006.5 179.477 2024.22 139.274 2016.37 97.2086" stroke="white" stroke-miterlimit="10"/>
<path d="M1103.84 790.69C1116.09 757.387 1132.57 726.073 1152.27 697.3C1161.02 684.533 1170.51 672.117 1182.28 662.079C1205.8 642.007 1235.49 633.683 1265.15 630.817C1273.35 630.029 1281.56 629.618 1289.64 629.507C1324.08 629.186 1358.83 633.528 1392.79 641.953C1426.38 650.317 1459.31 663.708 1494.87 671.319C1529.89 678.821 1566.09 685.998 1601.54 684.926C1631.79 683.977 1662.35 675.616 1684.75 655.963C1688.82 652.409 1692.6 648.491 1696.04 644.217C1717.31 617.894 1722.96 582.262 1723.55 546.739C1723.73 535.508 1723.42 524.279 1722.98 513.279C1721.81 484.508 1720.54 455.164 1721.4 426.994C1722.93 381.415 1733.98 340.993 1755.86 304.022C1766.77 285.599 1782.19 267.12 1802.95 257.645C1832.55 244.106 1863.83 245.621 1891.46 241.668C1893.64 241.353 1895.83 241.016 1897.99 240.633C1930.75 234.829 1960.33 220.918 1982.81 196.73C2006.77 170.999 2021.88 131.614 2013.1 91.1527" stroke="white" stroke-miterlimit="10"/>
<path d="M1112.98 801.337C1124.91 768.755 1141.2 738.24 1160.78 710.338C1169.46 697.952 1178.9 685.968 1190.39 676.144C1213.38 656.512 1242.04 647.509 1270.84 643.669C1278.83 642.605 1286.81 641.905 1294.7 641.493C1328.33 639.881 1362.41 642.897 1395.88 649.914C1428.99 656.874 1461.58 668.732 1496.39 675.822C1531.21 682.912 1569.18 690.687 1605.49 689.869C1636.4 689.127 1667.83 680.843 1690.87 660.98C1695.05 657.368 1698.95 653.406 1702.51 649.054C1724.42 622.259 1730.16 585.855 1730.93 549.522C1731.16 538.051 1730.91 526.565 1730.56 515.317C1729.63 485.916 1728.83 455.856 1730.36 427.01C1732.98 380.293 1745.56 339.008 1769.48 301.901C1780.66 284.54 1795.91 267.136 1815.91 257.749C1844.4 244.342 1874.39 244.151 1900.74 238.605C1902.82 238.168 1904.89 237.698 1906.95 237.193C1938.1 229.492 1965.47 213.823 1985.59 188.981C2007.03 162.562 2019.54 123.989 2009.86 85.1261" stroke="white" stroke-miterlimit="10"/>
<path d="M1122.12 811.898C1133.73 780.058 1149.84 750.304 1169.3 723.275C1177.92 711.288 1187.3 699.72 1198.53 690.105C1220.95 670.917 1248.61 661.211 1276.56 656.417C1284.32 655.082 1292.1 654.085 1299.81 653.373C1332.63 650.49 1366.04 652.143 1399.03 657.774C1431.63 663.347 1463.86 673.66 1497.97 680.222C1534.75 687.308 1572.33 695.29 1609.48 694.708C1641.09 694.185 1673.37 685.979 1697.02 665.883C1701.33 662.226 1705.33 658.207 1708.99 653.78C1731.55 626.53 1737.36 589.363 1738.29 552.191C1738.58 540.463 1738.39 528.738 1738.12 517.247C1737.4 487.205 1737.06 456.433 1739.28 426.926C1743.01 379.075 1757.02 336.861 1783.06 299.674C1794.5 283.324 1809.61 267.024 1828.8 257.734C1856.19 244.46 1884.91 242.582 1909.96 235.427C1911.93 234.87 1913.9 234.261 1915.86 233.636C1945.4 224.041 1970.58 206.597 1988.34 181.103C2007.26 153.981 2017.15 116.243 2006.58 78.9748" stroke="white" stroke-miterlimit="10"/>
<path d="M1131.26 822.367C1142.56 791.251 1158.46 762.303 1177.79 736.147C1186.37 724.556 1195.68 713.408 1206.64 704.021C1228.52 685.275 1255.15 674.893 1282.26 669.125C1289.79 667.519 1297.36 666.229 1304.89 665.217C1336.88 661.048 1369.64 661.374 1402.11 665.607C1434.2 669.8 1466.1 678.544 1499.46 684.603C1537.13 691.444 1575.39 699.871 1613.41 699.522C1645.69 699.201 1678.82 691.095 1703.11 670.776C1707.54 667.076 1711.65 662.999 1715.42 658.499C1738.61 630.783 1744.51 592.869 1745.6 554.883C1745.95 542.9 1745.81 530.92 1745.63 519.201C1745.14 488.541 1745.25 457.06 1748.17 426.88C1752.99 377.919 1768.34 334.644 1796.59 297.518C1808.26 282.17 1823.24 267.004 1841.66 257.808C1867.92 244.672 1895.37 241.106 1919.13 232.346C1921 231.652 1922.86 230.923 1924.71 230.181C1952.65 218.692 1975.64 199.497 1991.02 173.359C2007.42 145.556 2014.71 108.635 2003.24 72.966" stroke="white" stroke-miterlimit="10"/>
<path d="M1140.4 832.836C1151.38 802.442 1167.08 774.277 1186.3 749.009C1194.81 737.8 1204.06 727.084 1214.76 717.907C1236.1 699.601 1261.7 688.527 1287.96 681.787C1295.29 679.906 1302.64 678.325 1309.99 677.031C1341.17 671.594 1373.27 670.578 1405.23 673.395C1436.83 676.206 1468.38 683.37 1500.99 688.927C1539.53 695.507 1578.51 704.374 1617.35 704.282C1650.32 704.181 1684.28 696.156 1709.22 675.598C1713.76 671.857 1717.99 667.72 1721.87 663.142C1745.71 634.957 1751.67 596.285 1752.95 557.495C1753.34 545.279 1753.27 533.04 1753.17 521.079C1752.91 489.779 1753.49 457.606 1757.06 426.761C1762.99 376.669 1779.58 332.229 1810.11 295.291C1822.02 280.889 1836.86 266.893 1854.52 257.804C1879.68 244.801 1905.85 239.553 1928.31 229.191C1930.08 228.376 1931.85 227.526 1933.58 226.647C1959.91 213.253 1980.71 192.307 1993.74 165.52C2007.63 137.032 2012.3 100.933 1999.93 66.8606" stroke="white" stroke-miterlimit="10"/>
<path d="M1149.52 843.289C1160.17 813.619 1175.7 786.247 1194.77 761.835C1203.22 751.023 1212.42 740.739 1222.84 731.775C1243.62 713.895 1268.19 702.109 1293.63 694.448C1300.72 692.28 1307.88 690.421 1315.03 688.831C1345.39 682.112 1376.82 679.776 1408.3 681.193C1439.4 682.606 1470.6 688.194 1502.5 693.28C1541.92 699.579 1581.57 708.927 1621.26 709.071C1654.91 709.171 1689.71 701.228 1715.27 680.451C1719.93 676.666 1724.29 672.468 1728.25 667.82C1752.74 639.183 1758.79 599.749 1760.22 560.145C1760.66 547.674 1760.65 535.198 1760.65 522.991C1760.6 491.071 1761.63 458.173 1765.9 426.672C1772.93 375.453 1790.66 329.706 1823.6 293.09C1835.73 279.613 1850.47 266.816 1867.32 257.807C1891.38 244.936 1916.27 238.008 1937.44 226.045C1939.11 225.11 1940.77 224.124 1942.4 223.107C1967.12 207.827 1985.74 185.132 1996.4 157.7C2007.77 128.531 2009.84 93.2436 1996.56 60.7638" stroke="white" stroke-miterlimit="10"/>
<path d="M1158.63 853.762C1168.97 824.809 1184.3 798.216 1203.26 774.688C1211.66 764.252 1220.79 754.402 1230.94 745.647C1251.18 728.205 1274.73 715.744 1299.32 707.113C1306.19 704.675 1313.13 702.542 1320.12 700.633C1349.67 692.649 1380.43 688.958 1411.42 688.997C1442.02 689.032 1472.86 693.028 1504.03 697.648C1544.33 703.632 1584.67 713.496 1625.2 713.876C1659.53 714.194 1695.17 706.331 1721.37 685.331C1726.14 681.506 1730.61 677.23 1734.68 672.526C1759.81 643.421 1765.93 603.226 1767.53 562.821C1768.03 550.112 1768.08 537.364 1768.15 524.932C1768.33 492.393 1769.81 458.786 1774.78 426.612C1782.89 374.265 1801.7 327.067 1837.11 290.915C1849.45 278.312 1864.08 266.749 1880.15 257.848C1903.11 245.127 1926.73 236.484 1946.59 222.943C1948.16 221.87 1949.7 220.768 1951.24 219.631C1974.36 202.464 1990.78 178.007 1999.09 149.927C2007.94 120.076 2007.41 85.6022 1993.25 54.708" stroke="white" stroke-miterlimit="10"/>
<path d="M1167.76 864.232C1177.77 835.998 1192.92 810.195 1211.75 787.531C1220.09 777.492 1229.17 768.054 1239.06 759.507C1258.74 742.505 1281.29 729.364 1305 719.771C1311.65 717.063 1318.4 714.635 1325.18 712.432C1353.92 703.168 1384.03 698.157 1414.51 696.803C1444.63 695.462 1475.12 697.848 1505.56 702.019C1546.74 707.652 1587.77 718.068 1629.13 718.683C1664.14 719.202 1700.64 711.434 1727.45 690.2C1732.35 686.331 1736.92 681.998 1741.1 677.199C1766.88 647.641 1773.08 606.684 1774.85 565.46C1775.41 552.496 1775.51 539.51 1775.67 526.833C1776.08 493.653 1778.02 459.358 1783.67 426.51C1792.89 373.031 1812.7 324.221 1850.64 288.696C1863.22 276.924 1877.71 266.651 1893.02 257.839C1914.88 245.249 1937.22 234.93 1955.79 219.792C1957.25 218.599 1958.7 217.377 1960.12 216.103C1981.65 197.055 1995.87 170.854 2001.83 142.126C2008.16 111.577 2005.04 77.9267 1989.96 48.6224" stroke="white" stroke-miterlimit="10"/>
<path d="M1176.88 874.701C1199.42 810.751 1250.34 760.312 1310.69 732.421C1371.05 704.531 1440.14 698.009 1507.08 706.396C1549.14 711.662 1590.84 722.629 1633.06 723.496C1675.27 724.363 1719.79 713.434 1747.52 681.911C1782.23 642.448 1782.15 582.828 1783.17 528.757C1784.82 439.848 1798.71 342.559 1864.12 286.503C1896.7 258.584 1939.3 243.759 1968.93 212.59C2010.01 169.375 2017.63 96.3251 1986.63 42.5248" stroke="white" stroke-miterlimit="10"/>
<path d="M536.428 753.774C542.559 694.787 608.742 657.338 666.388 659.68C724.031 662.039 775.645 691.837 828.069 714.872C880.493 737.908 941.614 754.42 995.22 730.378C1063.75 699.641 1097.72 612.599 1167.36 584.798C1221.63 563.123 1280.94 584.971 1324.02 618.049C1348.38 636.747 1366.62 663.589 1389.25 684.309C1491.91 778.264 1467.56 922.658 1563.4 964.419C1667.19 1009.62 1738.76 966.851 1767.93 933.044C1805.32 889.726 1877.87 772.381 1790.09 662.742C1754.43 618.205 1719.85 571.424 1698.32 517.941C1666.07 437.869 1690.75 330.495 1765.51 284.922C1816.75 253.703 1884.9 252.333 1925.15 207.118C1952.2 176.739 1959.59 131.986 1951.12 92.8317C1942.65 53.6948 1920.19 19.5293 1894.04 -9.77175" stroke="white" stroke-miterlimit="10"/>
<path d="M538.235 757.295C546.896 697.074 613.348 657.031 672.939 658.491C731.113 659.911 783.685 689.766 835.841 714.026C887.39 738.003 946.534 756.152 999.309 735.124C1066.75 708.18 1102.55 626.259 1171.99 598.96C1227.28 577.38 1286.42 595.509 1331.32 625.897C1357.12 643.365 1377.6 669.322 1401.42 690.517C1502.44 780.361 1480.67 920.473 1574.41 961.493C1675.24 1005.57 1745.84 965.674 1775.69 932.617C1813.53 890.728 1883.02 777.556 1800.94 670.101C1767.09 625.8 1734.26 578.606 1713.19 525.524C1681.97 447.401 1705.03 343.664 1776.23 297.889C1825.51 266.226 1891.71 262.704 1931.69 218.114C1959.1 187.661 1967.78 143.816 1961.45 104.824C1955.09 65.4705 1935.19 30.1535 1910.64 -0.600007" stroke="white" stroke-miterlimit="10"/>
<path d="M540.169 760.697C551.34 699.261 618.073 656.63 679.612 657.174C738.288 657.685 791.826 687.544 843.718 713.063C894.388 737.979 951.567 757.768 1003.51 739.74C1069.83 716.606 1107.43 639.649 1176.74 613.029C1232.99 591.427 1292.07 605.914 1338.73 633.649C1366 649.858 1388.68 674.969 1413.7 696.623C1512.91 782.492 1493.88 918.139 1585.5 958.431C1683.38 1001.38 1752.97 964.34 1783.51 932.057C1821.78 891.616 1888.27 782.552 1811.86 677.377C1779.84 633.301 1748.78 585.717 1728.13 533.019C1697.96 456.839 1719.41 356.733 1787.02 310.808C1834.32 278.688 1898.57 273.031 1938.29 229.091C1966.06 198.549 1976.03 155.6 1971.86 116.796C1967.6 77.2088 1950.28 40.747 1927.32 8.56053" stroke="white" stroke-miterlimit="10"/>
<path d="M542.09 764.115C555.775 701.447 622.761 656.275 686.272 655.872C745.463 655.495 799.976 685.323 851.587 712.098C903.199 738.873 956.571 759.396 1007.68 744.369C1072.91 725.032 1112.31 653.165 1181.47 627.112C1238.7 605.549 1297.76 616.31 1346.1 641.412C1374.88 656.352 1399.69 680.622 1425.95 702.759C1523.22 784.767 1507.07 915.838 1596.58 955.402C1691.51 997.218 1760.1 963.04 1791.32 931.53C1829.99 892.496 1893.54 787.484 1822.76 684.666C1792.53 640.757 1763.38 592.778 1743.06 540.531C1714.13 466.209 1733.76 369.783 1797.82 323.732C1843.15 291.136 1905.34 283.27 1944.88 240.051C1972.94 209.37 1984.32 167.358 1982.25 128.764C1980.1 88.9133 1965.34 51.3537 1943.99 17.7205" stroke="white" stroke-miterlimit="10"/>
<path d="M544.009 767.533C560.207 703.633 627.459 655.939 692.927 654.586C752.626 653.354 808.108 683.098 859.447 711.166C908.358 737.891 961.569 761.04 1011.86 749.035C1075.97 733.492 1117.21 666.704 1186.18 641.231C1244.41 619.707 1303.5 626.7 1353.48 649.229C1383.79 662.886 1410.71 686.347 1438.19 708.929C1533.41 787.196 1520.25 913.588 1607.65 952.405C1699.63 993.076 1767.18 961.766 1799.12 931.037C1838.2 893.427 1898.83 792.368 1833.65 692.007C1805.22 648.248 1777.9 599.944 1757.96 548.09C1730.14 475.688 1748.1 382.848 1808.57 336.7C1851.96 303.599 1912.14 293.638 1951.43 251.056C1979.82 220.279 1992.58 179.13 1992.6 140.759C1992.61 100.618 1980.36 61.9875 1960.61 26.9037" stroke="white" stroke-miterlimit="10"/>
<path d="M545.939 770.934C564.664 705.821 632.169 655.585 699.597 653.264C759.799 651.194 816.255 680.837 867.326 710.182C915.369 737.796 966.612 762.745 1016.04 753.647C1079.07 742.048 1122.11 680.227 1190.91 655.284C1250.14 633.82 1309.3 636.979 1360.86 656.958C1392.74 669.305 1421.72 691.98 1450.44 715.011C1543.5 789.654 1533.44 911.23 1618.71 949.315C1707.74 988.857 1774.27 960.402 1806.91 930.45C1846.37 894.244 1904.16 797.045 1844.53 699.257C1817.91 655.613 1792.39 606.998 1772.87 555.562C1746.14 485.094 1762.45 395.772 1819.34 349.582C1860.76 315.938 1918.94 303.903 1957.99 261.994C1986.74 231.143 2000.89 190.822 2002.96 152.689C2005.15 112.222 1995.39 72.5348 1977.27 36.024" stroke="white" stroke-miterlimit="10"/>
<path d="M547.858 774.352C569.098 708.006 636.861 655.282 706.258 651.959C766.96 649.068 824.413 678.578 875.209 709.235C922.388 737.721 971.628 764.392 1020.24 758.3C1082.16 750.514 1127.03 693.776 1195.65 669.393C1255.87 647.985 1315.13 647.266 1368.26 664.746C1401.72 675.765 1432.72 697.685 1462.71 721.152C1553.54 792.262 1546.65 908.946 1629.81 946.286C1715.87 984.695 1781.35 959.092 1814.72 929.922C1854.56 895.117 1909.59 801.672 1855.43 706.548C1830.62 662.966 1806.9 614.111 1787.81 563.075C1762.17 494.541 1776.81 408.683 1830.12 362.507C1869.61 328.306 1925.78 314.229 1964.57 272.954C1993.66 242.01 2009.25 202.508 2013.34 164.657C2017.73 123.872 2010.43 83.1403 1993.91 45.1784" stroke="white" stroke-miterlimit="10"/>
<path d="M549.782 777.77C573.533 710.208 641.571 654.998 712.92 650.67C774.122 646.957 832.563 676.298 883.076 708.301C929.398 737.625 976.624 766.07 1024.42 762.947C1085.23 758.994 1131.92 707.354 1200.37 683.502C1261.59 662.153 1320.98 657.486 1375.63 672.529C1410.69 682.172 1443.7 703.401 1474.95 727.287C1563.45 794.951 1559.83 906.637 1640.86 943.245C1723.97 980.525 1788.4 957.755 1822.5 929.385C1862.69 895.978 1915.05 806.201 1866.31 713.854C1843.32 670.283 1821.4 621.238 1802.71 570.599C1778.14 503.997 1791.13 421.553 1840.87 375.443C1878.42 340.631 1932.59 324.566 1971.13 283.928C2000.57 252.893 2017.62 214.216 2023.7 176.623C2030.34 135.492 2025.47 93.7267 2010.55 54.3304" stroke="white" stroke-miterlimit="10"/>
<path d="M551.702 781.188C577.969 712.393 646.26 654.71 719.582 649.363C781.293 644.866 840.731 674.004 890.948 707.331C936.413 737.495 981.629 767.696 1028.59 767.577C1088.28 767.439 1136.83 720.904 1205.07 697.592C1267.3 676.319 1326.82 667.654 1383 680.295C1419.67 688.546 1454.65 709.114 1487.2 733.425C1573.31 797.736 1573.03 904.331 1651.94 940.21C1732.1 976.343 1795.46 956.42 1830.31 928.855C1870.83 896.823 1920.65 810.598 1877.21 721.147C1856.05 677.553 1835.9 628.349 1817.65 578.114C1794.15 513.46 1805.47 434.357 1851.66 388.371C1887.26 352.927 1939.43 334.878 1977.71 294.89C2007.49 263.78 2026.05 225.901 2034.07 188.594C2042.99 147.124 2040.52 104.334 2027.21 63.4897" stroke="white" stroke-miterlimit="10"/>
<path d="M553.63 784.63C582.43 714.601 650.97 654.476 726.255 648.09C788.459 642.805 848.917 671.727 898.832 706.416C943.445 737.402 986.647 769.379 1032.79 772.267C1091.37 775.944 1141.77 734.531 1209.84 711.728C1273.08 690.534 1332.76 677.818 1390.41 688.119C1428.72 694.947 1465.63 714.899 1499.49 739.603C1583.15 800.64 1586.24 902.084 1663.06 937.222C1740.27 972.226 1802.55 955.128 1838.16 928.388C1879.01 897.713 1926.4 814.952 1888.15 728.513C1868.84 684.847 1850.44 635.549 1832.6 585.692C1810.18 522.968 1819.8 447.162 1862.46 401.355C1896.12 365.228 1946.31 345.264 1984.32 305.925C2014.47 274.724 2034.53 237.659 2044.49 200.616C2055.72 158.811 2055.6 114.969 2043.91 72.6908" stroke="white" stroke-miterlimit="10"/>
<path d="M555.552 788.105C586.866 716.855 655.675 654.274 732.928 646.83C795.636 640.794 857.109 669.446 906.722 705.497C950.5 737.311 991.676 771.044 1036.99 776.955C1094.45 784.448 1146.7 748.174 1214.57 725.876C1278.82 704.775 1338.65 687.956 1397.82 695.939C1437.75 701.323 1476.6 720.714 1511.78 745.777C1592.92 803.615 1599.48 899.819 1674.16 934.243C1748.42 968.12 1809.61 953.829 1845.99 927.916C1887.16 898.593 1932.24 819.181 1899.08 735.855C1881.66 692.051 1864.97 642.704 1847.57 593.248C1826.19 532.466 1834.1 459.882 1873.27 414.316C1904.97 377.463 1953.19 355.641 1990.93 316.913C2021.43 285.635 2043.06 249.38 2054.9 212.59C2068.47 170.457 2070.69 125.574 2060.59 81.8411" stroke="white" stroke-miterlimit="10"/>
<path d="M557.474 791.587C591.305 719.098 660.373 654.108 739.602 645.573C802.818 638.768 865.319 667.172 914.61 704.599C957.56 737.207 996.682 772.744 1041.2 781.669C1097.53 792.959 1151.64 761.847 1219.34 740.057C1284.6 719.051 1344.59 698.09 1405.25 703.786C1446.81 707.692 1487.57 726.569 1524.08 751.978C1602.66 806.677 1612.73 897.58 1685.3 931.277C1756.59 964.022 1816.7 952.524 1853.86 927.455C1895.35 899.469 1938.27 823.311 1910.06 743.231C1894.57 699.245 1879.53 649.906 1862.57 600.832C1842.24 542.01 1848.41 472.572 1884.12 427.306C1913.8 389.683 1960.11 366.029 1997.59 327.933C2028.45 296.564 2051.65 261.135 2065.36 224.612C2081.31 182.157 2085.83 136.209 2077.35 91.0407" stroke="white" stroke-miterlimit="10"/>
<path d="M559.399 795.072C595.761 721.364 665.075 653.945 746.277 644.335C809.994 636.796 873.538 664.883 922.503 703.704C964.643 737.11 1001.71 774.435 1045.39 786.384C1100.61 801.477 1156.59 775.527 1224.08 754.222C1290.36 733.311 1350.5 708.17 1412.67 711.618C1455.84 714.025 1498.51 732.439 1536.38 758.181C1612.36 809.805 1625.9 895.503 1696.43 928.31C1766.95 961.117 1823.77 951.216 1861.72 926.995C1903.5 900.323 1944.45 827.333 1921.02 750.589C1907.52 706.363 1894.08 657.092 1877.56 608.402C1858.27 551.536 1862.65 485.183 1894.96 440.298C1922.63 401.868 1967.01 376.435 2004.22 338.967C2035.44 307.524 2060.23 272.926 2075.8 236.631C2094.14 193.857 2100.95 146.858 2094.06 100.233" stroke="white" stroke-miterlimit="10"/>
<path d="M561.322 798.546C600.204 723.596 669.79 653.788 752.957 643.066C817.191 634.794 881.762 662.561 930.398 702.794C971.714 736.978 1006.75 776.113 1049.6 791.07C1103.7 809.967 1161.54 789.198 1228.84 768.382C1296.14 747.583 1356.41 718.205 1420.09 719.456C1464.89 720.33 1509.42 738.345 1548.67 764.373C1622.02 812.965 1639.14 893.266 1707.54 925.326C1775.94 957.385 1830.83 949.875 1869.57 926.519C1911.64 901.16 1950.79 831.251 1931.97 757.95C1920.54 713.428 1908.6 664.276 1892.54 615.973C1874.28 561.048 1876.82 497.749 1905.78 453.276C1931.37 413.99 1973.91 386.809 2010.85 349.973C2042.44 318.455 2068.84 284.711 2086.24 248.638C2107 205.585 2116.07 157.476 2110.8 109.414" stroke="white" stroke-miterlimit="10"/>
<path d="M563.26 802.044C604.658 725.869 674.515 653.671 759.651 641.818C824.403 632.814 890.026 660.231 938.308 701.907C978.833 736.876 1011.8 777.797 1053.82 795.802C1106.82 818.503 1166.52 802.917 1233.61 782.587C1301.92 761.9 1362.32 728.264 1427.54 727.323C1473.95 726.66 1520.33 744.326 1561.02 770.596C1631.69 816.237 1652.44 891.042 1718.72 922.374C1781.09 951.862 1837.94 948.548 1877.49 926.077C1919.86 901.997 1957.39 835.136 1942.98 765.346C1933.72 720.511 1923.18 671.513 1907.57 623.576C1890.33 570.622 1890.98 510.301 1916.66 466.287C1940.12 426.098 1980.87 397.235 2017.52 361.007C2049.47 329.431 2077.5 296.527 2096.71 260.657C2119.93 217.332 2131.22 168.119 2127.56 118.602" stroke="white" stroke-miterlimit="10"/>
<path d="M565.182 805.541C609.101 728.124 679.243 653.553 766.328 640.584C831.593 630.865 898.29 657.917 946.205 701.016C985.927 736.75 1016.83 779.497 1058.02 800.53C1109.91 827.02 1171.47 816.636 1238.37 796.794C1307.71 776.223 1368.21 738.303 1434.96 735.187C1482.98 732.952 1531.22 750.338 1573.33 776.812C1641.29 819.532 1665.67 888.806 1729.84 919.41C1789.26 947.751 1844.98 947.204 1885.34 925.622C1927.99 902.82 1964.12 838.962 1953.93 772.715C1946.99 727.527 1937.7 678.702 1922.56 631.155C1906.33 580.155 1905.02 522.797 1927.49 479.276C1948.74 438.149 1987.78 407.637 2024.14 372.034C2056.47 340.387 2086.12 308.354 2107.16 272.672C2132.84 229.111 2146.35 178.76 2144.29 127.784" stroke="white" stroke-miterlimit="10"/>
<path d="M567.112 809.024C613.569 730.367 683.975 653.438 773.035 639.32C838.81 628.902 906.583 655.574 954.128 700.114C993.082 736.603 1021.89 781.169 1062.26 805.251C1113.05 835.536 1176.45 830.369 1243.16 810.979C1313.53 790.54 1374.13 748.283 1442.42 743.028C1492.04 739.197 1542.1 756.389 1585.68 783.006C1650.91 822.868 1678.98 886.547 1741.03 916.423C1797.5 943.618 1852.08 945.805 1893.26 925.146C1936.18 903.601 1971.11 842.754 1964.96 780.086C1960.47 734.519 1952.27 685.905 1937.62 638.731C1922.38 589.7 1919.03 535.272 1938.39 492.263C1957.75 449.254 1994.76 418.036 2030.84 383.044C2063.54 351.323 2094.83 320.185 2117.67 284.685C2145.82 240.888 2161.54 189.381 2161.11 136.966" stroke="white" stroke-miterlimit="10"/>
<path d="M569.032 812.526C618.007 732.642 688.694 653.355 779.712 638.086C846.001 626.952 914.871 653.229 962.026 699.224C1000.2 736.466 1026.98 782.793 1066.46 809.984C1116.21 843.969 1181.39 844.118 1247.91 825.199C1319.31 804.892 1379.99 758.308 1449.85 750.9C1501.05 745.472 1552.92 762.519 1597.98 789.246C1660.47 826.284 1692.29 884.202 1752.17 913.479C1805.72 939.412 1859.14 944.45 1901.12 924.715C1944.32 904.409 1978.26 846.614 1975.93 787.483C1974.12 741.563 1966.78 693.152 1952.63 646.337C1938.39 599.275 1932.92 547.764 1949.24 505.282C1965.79 462.225 2001.69 428.466 2037.48 394.082C2070.55 362.306 2103.48 332.064 2128.12 296.707C2158.76 252.715 2176.68 200.028 2177.85 146.153" stroke="white" stroke-miterlimit="10"/>
<path d="M570.957 816.029C622.454 734.9 693.431 653.293 786.398 636.834C853.214 625.004 923.186 650.869 969.93 698.333C1007.35 736.318 1032.03 784.5 1070.68 814.722C1119.32 852.519 1186.38 857.879 1252.68 839.425C1325.1 819.268 1385.85 768.299 1457.28 758.794C1510.08 751.769 1563.71 768.75 1610.31 795.492C1670.04 829.772 1705.57 881.989 1763.31 910.535C1813.91 935.338 1866.19 943.057 1909 924.283C1952.47 905.219 1985.6 850.571 1986.9 794.9C1987.97 748.668 1981.29 700.418 1967.62 653.959C1953.95 607.501 1946.7 560.305 1960.08 518.318C1974.11 474.279 2008.61 438.932 2044.12 405.14C2077.59 373.312 2112.14 343.979 2138.57 308.767C2171.7 264.596 2191.81 210.691 2194.59 155.376" stroke="white" stroke-miterlimit="10"/>
<path d="M572.88 819.534C626.913 737.18 698.15 653.227 793.085 635.582C860.424 623.073 931.505 648.491 977.837 697.426C1014.5 736.15 1037.07 786.187 1074.89 819.426C1122.43 861.039 1191.37 871.754 1257.45 853.624C1330.93 833.765 1391.71 778.261 1464.72 766.638C1519.08 757.974 1574.48 775.015 1622.65 801.69C1679.62 833.228 1718.86 879.725 1774.48 907.543C1822.12 931.215 1873.27 941.617 1916.89 923.805C1960.52 905.992 1993.16 854.624 1997.9 802.256C2002.1 755.799 1995.81 707.616 1982.67 661.524C1970.38 618.43 1960.44 572.811 1970.96 531.299C1982.37 486.308 2015.65 449.389 2050.79 416.155C2084.69 384.336 2120.84 355.872 2149.05 320.767C2184.68 276.438 2206.97 221.314 2211.37 164.54" stroke="white" stroke-miterlimit="10"/>
<path d="M574.804 823.022C631.361 739.423 702.922 653.296 799.768 634.328C867.644 621.231 939.837 646.114 985.738 696.534C1021.67 736.005 1042.1 787.909 1079.09 824.165C1125.51 869.609 1196.3 885.465 1262.19 867.841C1336.69 848.077 1397.51 788.232 1472.15 774.502C1528.07 764.198 1585.18 781.394 1634.96 807.903C1689.17 836.769 1732.12 877.49 1785.63 904.563C1830.32 927.086 1880.32 940.153 1924.77 923.339C1968.79 906.67 2000.83 858.899 2008.89 809.648C2016.5 763.111 2010.29 714.864 1997.7 669.141C1986.37 628.029 1974.09 585.442 1981.83 544.334C1990.48 498.435 2022.58 459.828 2057.47 427.209C2091.73 395.299 2129.52 367.819 2159.54 332.807C2197.66 288.336 2222.16 231.959 2228.15 173.74" stroke="white" stroke-miterlimit="10"/>
<path d="M576.723 826.528C635.804 741.682 707.629 653.118 806.453 633.071C874.838 619.202 948.196 643.704 993.641 695.64C1028.82 735.837 1047.15 789.615 1083.3 828.907C1128.63 878.17 1201.26 899.2 1266.97 882.085C1342.47 862.413 1403.35 798.23 1479.59 782.386C1537.08 770.443 1595.84 787.923 1647.29 814.154C1698.73 840.382 1745.4 875.273 1796.77 901.63C1838.48 923.019 1887.37 938.741 1932.64 922.923C1976.94 907.445 2008.6 863.496 2019.86 817.088C2031.12 770.681 2024.74 722.16 2012.69 676.786C2002.31 637.653 1987.62 598.175 1992.66 557.416C1998.43 510.674 2029.45 470.293 2064.08 438.307C2098.71 406.32 2138.16 379.812 2169.97 344.906C2210.6 300.314 2237.27 242.68 2244.89 183.001" stroke="white" stroke-miterlimit="10"/>
<path d="M-367.315 462.67C-351.105 420.372 -332.402 379.189 -311.346 339.385C-301.978 321.694 -291.862 303.904 -276.773 291.195C-238.234 258.698 -180.12 268.351 -131.813 286.041C-87.3244 302.33 -44.5334 324.027 -4.63366 350.547C34.9139 376.824 72.342 408.195 116.374 424.445C160.423 440.69 214.663 437.999 244.555 402.714C262.344 381.713 268.843 352.129 267.022 323.699C265.196 295.251 255.759 267.633 244.704 241.174C232.04 210.871 216.768 179.749 218.769 147.34C220.83 113.789 243.34 83.2975 273.878 72.6791C317.322 57.5796 364.651 81.0164 408.632 97.9589C464.504 119.474 526.069 130.918 582.177 114.441C638.273 97.9847 686.788 48.447 689.762 -12.2792" stroke="white" stroke-miterlimit="10"/>
<path d="M-358.407 473.27C-342.522 431.687 -323.994 391.274 -303.067 352.354C-293.758 335.059 -283.696 317.681 -268.883 305.183C-239.128 280.085 -197.741 279.89 -158.365 288.883C-147.642 291.32 -137.054 294.451 -126.896 297.931C-83.2116 312.928 -41.0784 333.299 -1.64957 358.411C37.4151 383.302 74.3983 413.438 117.825 428.852C142.167 437.489 169.34 440.998 194.247 437.049C215.947 433.602 236.022 424.307 250.601 407.615C253.21 404.634 255.586 401.473 257.736 398.166C271.021 377.72 275.688 351.63 274.284 326.339C273.829 318.216 272.805 310.152 271.35 302.151C267.54 281.283 260.843 260.825 253.532 241.01C241.955 209.553 229.018 177.602 232.222 145C235.427 112.399 256.918 83.0822 286.685 72.5537C329.04 57.5825 375.106 79.3287 417.807 94.658C421.164 95.8607 424.565 97.0353 427.954 98.159C479.395 115.197 534.659 122.522 584.927 106.42C638.537 89.2468 684.465 40.5319 686.54 -18.6064" stroke="white" stroke-miterlimit="10"/>
<path d="M-349.355 483.904C-333.781 443.054 -315.458 403.455 -294.634 365.414C-285.389 348.506 -275.363 331.562 -260.828 319.28C-231.63 294.616 -191.242 293.752 -152.722 301.75C-142.222 303.913 -131.847 306.75 -121.869 309.927C-78.9899 323.643 -37.5079 342.658 1.42861 366.355C40.0052 389.849 76.5628 418.694 119.339 433.311C144.509 441.912 172.423 445.658 198.19 441.944C220.571 438.701 241.489 429.507 256.694 412.595C259.412 409.574 261.908 406.352 264.172 402.95C278.109 382.048 282.855 355.192 281.619 329.078C281.219 320.699 280.25 312.379 278.874 304.151C275.283 282.659 269.053 261.467 262.418 240.995C251.95 208.416 241.288 175.685 245.731 142.845C250.174 110.005 270.529 83.0673 299.521 72.634C340.781 57.7986 385.577 77.845 426.994 91.5552C430.251 92.6362 433.549 93.6722 436.838 94.6742C486.681 109.805 539.761 115.365 587.705 98.6056C638.811 80.7464 682.159 32.8576 683.335 -24.6644" stroke="white" stroke-miterlimit="10"/>
<path d="M-340.307 494.517C-325.04 454.416 -306.909 415.61 -286.222 378.455C-277.02 361.946 -267.066 345.426 -252.789 333.375C-224.127 309.158 -184.76 307.613 -147.074 314.63C-136.779 316.533 -126.621 319.059 -116.822 321.934C-74.7532 334.354 -33.9227 352.014 4.52518 374.316C42.6133 396.414 78.7732 423.945 120.886 437.786C146.897 446.329 175.539 450.333 202.148 446.858C225.209 443.819 246.982 434.705 262.811 417.575C265.655 414.509 268.256 411.23 270.62 407.755C285.189 386.386 290.017 358.782 288.949 331.847C288.608 323.229 287.694 314.653 286.41 306.179C283.035 284.049 277.264 262.162 271.301 241.017C261.919 207.306 253.517 173.872 259.238 140.75C264.408 110.795 284.141 83.1275 312.375 72.7859C352.54 58.0865 396.066 76.4355 436.198 88.5289C439.356 89.4884 442.538 90.4066 445.74 91.2666C493.996 104.472 544.893 108.27 590.48 90.8627C639.081 72.3187 679.835 25.2598 680.112 -30.647" stroke="white" stroke-miterlimit="10"/>
<path d="M-331.241 505.129C-316.302 465.761 -298.348 427.742 -277.78 391.468C-268.643 375.345 -258.736 359.278 -244.742 347.426C-216.632 323.658 -178.268 321.43 -141.418 327.468C-131.346 329.098 -121.384 331.326 -111.781 333.904C-70.5186 345.047 -30.3395 361.355 7.61575 382.247C45.1993 402.956 80.9693 429.139 122.411 442.244C149.261 450.729 178.627 454.975 206.083 451.754C229.828 448.936 252.438 439.905 268.889 422.539C271.841 419.432 274.563 416.093 277.027 412.544C292.244 390.704 297.149 362.337 296.234 334.585C295.931 325.716 295.093 316.897 293.885 308.181C290.745 285.425 285.413 262.831 280.136 241.011C271.842 206.168 265.657 172.077 272.68 138.631C278.73 109.895 297.701 83.1385 325.147 72.9126C364.218 58.3484 406.47 74.9865 445.323 85.4831C448.377 86.3044 451.46 87.1014 454.546 87.844C501.205 99.1482 549.935 101.183 593.183 83.1252C639.281 63.8972 677.456 17.6617 676.834 -36.6341" stroke="white" stroke-miterlimit="10"/>
<path d="M-322.18 515.727C-307.551 477.087 -289.786 439.873 -269.338 404.476C-260.261 388.754 -250.41 373.106 -236.673 361.482C-209.099 338.158 -171.755 335.252 -135.739 340.312C-125.892 341.671 -116.142 343.605 -106.715 345.899C-66.2613 355.752 -26.7455 370.731 10.7174 390.216C47.8085 409.518 83.1889 434.356 123.944 446.73C151.629 455.141 181.726 459.66 210.024 456.678C234.448 454.062 257.9 445.131 274.991 427.542C278.069 424.392 280.896 420.995 283.477 417.369C299.345 395.076 304.311 365.949 303.58 337.374C303.337 328.266 302.549 319.175 301.437 310.229C298.516 286.853 293.602 263.538 289.049 241.053C281.776 205.094 277.825 170.342 286.214 136.557C293.061 109.055 311.34 83.2103 338.007 73.0619C375.984 58.6325 416.968 73.5798 454.537 82.4656C457.492 83.1659 460.471 83.825 463.457 84.4465C508.52 93.8532 555.079 94.1112 595.973 75.4068C639.585 55.4916 675.146 10.0675 673.647 -42.6083" stroke="white" stroke-miterlimit="10"/>
<path d="M-313.122 526.314C-298.804 488.399 -281.232 451.972 -260.915 417.47C-251.898 402.149 -242.103 386.918 -228.628 375.505C-201.606 352.627 -165.264 349.04 -130.087 353.108C-120.448 354.191 -110.91 355.833 -101.662 357.826C-62.0141 366.407 -23.1492 380.039 13.8172 398.103C50.4203 416.018 85.4146 439.459 125.496 451.154C154.032 459.488 184.86 464.281 213.982 461.54C239.09 459.144 263.379 450.295 281.106 432.467C284.304 429.255 287.24 425.818 289.922 422.118C306.42 399.358 311.485 369.482 310.905 340.092C310.717 330.728 309.988 321.399 308.952 312.211C306.245 288.198 301.791 264.19 297.92 241.013C291.729 203.908 289.888 168.559 299.703 134.403C307.258 108.117 324.93 83.1797 350.844 73.1386C387.726 58.8434 427.442 72.103 463.724 79.3639C466.58 79.9434 469.455 80.4648 472.326 80.9693C515.804 88.4611 560.187 86.9823 598.743 67.6283C639.851 47.0134 672.84 2.42461 670.444 -48.6483" stroke="white" stroke-miterlimit="10"/>
<path d="M-304.064 536.873C-290.073 499.684 -272.674 464.054 -252.477 430.426C-243.507 415.483 -233.78 400.689 -220.567 389.486C-194.081 367.05 -158.741 362.783 -124.414 365.881C-114.999 366.692 -105.669 368.059 -96.6048 369.735C-57.7657 377.029 -19.5514 389.317 16.927 405.997C53.0423 422.527 87.667 444.57 127.042 455.595C156.44 463.831 187.971 468.923 217.934 466.418C243.72 464.224 268.862 455.453 287.201 437.427C290.508 434.175 293.564 430.677 296.346 426.903C313.496 403.691 318.618 373.039 318.21 342.847C318.077 333.228 317.407 323.661 316.462 314.227C313.991 289.59 309.97 264.86 306.79 241.026C301.685 202.792 301.9 166.839 313.189 132.301C321.383 107.227 338.538 83.2102 363.661 73.2665C399.434 59.1085 437.898 70.6795 472.898 76.3351C475.65 76.7771 478.431 77.1948 481.198 77.5619C523.081 83.1626 565.295 79.9122 601.499 59.9128C640.107 38.6156 670.521 -5.15717 667.211 -54.6272" stroke="white" stroke-miterlimit="10"/>
<path d="M-295.027 547.44C-281.346 510.973 -264.14 476.126 -244.079 443.372C-235.169 428.828 -225.498 414.448 -212.559 403.476C-186.608 381.48 -152.286 376.609 -118.808 378.667C-109.614 379.224 -100.484 380.278 -91.5989 381.656C-53.5643 387.682 -16.0005 398.628 19.9859 413.908C55.6135 429.057 89.8766 449.667 128.553 460.056C158.798 468.199 191.043 473.567 221.85 471.316C248.319 469.341 274.296 460.652 293.272 442.386C296.703 439.09 299.86 435.518 302.762 431.684C320.542 408.005 325.762 376.605 325.522 345.595C325.448 335.738 324.833 325.915 323.963 316.24C321.707 290.966 318.144 265.544 315.634 241.04C311.614 201.678 313.819 165.138 326.643 130.185C335.405 106.318 352.092 83.2091 376.442 73.3588C411.122 59.3339 448.319 69.2229 482.037 73.2757C484.69 73.5973 487.35 73.8814 490.019 74.1281C530.306 77.8406 570.342 72.8419 604.226 52.1902C640.335 30.2112 668.16 -12.744 663.97 -60.6219" stroke="white" stroke-miterlimit="10"/>
<path d="M-285.974 557.993C-272.604 522.245 -255.602 488.199 -235.645 456.31C-226.799 442.146 -217.18 428.198 -204.502 417.435C-179.102 395.882 -145.782 390.332 -113.138 391.419C-104.167 391.706 -95.2487 392.469 -86.5434 393.547C-49.3171 398.291 -12.4155 407.918 23.0953 421.798C58.2312 435.55 92.1326 454.73 130.1 464.505C161.218 472.53 194.153 478.217 225.816 476.197C252.963 474.424 279.78 465.834 299.394 447.344C302.934 444.008 306.228 440.372 309.215 436.467C327.64 412.319 332.921 380.161 332.853 348.35C332.817 338.242 332.274 328.161 331.5 318.257C329.462 292.364 326.35 266.216 324.529 241.056C321.593 200.567 325.715 163.42 340.15 128.088C349.407 105.407 365.72 83.2363 389.297 73.4788C422.884 59.5865 458.827 67.7756 491.251 70.2485C493.805 70.4499 496.362 70.5969 498.932 70.7234C537.641 72.5469 575.494 65.7853 607.028 44.4892C640.656 21.8252 665.892 -20.3147 660.806 -66.6005" stroke="white" stroke-miterlimit="10"/>
<path d="M-276.925 568.537C-263.881 533.51 -247.056 500.238 -227.214 469.233C-218.412 455.463 -208.865 441.932 -196.444 431.395C-171.583 410.262 -139.272 404.072 -107.469 404.156C-98.7175 404.19 -89.9993 404.641 -81.4734 405.421C-45.0509 408.901 -8.79932 417.191 26.2199 429.676C60.8523 442.054 94.4162 459.765 131.679 468.945C163.649 476.839 197.294 482.857 229.796 481.073C257.624 479.518 285.272 470.991 305.51 452.283C309.175 448.903 312.573 445.209 315.659 441.231C334.734 416.63 340.093 383.711 340.173 351.07C340.196 340.724 339.707 330.389 339.024 320.239C337.217 293.706 334.563 266.867 333.412 241.038C331.576 199.419 337.524 161.65 353.641 125.958C363.353 104.434 379.312 83.213 402.12 73.565C434.616 59.8047 469.292 66.317 500.42 67.1956C502.87 67.26 505.332 67.3039 507.782 67.2972C544.894 67.2211 580.59 58.729 609.791 36.7853C640.918 13.4236 663.571 -27.8862 657.589 -72.5828" stroke="white" stroke-miterlimit="10"/>
<path d="M-267.879 579.055C-255.145 544.744 -238.509 512.266 -218.807 482.113C-210.065 468.738 -200.569 455.637 -188.43 445.295C-164.12 424.603 -132.81 417.736 -101.839 416.852C-93.2954 416.613 -84.789 416.773 -76.4543 417.276C-40.8396 419.477 -5.2378 426.43 29.2737 437.527C63.4189 448.529 96.6208 464.744 133.171 473.367C166.005 481.111 200.359 487.459 233.688 485.93C262.194 484.576 290.697 476.144 311.553 457.199C315.342 453.775 318.844 450.024 322.043 445.952C341.747 420.885 347.187 387.222 347.451 353.761C347.528 343.161 347.098 332.588 346.491 322.197C344.903 295.045 342.698 267.482 342.236 240.997C341.483 198.252 349.211 159.818 367.056 123.81C377.165 103.419 392.832 83.1842 414.863 73.6118C446.267 59.9831 479.678 64.821 509.525 64.1036C511.876 64.0481 514.235 63.9553 516.586 63.8289C552.105 61.8726 585.637 51.6186 612.49 29.0313C641.122 4.98938 661.204 -35.5127 654.327 -78.6233" stroke="white" stroke-miterlimit="10"/>
<path d="M-258.834 589.579C-246.426 555.987 -229.963 524.297 -210.38 495.007C-201.702 482.011 -192.258 469.338 -180.381 459.203C-156.605 438.947 -126.295 431.405 -96.1723 429.557C-87.8522 429.049 -79.5575 428.919 -71.3858 429.12C-36.5742 430.061 -1.62185 435.681 32.3984 445.387C66.0565 455.016 98.917 469.75 134.734 477.803C168.444 485.376 203.483 492.096 237.65 490.802C266.837 489.665 296.174 481.313 317.652 462.149C321.55 458.684 325.172 454.873 328.471 450.727C348.82 425.191 354.338 390.768 354.757 356.511C354.893 345.673 354.514 334.829 354.002 324.21C352.632 296.439 350.933 268.174 351.103 241.012C351.519 197.141 360.842 157.994 380.528 121.713C390.981 102.447 406.42 83.1836 427.683 73.7199C457.996 60.2224 490.143 63.3882 518.71 61.077C520.962 60.9018 523.218 60.6724 525.453 60.43C559.38 56.5961 590.754 44.5989 615.276 21.3648C641.413 -3.35706 658.911 -43.0497 651.155 -84.5809" stroke="white" stroke-miterlimit="10"/>
<path d="M-249.792 600.096C-237.694 567.216 -221.423 536.299 -201.973 507.892C-193.338 495.286 -183.966 483.028 -172.345 473.118C-149.12 453.301 -119.81 445.083 -90.5234 442.252C-82.427 441.475 -74.3234 441.069 -66.3512 440.959C-32.3425 440.642 1.96055 444.929 35.4896 453.247C68.661 461.505 101.172 474.726 136.281 482.241C170.85 489.647 206.59 496.734 241.595 495.674C271.457 494.738 301.632 486.483 323.744 467.079C327.766 463.57 331.493 459.702 334.892 455.482C355.889 429.494 361.468 394.315 362.055 359.242C362.23 348.154 361.925 337.068 361.489 326.207C360.333 297.802 359.087 268.83 359.93 241.017C361.443 196.017 372.349 156.108 393.957 119.607C404.724 101.418 419.949 83.1738 440.444 73.8187C469.667 60.4519 500.549 61.9477 527.837 58.0447C529.986 57.7331 532.147 57.401 534.279 57.0222C566.627 51.2925 595.826 37.558 618.018 13.6775C641.679 -11.7276 656.593 -50.6125 647.927 -90.5598" stroke="white" stroke-miterlimit="10"/>
<path d="M-240.767 610.608C-228.979 578.439 -212.896 548.311 -193.565 520.764C-184.995 508.535 -175.674 496.704 -164.331 487.004C-141.64 467.621 -113.345 458.732 -84.9061 454.941C-77.017 453.891 -69.141 453.2 -61.3479 452.793C-28.1459 451.202 5.49622 454.18 38.5506 461.107C71.2311 467.978 103.408 479.686 137.782 486.686C172.156 493.687 209.645 501.363 245.492 500.555C276.014 499.822 307.038 491.644 329.792 472.033C333.918 468.467 337.769 464.555 341.285 460.258C362.91 433.804 368.582 397.861 369.34 361.99C369.574 350.664 369.324 339.324 368.979 328.219C368.058 299.192 367.265 269.514 368.775 241.033C371.37 194.909 383.784 154.148 407.402 117.513C418.443 100.373 433.498 83.1889 453.239 73.9214C481.371 60.685 510.985 60.4963 536.999 55.0201C539.049 54.5891 541.091 54.1245 543.124 53.6263C573.881 46.0235 600.907 30.5535 620.77 6.02684C641.94 -20.0574 654.287 -58.1401 644.727 -96.5098" stroke="white" stroke-miterlimit="10"/>
<path d="M-231.74 621.034C-220.274 589.599 -204.372 560.223 -185.161 533.536C-176.651 521.702 -167.387 510.281 -156.304 500.788C-134.164 481.843 -106.857 472.261 -79.2622 467.527C-71.5967 466.209 -63.9162 465.225 -56.3024 464.522C-23.9037 461.675 9.08438 463.307 41.651 468.867C73.8439 474.37 105.666 484.551 139.336 491.031C175.652 498.026 212.754 505.907 249.436 505.332C280.637 504.816 312.509 496.715 335.863 476.873C340.113 473.263 344.068 469.294 347.683 464.924C369.955 438.02 375.688 401.325 376.609 364.624C376.897 353.046 376.707 341.47 376.437 330.124C375.73 300.465 375.389 270.083 377.587 240.951C381.264 193.707 395.098 152.029 420.806 115.314C432.108 99.1716 447.018 83.0782 465.97 73.9063C493.012 60.8008 521.361 58.9465 546.096 51.8828C548.048 51.3326 549.986 50.7319 551.92 50.1145C581.086 40.6415 605.951 23.4189 623.487 -1.75147C642.161 -28.5291 651.931 -65.7876 641.495 -102.583" stroke="white" stroke-miterlimit="10"/>
<path d="M-222.715 631.37C-211.56 600.65 -195.864 572.07 -176.775 546.245C-168.309 534.801 -159.117 523.795 -148.293 514.527C-126.688 496.019 -100.399 485.769 -73.6366 480.074C-66.1951 478.488 -58.7267 477.216 -51.2924 476.217C-19.7027 472.1 12.638 472.422 44.6949 476.602C76.3823 480.741 107.876 489.374 140.812 495.356C177.997 502.11 215.779 510.43 253.31 510.085C285.183 509.769 317.888 501.765 341.876 481.705C346.251 478.051 350.309 474.026 354.024 469.583C376.921 442.22 382.751 404.786 383.823 367.283C384.166 355.452 384.03 343.625 383.855 332.054C383.366 301.783 383.478 270.702 386.358 240.905C391.12 192.565 406.271 149.84 434.168 113.185C445.693 98.0322 460.481 83.0592 478.66 73.98C504.595 61.0105 531.695 57.4895 555.151 48.8413C556.999 48.1553 558.838 47.4357 560.657 46.703C588.248 35.3599 610.94 16.4094 626.132 -9.39727C642.315 -36.8476 649.521 -73.2997 638.193 -108.516" stroke="white" stroke-miterlimit="10"/>
<path d="M-213.696 641.707C-202.851 611.699 -187.349 583.891 -168.377 558.944C-159.976 547.877 -150.837 537.298 -140.274 528.237C-119.204 510.164 -93.9353 499.23 -68.0059 492.575C-60.7721 490.719 -53.5155 489.158 -46.2565 487.88C-15.4712 482.512 16.2185 481.509 47.7778 484.29C78.9762 487.065 110.122 494.138 142.324 499.625C180.373 506.121 218.851 514.876 257.202 514.785C289.751 514.685 323.284 506.762 347.902 486.465C352.384 482.772 356.562 478.687 360.392 474.168C383.93 446.34 389.821 408.159 391.08 369.862C391.465 357.8 391.4 345.717 391.301 333.908C391.041 303.005 391.609 271.241 395.14 240.788C400.997 191.331 417.369 147.456 447.52 110.987C459.272 96.7673 473.93 82.9497 491.358 73.9758C516.202 61.1378 542.038 55.9563 564.215 45.7258C565.964 44.9209 567.705 44.0825 569.42 43.2143C595.416 29.9903 615.953 9.31034 628.818 -17.1363C642.53 -45.2629 647.14 -80.9036 634.921 -114.543" stroke="white" stroke-miterlimit="10"/>
<path d="M-204.687 652.027C-194.168 622.733 -178.84 595.709 -160.009 571.607C-151.668 560.933 -142.582 550.779 -132.296 541.929C-111.782 524.276 -87.5213 512.639 -62.4113 505.076C-55.4053 502.935 -48.34 501.1 -41.2766 499.53C-11.2992 492.896 19.7279 490.59 50.8104 491.989C81.516 493.384 112.313 498.901 143.807 503.923C182.732 510.141 221.881 519.371 261.063 519.513C294.283 519.612 328.644 511.77 353.88 491.256C358.485 487.519 362.783 483.375 366.696 478.786C390.878 450.512 396.846 411.579 398.256 372.478C398.695 360.165 398.689 347.847 398.681 335.795C398.639 304.281 399.655 271.801 403.872 240.7C410.807 190.13 428.313 144.965 460.835 108.813C472.809 95.5078 487.363 82.8731 503.999 73.978C527.753 61.2709 552.326 54.431 573.225 42.6202C574.875 41.6966 576.513 40.7227 578.125 39.7191C602.532 24.6335 620.914 2.22572 631.44 -24.8572C642.663 -53.6565 644.713 -88.4956 631.604 -120.563" stroke="white" stroke-miterlimit="10"/>
<path d="M-195.69 662.367C-185.481 633.782 -170.346 607.526 -151.633 584.297C-143.34 573.994 -134.322 564.269 -124.298 555.624C-104.319 538.404 -81.0726 526.102 -56.794 517.58C-50.0116 515.173 -43.1536 513.067 -36.2574 511.182C-7.08307 503.3 23.2897 499.656 53.8839 499.694C84.1013 499.729 114.546 503.674 145.316 508.235C185.108 514.144 224.936 523.882 264.949 524.257C298.844 524.571 334.032 516.808 359.901 496.075C364.614 492.298 369.027 488.076 373.044 483.432C397.85 454.697 403.893 415.012 405.474 375.12C405.972 362.572 406.016 349.986 406.087 337.712C406.263 305.586 407.73 272.406 412.629 240.64C420.642 188.958 439.211 142.359 474.173 106.666C486.357 94.2231 500.798 82.8065 516.667 74.0195C539.336 61.4594 562.654 52.9261 582.265 39.557C583.812 38.4981 585.334 37.4094 586.848 36.2873C609.682 19.3383 625.892 -4.80864 634.095 -32.5316C642.833 -62.0037 642.308 -96.0399 628.325 -126.542" stroke="white" stroke-miterlimit="10"/>
<path d="M-186.68 672.704C-176.797 644.828 -161.835 619.353 -143.243 596.977C-135.011 587.065 -126.049 577.747 -116.286 569.308C-96.857 552.523 -74.5928 539.548 -51.1772 530.077C-44.6181 527.403 -37.9554 525.007 -31.2544 522.831C-2.88671 513.685 26.8407 508.738 56.9427 507.4C86.6723 506.076 116.777 508.432 146.828 512.551C187.494 518.112 227.994 528.396 268.837 529.003C303.402 529.515 339.437 521.846 365.903 500.882C370.739 497.061 375.255 492.783 379.383 488.045C404.832 458.863 410.952 418.425 412.7 377.726C413.252 364.926 413.355 352.105 413.517 339.588C413.922 306.83 415.828 272.97 421.408 240.539C430.514 187.739 450.072 139.549 487.529 104.475C499.947 92.8527 514.256 82.7096 529.371 74.0098C550.951 61.5794 573.008 51.3917 591.343 36.4456C592.791 35.2683 594.215 34.0613 595.626 32.804C616.873 13.9972 630.916 -11.8708 636.797 -40.2339C643.048 -70.3956 639.97 -103.618 625.081 -132.55" stroke="white" stroke-miterlimit="10"/>
<path d="M-177.673 683.04C-155.417 619.902 -105.149 570.103 -45.5601 542.567C14.0293 515.03 82.2378 508.591 148.327 516.872C189.863 522.071 231.033 532.899 272.711 533.755C314.388 534.611 358.34 523.821 385.715 492.697C419.993 453.736 419.914 394.873 420.919 341.488C422.545 253.708 436.26 157.654 500.838 102.31C533.001 74.7457 575.066 60.1087 604.323 29.3355C644.881 -13.3308 652.396 -85.4533 621.794 -138.571" stroke="white" stroke-miterlimit="10"/>
</g>
</g>
</svg>
