<svg width="353" height="200" viewBox="0 0 353 200" fill="none" xmlns="http://www.w3.org/2000/svg">
<path d="M352.2 0.396118H148.407V132.8H352.2V0.396118Z" fill="white"/>
<path d="M352.597 133.196H148.012V0H352.597V133.196ZM148.804 132.404H351.805V0.79216H148.804V132.404Z" fill="#BDBDBD"/>
<path d="M237.496 13.3459C243.482 13.4482 243.481 22.3521 237.496 22.4534C231.51 22.3512 231.511 13.4473 237.496 13.3459Z" fill="#222222"/>
<path d="M250.304 13.3459C256.289 13.4482 256.289 22.3521 250.303 22.4534C244.318 22.3512 244.319 13.4473 250.304 13.3459Z" fill="#006466"/>
<path d="M263.111 13.3459C269.097 13.4482 269.096 22.3521 263.111 22.4534C257.125 22.3512 257.126 13.4473 263.111 13.3459Z" fill="#BDBDBD"/>
<path d="M224.367 48.2135H183.608V48.7075H224.367V48.2135Z" fill="#BDBDBD"/>
<path d="M317.247 119.85H261.173V67.4813H317.247V119.85ZM261.667 119.356H316.753V67.9754H261.667L261.667 119.356Z" fill="#BDBDBD"/>
<path d="M261.588 67.5477L261.251 67.9089L316.831 119.784L317.168 119.422L261.588 67.5477Z" fill="#BDBDBD"/>
<path d="M316.832 67.549L261.25 119.421L261.587 119.782L317.17 67.9103L316.832 67.549Z" fill="#BDBDBD"/>
<path d="M317.247 41.2969H183.361V32.1571H317.247V41.2969ZM183.855 40.8029H316.753V32.6512H183.855V40.8029Z" fill="#BDBDBD"/>
<path d="M232.882 81.6971H183.757V72.5573H232.882V81.6971ZM184.251 81.2031H232.388V73.0514H184.251V81.2031Z" fill="#BDBDBD"/>
<path d="M232.882 97.1443H183.757V88.0045H232.882V97.1443ZM184.251 96.6502H232.388V88.4985H184.251V96.6502Z" fill="#BDBDBD"/>
<path d="M232.882 112.591H183.757V103.452H232.882V112.591ZM184.251 112.097H232.388V103.946H184.251V112.097Z" fill="#BDBDBD"/>
<path d="M196.622 59.5389H183.446C184.463 55.4458 184.341 51.0179 183.446 46.3633H196.622C195.71 48.4398 195.239 50.6831 195.239 52.9511C195.239 55.2191 195.71 57.4625 196.622 59.5389Z" fill="#006466"/>
<path d="M193.428 49.1581H185.442V50.7551H193.428V49.1581Z" fill="white"/>
<path d="M193.428 52.3522H185.442V53.9492H193.428V52.3522Z" fill="white"/>
<path d="M193.428 55.5463H185.442V57.1433H193.428V55.5463Z" fill="white"/>
<path d="M295.843 79.4368H282.667C283.684 75.3436 283.561 70.9157 282.667 66.2611H295.843C294.93 68.3376 294.459 70.5809 294.459 72.8489C294.459 75.117 294.93 77.3603 295.843 79.4368Z" fill="#006466"/>
<path d="M292.648 69.0559H284.663V70.653H292.648V69.0559Z" fill="white"/>
<path d="M292.648 72.25H284.663V73.8471H292.648V72.25Z" fill="white"/>
<path d="M292.648 75.4442H284.663V77.0413H292.648V75.4442Z" fill="white"/>
<path d="M312.783 51.2032H299.607C300.625 47.1101 300.502 42.6822 299.607 38.0276H312.783C311.871 40.1041 311.4 42.3474 311.4 44.6154C311.4 46.8835 311.871 49.1268 312.783 51.2032Z" fill="#006466"/>
<path d="M309.589 40.8224H301.604V42.4194H309.589V40.8224Z" fill="white"/>
<path d="M309.589 44.0165H301.604V45.6136H309.589V44.0165Z" fill="white"/>
<path d="M309.589 47.2106H301.604V48.8077H309.589V47.2106Z" fill="white"/>
<path d="M81.8295 60.7778H59.2529V48.6973C59.2529 45.7035 60.4422 42.8323 62.5592 40.7153C64.6762 38.5984 67.5474 37.4091 70.5412 37.4091C73.5351 37.4091 76.4063 38.5984 78.5232 40.7153C80.6402 42.8323 81.8295 45.7035 81.8295 48.6973V60.7778Z" fill="#222222"/>
<path d="M91.908 195.185H96.7636L99.0739 176.455L91.9072 176.456L91.908 195.185Z" fill="#EC9C9F"/>
<path d="M90.6689 193.6L100.232 193.599C101.848 193.6 103.399 194.242 104.541 195.385C105.684 196.527 106.326 198.077 106.327 199.694V199.892L90.6692 199.892L90.6689 193.6Z" fill="#222222"/>
<path d="M33.8604 188.705L38.0889 191.092L49.3091 175.918L43.068 172.395L33.8604 188.705Z" fill="#EC9C9F"/>
<path d="M33.5611 186.715L41.8887 191.417C43.2961 192.211 44.3306 193.533 44.7639 195.09C45.1973 196.647 44.9944 198.312 44.1999 199.72L44.1025 199.892L30.4678 192.195L33.5611 186.715Z" fill="#222222"/>
<path d="M64.8946 110.95L64.5199 112.824C64.5199 112.824 63.3957 113.948 63.9578 114.51C64.5199 115.072 64.3325 117.695 64.3325 117.695C64.0182 122.478 57.7684 149.356 56.6507 154.606C56.6507 154.606 48.032 160.227 41.2869 171.281C34.5419 182.336 34.3545 185.146 34.3545 185.146L41.849 188.331L60.5853 165.66C60.5853 165.66 65.8314 162.475 67.7051 159.665C69.5787 156.854 81.1952 127.813 81.1952 127.813L87.7529 158.166C87.7529 158.166 87.3782 169.22 89.0644 176.34C90.1012 180.833 90.7283 185.411 90.938 190.017L99.7441 189.081C99.7441 189.081 99.182 162.475 98.2452 159.665C98.2452 159.665 102.18 127.251 94.3106 114.323L87.9686 97.4152L81.7573 95.0244L64.8946 110.95Z" fill="#222222"/>
<path d="M70.4253 40.3621C82.2471 40.564 82.2453 58.1487 70.4249 58.3489C58.6035 58.147 58.6053 40.5622 70.4253 40.3621Z" fill="#EC9C9F"/>
<path d="M79.5232 48.8887H77.5141L76.967 47.5208L77.2405 48.8887H66.2516L66.6092 46.0264L63.938 48.8887H61.2735V47.3377C61.2712 46.138 61.5056 44.9496 61.9631 43.8405C62.4207 42.7315 63.0925 41.7236 63.94 40.8744C64.7876 40.0253 65.7943 39.3516 66.9025 38.892C68.0107 38.4324 69.1986 38.1958 70.3983 38.1958C71.5981 38.1958 72.786 38.4324 73.8942 38.892C75.0024 39.3516 76.0091 40.0253 76.8566 40.8744C77.7042 41.7236 78.3759 42.7315 78.8335 43.8405C79.2911 44.9496 79.5255 46.138 79.5232 47.3377V48.8887Z" fill="#222222"/>
<path d="M82.6152 63.602L60.2744 63.7828L64.9962 111.674C64.9962 111.674 91.1213 110.295 91.1375 102.321L88.69 95.2348L82.6152 63.602Z" fill="#F2F2F2"/>
<path d="M124.192 147.167L46.3143 163.295C45.5179 163.458 44.5994 162.272 44.261 160.643L36.0755 121.115C35.7382 119.486 36.1112 118.033 36.9066 117.866L114.784 101.738C115.581 101.576 116.499 102.762 116.838 104.391L125.023 143.918C125.359 145.547 124.987 147.001 124.192 147.167Z" fill="white"/>
<path d="M65.1938 135.284C69.0346 135.284 72.1483 132.17 72.1483 128.329C72.1483 124.488 69.0346 121.375 65.1938 121.375C61.3529 121.375 58.2393 124.488 58.2393 128.329C58.2393 132.17 61.3529 135.284 65.1938 135.284Z" fill="#F2F2F2"/>
<path d="M90.8947 144.892L57.4872 151.81C57.4455 151.819 57.403 151.825 57.3604 151.826L67.4938 121.186C67.5548 120.996 67.6654 120.825 67.8141 120.691C67.9629 120.557 68.1444 120.465 68.3403 120.425C68.5362 120.384 68.7393 120.396 68.9289 120.46C69.1185 120.524 69.2878 120.637 69.4195 120.787L83.8267 136.957L84.5169 137.731L90.8947 144.892Z" fill="#F2F2F2"/>
<path d="M109.495 141.04L80.5996 147.024L84.5144 137.732L84.796 137.063L89.8974 124.953C89.9929 124.764 90.127 124.598 90.2911 124.464C90.4552 124.33 90.6456 124.233 90.8499 124.178C91.0542 124.122 91.2679 124.111 91.4769 124.144C91.686 124.177 91.8858 124.253 92.0634 124.368C92.1097 124.402 92.1538 124.438 92.1955 124.477L109.495 141.04Z" fill="#F2F2F2"/>
<path d="M124.192 147.167L46.3143 163.295C45.5179 163.458 44.5994 162.272 44.261 160.643L36.0755 121.115C35.7382 119.486 36.1112 118.033 36.9066 117.866L114.784 101.738C115.581 101.576 116.499 102.762 116.838 104.391L125.023 143.918C125.359 145.547 124.987 147.001 124.192 147.167ZM37.151 119.046C36.6732 119.145 36.4505 120.018 36.6522 120.996L44.8377 160.523C45.0401 161.5 45.5918 162.212 46.0698 162.114L123.948 145.987C124.425 145.888 124.648 145.015 124.446 144.037L116.261 104.51C116.059 103.533 115.507 102.821 115.029 102.919L37.151 119.046Z" fill="#BDBDBD"/>
<path d="M101.151 110.581C100.659 110.351 100.224 110.015 99.8766 109.598C99.5288 109.181 99.2767 108.693 99.138 108.168C98.9993 107.643 98.9774 107.094 99.0738 106.56C99.1702 106.026 99.3826 105.519 99.696 105.075L95.1719 97.8946L98.8651 94.0809L105.112 104.311C105.822 104.887 106.296 105.704 106.444 106.606C106.592 107.508 106.404 108.433 105.916 109.206C105.428 109.979 104.673 110.545 103.795 110.799C102.917 111.053 101.976 110.975 101.151 110.581Z" fill="#EC9C9F"/>
<path d="M79.1826 65.4881L82.4238 63.3523C82.4238 63.3523 84.9249 63.913 87.5852 69.0298C90.2454 74.1466 100.973 97.0214 100.973 97.0214L96.5637 101.498L84.8003 83.5524L79.1826 65.4881Z" fill="#F2F2F2"/>
<path d="M59.3183 116.304C59.6616 115.883 59.9085 115.393 60.0415 114.866C60.1746 114.34 60.1906 113.791 60.0885 113.257C59.9863 112.724 59.7685 112.22 59.4503 111.78C59.1322 111.34 58.7214 110.975 58.247 110.711L59.2177 102.279L54.2378 100.44L53.0342 112.366C52.6434 113.192 52.5693 114.133 52.826 115.011C53.0827 115.888 53.6524 116.641 54.427 117.126C55.2016 117.612 56.1274 117.796 57.0289 117.645C57.9304 117.493 58.745 117.016 59.3183 116.304Z" fill="#EC9C9F"/>
<path d="M63.2143 67.9072L60.2749 63.7987C60.2749 63.7987 58.2633 63.3523 55.8868 66.1248C53.5103 68.8974 52.124 103.554 52.124 103.554L60.8378 105.535L65.9868 80.9778L63.2143 67.9072Z" fill="#F2F2F2"/>
<path d="M151.303 200H0.39608C0.291033 200 0.190288 199.958 0.116009 199.884C0.0417295 199.81 0 199.709 0 199.604C0 199.499 0.0417295 199.398 0.116009 199.324C0.190288 199.25 0.291033 199.208 0.39608 199.208H151.303C151.408 199.208 151.508 199.25 151.583 199.324C151.657 199.398 151.699 199.499 151.699 199.604C151.699 199.709 151.657 199.81 151.583 199.884C151.508 199.958 151.408 200 151.303 200Z" fill="#BDBDBD"/>
<path d="M54.2049 128.33L41.3166 131.066C41.4614 126.851 40.4217 122.545 38.5801 118.178L51.4684 115.442C51.0074 117.662 51.0125 119.955 51.4836 122.173C51.9546 124.392 52.8813 126.488 54.2049 128.33Z" fill="#006466"/>
<path d="M48.9244 118.839L41.1133 120.497L41.445 122.06L49.2561 120.401L48.9244 118.839Z" fill="white"/>
<path d="M49.5885 121.963L41.7773 123.622L42.109 125.184L49.9202 123.526L49.5885 121.963Z" fill="white"/>
<path d="M50.2515 125.088L42.4404 126.746L42.7721 128.308L50.5832 126.65L50.2515 125.088Z" fill="white"/>
</svg>
