<svg width="272" height="200" viewBox="0 0 272 200" fill="none" xmlns="http://www.w3.org/2000/svg">
<path d="M100.484 123.228L44.3642 135.058C42.7424 135.398 41.052 135.08 39.6638 134.175C38.2756 133.271 37.3031 131.852 36.9595 130.231L27.3294 84.5437C26.9895 82.9219 27.3067 81.2315 28.2115 79.8434C29.1164 78.4552 30.5349 77.4826 32.1559 77.1391L88.2758 65.31C89.8975 64.97 91.588 65.2873 92.9761 66.1921C94.3643 67.097 95.3369 68.5155 95.6804 70.1365L105.311 115.824C105.65 117.446 105.333 119.136 104.428 120.524C103.524 121.912 102.105 122.885 100.484 123.228ZM32.3076 77.8585C30.8773 78.1617 29.6257 79.0199 28.8273 80.2447C28.0289 81.4696 27.7489 82.9611 28.0489 84.3921L37.679 130.079C37.9821 131.51 38.8403 132.761 40.0651 133.56C41.29 134.358 42.7815 134.638 44.2125 134.338L100.332 122.509C101.763 122.206 103.014 121.348 103.813 120.123C104.611 118.898 104.891 117.406 104.591 115.975L94.961 70.2882C94.6578 68.8579 93.7996 67.6062 92.5748 66.8078C91.3499 66.0095 89.8584 65.7295 88.4274 66.0295L32.3076 77.8585Z" fill="#222222"/>
<path d="M84.7892 80.3744L56.4662 86.3444C56.2184 86.4019 55.9579 86.3631 55.7375 86.236C55.5171 86.1088 55.3532 85.9028 55.279 85.6594C55.245 85.5325 55.2373 85.4 55.2562 85.27C55.2751 85.14 55.3204 85.0152 55.3891 84.9032C55.4579 84.7913 55.5487 84.6945 55.6561 84.6188C55.7635 84.5431 55.8852 84.4901 56.0137 84.463L84.8447 78.386C85.9705 79.0204 85.6147 80.2004 84.7888 80.3745L84.7892 80.3744Z" fill="#BDBDBD"/>
<path d="M85.836 85.3424L57.5131 91.3124C57.2652 91.3699 57.0048 91.3312 56.7844 91.204C56.564 91.0769 56.4001 90.8708 56.3258 90.6274C56.2919 90.5005 56.2841 90.368 56.3031 90.238C56.322 90.108 56.3672 89.9832 56.436 89.8713C56.5047 89.7593 56.5956 89.6626 56.703 89.5869C56.8104 89.5112 56.9321 89.4582 57.0606 89.4311L85.8916 83.354C87.0173 83.9884 86.6619 85.1683 85.836 85.3424Z" fill="#BDBDBD"/>
<path d="M51.9859 95.4317L43.342 97.2537C43.0597 97.3129 42.7655 97.2577 42.5238 97.1002C42.2822 96.9427 42.1129 96.6957 42.0532 96.4136L39.9031 86.2131C39.8439 85.9308 39.8991 85.6365 40.0566 85.3949C40.2141 85.1533 40.461 84.984 40.7432 84.9242L49.3871 83.1022C49.6694 83.0431 49.9635 83.0984 50.2052 83.2559C50.4468 83.4133 50.6161 83.6602 50.6759 83.9423L52.826 94.1428C52.8852 94.4251 52.83 94.7194 52.6725 94.961C52.515 95.2026 52.2681 95.3719 51.9859 95.4317Z" fill="#BDBDBD"/>
<path d="M87.8973 95.5318L44.6713 104.643C44.4234 104.701 44.163 104.662 43.9426 104.535C43.7222 104.408 43.5583 104.202 43.484 103.958C43.4501 103.831 43.4423 103.699 43.4613 103.569C43.4802 103.439 43.5254 103.314 43.5942 103.202C43.6629 103.09 43.7538 102.993 43.8612 102.918C43.9686 102.842 44.0903 102.789 44.2188 102.762L87.9532 93.5433C89.0789 94.1777 88.7231 95.3577 87.8973 95.5318Z" fill="#BDBDBD"/>
<path d="M88.9451 100.501L45.7191 109.613C45.4713 109.67 45.2108 109.631 44.9905 109.504C44.7701 109.377 44.6062 109.171 44.5319 108.928C44.4979 108.801 44.4902 108.668 44.5091 108.538C44.5281 108.408 44.5733 108.284 44.642 108.172C44.7108 108.06 44.8016 107.963 44.909 107.887C45.0164 107.812 45.1381 107.758 45.2667 107.731L89.0011 98.5129C90.1268 99.1473 89.771 100.327 88.9451 100.501Z" fill="#BDBDBD"/>
<path d="M89.992 105.468L46.766 114.579C46.5182 114.636 46.2577 114.598 46.0373 114.471C45.8169 114.343 45.653 114.137 45.5788 113.894C45.5448 113.767 45.5371 113.635 45.556 113.505C45.5749 113.375 45.6202 113.25 45.6889 113.138C45.7577 113.026 45.8485 112.929 45.9559 112.853C46.0633 112.778 46.185 112.725 46.3136 112.698L90.048 103.479C91.1737 104.114 90.8179 105.294 89.992 105.468Z" fill="#BDBDBD"/>
<path d="M91.0389 110.437L47.8129 119.548C47.565 119.606 47.3046 119.567 47.0842 119.44C46.8638 119.313 46.6999 119.106 46.6256 118.863C46.5917 118.736 46.5839 118.604 46.6029 118.474C46.6218 118.344 46.667 118.219 46.7358 118.107C46.8046 117.995 46.8954 117.898 47.0028 117.822C47.1102 117.747 47.2319 117.694 47.3604 117.667L91.0948 108.448C92.2205 109.083 91.8647 110.263 91.0389 110.437Z" fill="#BDBDBD"/>
<path d="M92.0867 115.403L48.8607 124.515C48.6129 124.572 48.3524 124.533 48.132 124.406C47.9117 124.279 47.7478 124.073 47.6735 123.83C47.6395 123.703 47.6318 123.57 47.6507 123.44C47.6697 123.31 47.7149 123.186 47.7836 123.074C47.8524 122.962 47.9432 122.865 48.0506 122.789C48.158 122.713 48.2797 122.66 48.4083 122.633L92.1427 113.415C93.2684 114.049 92.9126 115.229 92.0867 115.403Z" fill="#BDBDBD"/>
<path d="M98.9814 92.6582C98.8832 92.8364 98.7992 93.022 98.7302 93.2134L81.0341 97.6047L77.9556 94.4199L72.542 98.4377L77.4439 104.605C77.8399 105.104 78.3869 105.46 79.0027 105.621C79.6184 105.782 80.2698 105.739 80.859 105.498L100.061 97.6515C100.692 98.1161 101.45 98.3775 102.233 98.401C103.016 98.4245 103.788 98.209 104.446 97.783C105.104 97.3571 105.617 96.741 105.916 96.0166C106.215 95.2923 106.286 94.494 106.121 93.728C105.955 92.962 105.56 92.2646 104.989 91.7285C104.417 91.1924 103.696 90.8431 102.921 90.7269C102.146 90.6108 101.354 90.7334 100.65 91.0784C99.9462 91.4233 99.3642 91.9744 98.9814 92.6582Z" fill="#EC9C9F"/>
<path d="M38.5783 131.736C39.13 131.566 39.6376 131.277 40.0654 130.889C40.4932 130.501 40.8308 130.024 41.0543 129.492C41.2779 128.96 41.382 128.385 41.3594 127.808C41.3367 127.231 41.1879 126.666 40.9232 126.153L53.1013 92.3043L44.644 90.8055L35.3328 124.549C34.5001 125.05 33.8804 125.84 33.5911 126.768C33.3018 127.696 33.3629 128.698 33.763 129.584C34.163 130.47 34.8742 131.178 35.7617 131.575C36.6492 131.972 37.6513 132.029 38.5783 131.736Z" fill="#EC9C9F"/>
<path d="M51.5539 98.3126L43.2037 95.1079C42.9661 95.0167 42.751 94.8754 42.573 94.6936C42.3949 94.5118 42.2582 94.2937 42.172 94.0542C42.0858 93.8148 42.0523 93.5596 42.0736 93.306C42.095 93.0524 42.1707 92.8064 42.2957 92.5848L46.6763 84.818C47.15 83.6055 48.0851 82.6303 49.2766 82.1061C50.4681 81.5819 51.8189 81.5515 53.0328 82.0214C54.2467 82.4914 55.2248 83.4235 55.7527 84.6134C56.2806 85.8032 56.3152 87.1539 55.849 88.3693L53.9169 97.0448C53.8615 97.2932 53.7532 97.5267 53.5994 97.7295C53.4456 97.9323 53.2499 98.0995 53.0257 98.2198C52.8014 98.3401 52.5539 98.4107 52.2999 98.4267C52.046 98.4427 51.7915 98.4038 51.5539 98.3126Z" fill="#006466"/>
<path d="M70.4021 195.285H74.9091L77.0536 177.9L70.4014 177.9L70.4021 195.285Z" fill="#EC9C9F"/>
<path d="M69.252 193.814L78.1283 193.813H78.1287C78.8716 193.813 79.6072 193.96 80.2935 194.244C80.9798 194.528 81.6034 194.945 82.1287 195.47C82.654 195.995 83.0706 196.619 83.3549 197.305C83.6392 197.991 83.7855 198.727 83.7855 199.47V199.654L69.2522 199.654L69.252 193.814Z" fill="#222222"/>
<path d="M45.0339 195.285H49.5409L51.6854 177.9L45.0332 177.9L45.0339 195.285Z" fill="#EC9C9F"/>
<path d="M43.8848 193.814L52.7612 193.813H52.7615C53.5044 193.813 54.24 193.96 54.9263 194.244C55.6126 194.528 56.2362 194.945 56.7615 195.47C57.2868 195.995 57.7035 196.619 57.9877 197.305C58.272 197.991 58.4183 198.727 58.4183 199.47V199.654L43.885 199.654L43.8848 193.814Z" fill="#222222"/>
<path d="M49.7587 188.288H44.0548C43.8309 188.288 43.6094 188.242 43.4036 188.154C43.1978 188.066 43.012 187.937 42.8575 187.775C42.703 187.613 42.583 187.421 42.5048 187.211C42.4265 187.002 42.3916 186.778 42.4023 186.555L45.1116 128.344L45.2823 128.34L72.8261 127.622L78.216 185.865C78.2367 186.084 78.2138 186.304 78.1486 186.513C78.0835 186.723 77.9773 186.917 77.8363 187.085C77.6953 187.253 77.5224 187.391 77.3275 187.492C77.1325 187.593 76.9196 187.653 76.701 187.671L70.2942 188.183C69.8918 188.215 69.4915 188.099 69.1687 187.856C68.8459 187.614 68.6229 187.262 68.5416 186.866L60.3467 145.404C60.3243 145.278 60.2575 145.165 60.1584 145.084C60.0593 145.003 59.9345 144.96 59.8066 144.963H59.8044C59.676 144.961 59.551 145.004 59.452 145.086C59.353 145.167 59.2867 145.282 59.2653 145.409L51.382 186.953C51.3073 187.329 51.1048 187.667 50.8089 187.91C50.5129 188.154 50.1418 188.287 49.7587 188.288Z" fill="#222222"/>
<path d="M60.2075 76.4281C65.1945 76.4281 69.2373 72.3853 69.2373 67.3983C69.2373 62.4113 65.1945 58.3685 60.2075 58.3685C55.2205 58.3685 51.1777 62.4113 51.1777 67.3983C51.1777 72.3853 55.2205 76.4281 60.2075 76.4281Z" fill="#EC9C9F"/>
<path d="M57.1797 135.166C52.8759 135.166 48.4553 134.035 44.7907 130.69C44.5957 130.513 44.4451 130.293 44.3512 130.047C44.2574 129.801 44.2228 129.536 44.2504 129.275C44.6427 125.75 46.5454 107.554 45.4738 95.3983C45.2647 93.1278 45.5862 90.8399 46.4128 88.7149C47.2394 86.59 48.5485 84.6862 50.2369 83.1539C51.8957 81.6251 53.8871 80.5026 56.054 79.8752C58.2209 79.2478 60.5039 79.1325 62.723 79.5385C62.8355 79.5586 62.9479 79.5797 63.0605 79.6013C70.2897 81.0004 75.3127 87.691 74.7443 95.1642C73.9149 106.069 73.1715 120.818 74.3389 129.16C74.3872 129.501 74.3277 129.849 74.1685 130.154C74.0093 130.46 73.7584 130.708 73.4511 130.864C70.7949 132.206 64.14 135.166 57.1797 135.166Z" fill="#006466"/>
<path d="M68.9631 98.9624C68.7512 98.8214 68.5723 98.6364 68.4384 98.42C68.3046 98.2035 68.219 97.9607 68.1876 97.7082L67.0875 88.8884C66.7382 87.6341 66.9006 86.2926 67.539 85.1578C68.1774 84.0231 69.2397 83.1878 70.493 82.8351C71.7463 82.4823 73.0884 82.641 74.2249 83.2762C75.3614 83.9114 76.1997 84.9714 76.5559 86.2237L80.1795 94.3712C80.2829 94.6037 80.335 94.8558 80.3322 95.1103C80.3294 95.3647 80.2718 95.6156 80.1632 95.8458C80.0547 96.076 79.8979 96.2801 79.7034 96.4442C79.5089 96.6083 79.2813 96.7286 79.0362 96.7968L70.4195 99.1946C70.1744 99.2629 69.9173 99.2776 69.666 99.2375C69.4146 99.1974 69.1749 99.1036 68.9631 98.9624Z" fill="#006466"/>
<path d="M57.055 76.3007C56.2004 76.3166 55.351 76.1629 54.5561 75.8486C54.2063 75.7138 53.8432 75.603 53.4941 75.4681C50.4108 74.2769 48.3797 70.9932 48.3069 67.6885C48.2342 64.3839 49.9455 61.1764 52.4867 59.0627C55.028 56.9489 58.3195 55.8636 61.6154 55.6127C65.1656 55.3424 69.1633 56.2427 71.1471 59.1993C71.6751 59.9863 72.0444 60.9411 71.7316 61.8914C71.6378 62.1781 71.4704 62.4352 71.2462 62.637C70.3602 63.4252 69.477 62.8325 68.5738 62.7802C67.3324 62.7082 66.2175 63.713 65.8167 64.8901C65.416 66.0672 65.5924 67.3631 65.916 68.5637C66.1625 69.2862 66.3178 70.0366 66.3785 70.7975C66.4047 71.1791 66.3329 71.561 66.1701 71.907C66.0072 72.2531 65.7587 72.5518 65.4481 72.7749C64.6724 73.2438 63.6537 72.9724 62.8775 72.5043C62.1013 72.0362 61.4307 71.3853 60.5923 71.0408C59.7539 70.6963 58.6275 70.7727 58.1395 71.5366C57.9844 71.8145 57.8795 72.1176 57.8294 72.4319C57.392 74.425 57.4925 74.3076 57.055 76.3007Z" fill="#222222"/>
<path d="M182.128 63.9706H124.775C123.118 63.9687 121.53 63.3096 120.358 62.1379C119.186 60.9662 118.527 59.3776 118.525 57.7206V11.0294C118.527 9.37239 119.186 7.78376 120.358 6.61206C121.53 5.44036 123.118 4.78128 124.775 4.77942H182.128C183.785 4.78128 185.374 5.44036 186.546 6.61206C187.717 7.78376 188.376 9.37239 188.378 11.0294V57.7206C188.376 59.3776 187.717 60.9662 186.546 62.1379C185.374 63.3096 183.785 63.9687 182.128 63.9706ZM124.775 5.51471C123.313 5.51637 121.912 6.09791 120.878 7.13176C119.844 8.16561 119.262 9.56734 119.261 11.0294V57.7206C119.262 59.1827 119.844 60.5844 120.878 61.6183C121.912 62.6521 123.313 63.2336 124.775 63.2353H182.128C183.59 63.2336 184.992 62.6521 186.026 61.6183C187.06 60.5844 187.641 59.1827 187.643 57.7206V11.0294C187.641 9.56734 187.06 8.16561 186.026 7.13176C184.992 6.09791 183.59 5.51637 182.128 5.51471H124.775Z" fill="#222222"/>
<path d="M175.61 18.8007H146.664C146.41 18.8059 146.163 18.7142 145.974 18.5444C145.784 18.3745 145.666 18.1391 145.644 17.8856C145.637 17.7544 145.657 17.6232 145.702 17.4999C145.747 17.3766 145.817 17.2638 145.908 17.1684C145.998 17.073 146.107 16.9971 146.228 16.9452C146.348 16.8933 146.478 16.8665 146.61 16.8665H176.074C177.045 17.7195 176.454 18.8007 175.61 18.8007Z" fill="#BDBDBD"/>
<path d="M175.61 23.878H146.664C146.41 23.8831 146.163 23.7915 145.974 23.6217C145.784 23.4518 145.666 23.2163 145.644 22.9629C145.637 22.8317 145.657 22.7004 145.702 22.5771C145.747 22.4538 145.817 22.341 145.908 22.2457C145.998 22.1503 146.107 22.0744 146.228 22.0225C146.348 21.9706 146.478 21.9438 146.61 21.9438H176.074C177.045 22.7967 176.454 23.878 175.61 23.878Z" fill="#BDBDBD"/>
<path d="M140.407 26.7688H131.573C131.285 26.7685 131.008 26.6538 130.804 26.4498C130.6 26.2459 130.486 25.9693 130.485 25.6809V15.2563C130.486 14.9678 130.6 14.6913 130.804 14.4873C131.008 14.2834 131.285 14.1687 131.573 14.1684H140.407C140.695 14.1688 140.972 14.2835 141.176 14.4875C141.38 14.6914 141.495 14.9679 141.495 15.2563V25.6809C141.495 25.9693 141.38 26.2459 141.176 26.4498C140.972 26.6538 140.695 26.7685 140.407 26.7688Z" fill="#222222"/>
<path d="M175.526 34.2735H131.35C131.096 34.2787 130.849 34.1871 130.659 34.0172C130.47 33.8473 130.352 33.6119 130.33 33.3584C130.322 33.2272 130.342 33.096 130.388 32.9727C130.433 32.8494 130.503 32.7366 130.593 32.6412C130.684 32.5459 130.792 32.4699 130.913 32.418C131.034 32.3661 131.164 32.3394 131.295 32.3394H175.991C176.961 33.1923 176.37 34.2735 175.526 34.2735Z" fill="#BDBDBD"/>
<path d="M175.526 39.3522H131.35C131.096 39.3573 130.849 39.2657 130.659 39.0958C130.47 38.926 130.352 38.6905 130.33 38.4371C130.322 38.3059 130.342 38.1746 130.388 38.0513C130.433 37.928 130.503 37.8152 130.593 37.7199C130.684 37.6245 130.792 37.5485 130.913 37.4966C131.034 37.4447 131.164 37.418 131.295 37.418H175.991C176.961 38.2709 176.37 39.3522 175.526 39.3522Z" fill="#BDBDBD"/>
<path d="M175.526 44.4276H131.35C131.096 44.4328 130.849 44.3412 130.659 44.1713C130.47 44.0014 130.352 43.7659 130.33 43.5125C130.322 43.3813 130.342 43.2501 130.388 43.1268C130.433 43.0035 130.503 42.8907 130.593 42.7953C130.684 42.6999 130.792 42.624 130.913 42.5721C131.034 42.5202 131.164 42.4934 131.295 42.4934H175.991C176.961 43.3463 176.37 44.4276 175.526 44.4276Z" fill="#BDBDBD"/>
<path d="M175.526 49.5058H131.35C131.096 49.511 130.849 49.4194 130.659 49.2495C130.47 49.0796 130.352 48.8442 130.33 48.5908C130.322 48.4596 130.342 48.3283 130.388 48.205C130.433 48.0817 130.503 47.9689 130.593 47.8736C130.684 47.7782 130.792 47.7022 130.913 47.6503C131.034 47.5984 131.164 47.5717 131.295 47.5717H175.991C176.961 48.4246 176.37 49.5058 175.526 49.5058Z" fill="#BDBDBD"/>
<path d="M175.526 54.5817H131.35C131.096 54.5868 130.849 54.4952 130.659 54.3253C130.47 54.1555 130.352 53.92 130.33 53.6666C130.322 53.5354 130.342 53.4041 130.388 53.2808C130.433 53.1575 130.503 53.0447 130.593 52.9494C130.684 52.854 130.792 52.7781 130.913 52.7261C131.034 52.6742 131.164 52.6475 131.295 52.6475H175.991C176.961 53.5004 176.37 54.5817 175.526 54.5817Z" fill="#BDBDBD"/>
<path d="M169.629 0C170.116 0.000557556 170.583 0.194407 170.928 0.539022C171.273 0.883638 171.466 1.35088 171.467 1.83824V7.72059C171.466 8.20795 171.273 8.67519 170.928 9.0198C170.583 9.36442 170.116 9.55827 169.629 9.55882H137.276C136.788 9.55827 136.321 9.36442 135.977 9.0198C135.632 8.67519 135.438 8.20795 135.438 7.72059V1.83824C135.438 1.35088 135.632 0.883638 135.977 0.539022C136.321 0.194407 136.788 0.000557556 137.276 0" fill="#006466"/>
<path d="M264.849 121.691H207.496C205.839 121.689 204.25 121.03 203.079 119.859C201.907 118.687 201.248 117.098 201.246 115.441V68.75C201.248 67.093 201.907 65.5043 203.079 64.3326C204.25 63.1609 205.839 62.5019 207.496 62.5H264.849C266.506 62.5019 268.095 63.1609 269.266 64.3326C270.438 65.5043 271.097 67.093 271.099 68.75V115.441C271.097 117.098 270.438 118.687 269.266 119.859C268.095 121.03 266.506 121.689 264.849 121.691ZM207.496 63.2353C206.034 63.2369 204.632 63.8185 203.598 64.8523C202.565 65.8862 201.983 67.2879 201.981 68.75V115.441C201.983 116.903 202.565 118.305 203.598 119.339C204.632 120.373 206.034 120.954 207.496 120.956H264.849C266.311 120.954 267.713 120.373 268.747 119.339C269.781 118.305 270.362 116.903 270.364 115.441V68.75C270.362 67.2879 269.781 65.8862 268.747 64.8523C267.713 63.8185 266.311 63.2369 264.849 63.2353H207.496Z" fill="#222222"/>
<path d="M258.33 76.5213H229.385C229.131 76.5265 228.884 76.4349 228.694 76.265C228.505 76.0951 228.387 75.8597 228.365 75.6062C228.358 75.4751 228.377 75.3438 228.423 75.2205C228.468 75.0972 228.538 74.9844 228.628 74.8891C228.719 74.7937 228.828 74.7177 228.948 74.6658C229.069 74.6139 229.199 74.5872 229.33 74.5872H258.795C259.766 75.4401 259.174 76.5213 258.33 76.5213Z" fill="#222222"/>
<path d="M258.33 81.5986H229.385C229.131 81.6037 228.884 81.5121 228.694 81.3422C228.505 81.1724 228.387 80.9369 228.365 80.6835C228.358 80.5523 228.377 80.421 228.423 80.2977C228.468 80.1744 228.538 80.0616 228.628 79.9663C228.719 79.8709 228.828 79.795 228.948 79.7431C229.069 79.6911 229.199 79.6644 229.33 79.6644H258.795C259.766 80.5173 259.174 81.5986 258.33 81.5986Z" fill="#222222"/>
<path d="M223.128 84.4894H214.294C214.006 84.4891 213.729 84.3744 213.525 84.1705C213.321 83.9665 213.206 83.69 213.206 83.4015V72.9769C213.206 72.6885 213.321 72.4119 213.525 72.208C213.729 72.004 214.006 71.8893 214.294 71.889H223.128C223.416 71.8894 223.693 72.0042 223.897 72.2081C224.1 72.412 224.215 72.6885 224.216 72.9769V83.4015C224.215 83.69 224.101 83.9665 223.897 84.1705C223.693 84.3744 223.416 84.4891 223.128 84.4894Z" fill="#BDBDBD"/>
<path d="M258.055 112.798H249.221C248.932 112.798 248.656 112.683 248.452 112.479C248.248 112.275 248.133 111.999 248.133 111.71V105.697C248.133 105.409 248.248 105.133 248.452 104.929C248.656 104.725 248.932 104.61 249.221 104.61H258.055C258.343 104.61 258.619 104.725 258.823 104.929C259.027 105.133 259.142 105.409 259.142 105.697V111.71C259.142 111.999 259.027 112.275 258.823 112.479C258.619 112.683 258.343 112.798 258.055 112.798Z" fill="#222222"/>
<path d="M258.246 91.9942H214.071C213.816 91.9994 213.569 91.9078 213.38 91.7379C213.191 91.568 213.073 91.3326 213.05 91.0791C213.043 90.948 213.063 90.8167 213.108 90.6934C213.154 90.5701 213.224 90.4573 213.314 90.3619C213.404 90.2666 213.513 90.1906 213.634 90.1387C213.755 90.0868 213.885 90.0601 214.016 90.0601H258.711C259.682 90.913 259.09 91.9942 258.246 91.9942Z" fill="#BDBDBD"/>
<path d="M258.246 97.0729H214.071C213.816 97.078 213.569 96.9864 213.38 96.8165C213.191 96.6467 213.073 96.4112 213.05 96.1578C213.043 96.0266 213.063 95.8953 213.108 95.772C213.154 95.6487 213.224 95.5359 213.314 95.4406C213.404 95.3452 213.513 95.2692 213.634 95.2173C213.755 95.1654 213.885 95.1387 214.016 95.1387H258.711C259.682 95.9916 259.09 97.0729 258.246 97.0729Z" fill="#BDBDBD"/>
<path d="M258.246 102.148H214.071C213.816 102.153 213.569 102.062 213.38 101.892C213.191 101.722 213.073 101.487 213.05 101.233C213.043 101.102 213.063 100.971 213.108 100.847C213.154 100.724 213.224 100.611 213.314 100.516C213.404 100.421 213.513 100.345 213.634 100.293C213.755 100.241 213.885 100.214 214.016 100.214H258.711C259.682 101.067 259.09 102.148 258.246 102.148Z" fill="#BDBDBD"/>
<path d="M235.085 107.226H214.071C213.816 107.232 213.569 107.14 213.38 106.97C213.191 106.8 213.073 106.565 213.05 106.311C213.043 106.18 213.063 106.049 213.108 105.926C213.154 105.802 213.224 105.689 213.314 105.594C213.404 105.499 213.513 105.423 213.634 105.371C213.755 105.319 213.885 105.292 214.016 105.292H235.55C236.52 106.145 235.929 107.226 235.085 107.226Z" fill="#BDBDBD"/>
<path d="M235.085 112.302H214.071C213.816 112.307 213.569 112.216 213.38 112.046C213.191 111.876 213.073 111.641 213.05 111.387C213.043 111.256 213.063 111.125 213.108 111.001C213.154 110.878 213.224 110.765 213.314 110.67C213.404 110.575 213.513 110.499 213.634 110.447C213.755 110.395 213.885 110.368 214.016 110.368H235.55C236.52 111.221 235.929 112.302 235.085 112.302Z" fill="#BDBDBD"/>
<path d="M252.349 67.2794H219.996C219.509 67.2788 219.042 67.085 218.697 66.7404C218.353 66.3958 218.159 65.9285 218.158 65.4412V59.5588C218.159 59.0715 218.353 58.6042 218.697 58.2596C219.042 57.915 219.509 57.7211 219.996 57.7206H252.349C252.837 57.7211 253.304 57.915 253.649 58.2596C253.993 58.6042 254.187 59.0715 254.188 59.5588V65.4412C254.187 65.9285 253.993 66.3958 253.649 66.7404C253.304 67.085 252.837 67.2788 252.349 67.2794Z" fill="#006466"/>
<path d="M140.441 200H0.367647C0.270141 200 0.176628 199.961 0.107681 199.892C0.0387339 199.823 0 199.73 0 199.632C0 199.535 0.0387339 199.441 0.107681 199.372C0.176628 199.303 0.270141 199.265 0.367647 199.265H140.441C140.539 199.265 140.632 199.303 140.701 199.372C140.77 199.441 140.809 199.535 140.809 199.632C140.809 199.73 140.77 199.823 140.701 199.892C140.632 199.961 140.539 200 140.441 200Z" fill="#222222"/>
</svg>
