<svg width="60" height="60" viewBox="0 0 60 60" fill="none" xmlns="http://www.w3.org/2000/svg">
<g id="Group 1577707113">
<circle id="Ellipse 55" cx="30" cy="30" r="29.5" stroke="#006466"/>
<path id="Arrow 1" d="M16 29.4C15.6686 29.4 15.4 29.6686 15.4 30C15.4 30.3314 15.6686 30.6 16 30.6V29.4ZM44.4243 30.4243C44.6586 30.1899 44.6586 29.8101 44.4243 29.5757L40.6059 25.7574C40.3716 25.523 39.9917 25.523 39.7574 25.7574C39.523 25.9917 39.523 26.3716 39.7574 26.6059L43.1515 30L39.7574 33.3941C39.523 33.6284 39.523 34.0083 39.7574 34.2426C39.9917 34.477 40.3716 34.477 40.6059 34.2426L44.4243 30.4243ZM16 30.6L44 30.6V29.4L16 29.4V30.6Z" fill="#006466"/>
</g>
</svg>
