<svg width="60" height="60" viewBox="0 0 60 60" fill="none" xmlns="http://www.w3.org/2000/svg">
<g id="Group 1577707114">
<circle id="Ellipse 55" cx="30" cy="30" r="29.5" transform="rotate(-90 30 30)" stroke="#222222" stroke-opacity="0.6"/>
<path id="Arrow 1" d="M29.4 44C29.4 44.3314 29.6686 44.6 30 44.6C30.3314 44.6 30.6 44.3314 30.6 44L29.4 44ZM30.4243 15.5757C30.1899 15.3414 29.81 15.3414 29.5757 15.5757L25.7574 19.3941C25.523 19.6284 25.523 20.0083 25.7574 20.2426C25.9917 20.477 26.3716 20.477 26.6059 20.2426L30 16.8485L33.3941 20.2426C33.6284 20.477 34.0083 20.477 34.2426 20.2426C34.477 20.0083 34.477 19.6284 34.2426 19.3941L30.4243 15.5757ZM30.6 44L30.6 16L29.4 16L29.4 44L30.6 44Z" fill="#222222" fill-opacity="0.6"/>
</g>
</svg>
