<svg width="362" height="200" viewBox="0 0 362 200" fill="none" xmlns="http://www.w3.org/2000/svg">
<path d="M110.983 143.148C120.159 143.148 127.598 135.709 127.598 126.533C127.598 117.357 120.159 109.918 110.983 109.918C101.806 109.918 94.3672 117.357 94.3672 126.533C94.3672 135.709 101.806 143.148 110.983 143.148Z" fill="#006466"/>
<path d="M109.336 132.871C108.962 132.872 108.598 132.751 108.299 132.527L108.28 132.513L104.376 129.523C104.195 129.385 104.043 129.212 103.929 129.015C103.815 128.818 103.74 128.6 103.71 128.374C103.68 128.148 103.695 127.919 103.754 127.698C103.813 127.478 103.914 127.272 104.053 127.091C104.192 126.91 104.365 126.758 104.562 126.644C104.759 126.53 104.977 126.456 105.203 126.426C105.429 126.396 105.658 126.411 105.879 126.47C106.099 126.529 106.305 126.631 106.486 126.769L109.015 128.709L114.992 120.914C115.131 120.733 115.303 120.582 115.501 120.468C115.698 120.354 115.916 120.28 116.142 120.25C116.367 120.22 116.597 120.235 116.817 120.294C117.037 120.353 117.243 120.454 117.424 120.593L117.387 120.643L117.425 120.594C117.79 120.874 118.028 121.287 118.089 121.743C118.149 122.199 118.026 122.661 117.746 123.026L110.716 132.194C110.553 132.406 110.344 132.577 110.105 132.694C109.866 132.811 109.602 132.872 109.336 132.871Z" fill="white"/>
<path d="M361.058 200H0.505809C0.371525 200 0.242878 199.946 0.148062 199.851C0.0532471 199.756 0 199.627 0 199.493C0 199.358 0.0532471 199.23 0.148062 199.135C0.242878 199.039 0.371525 198.986 0.505809 198.985H361.058C361.193 198.986 361.321 199.039 361.416 199.135C361.511 199.23 361.564 199.358 361.564 199.493C361.564 199.627 361.511 199.756 361.416 199.851C361.321 199.946 361.193 200 361.058 200Z" fill="#222222"/>
<path d="M70.5268 57.9175C77.3361 57.9175 82.8562 52.3974 82.8562 45.588C82.8562 38.7786 77.3361 33.2585 70.5268 33.2585C63.7174 33.2585 58.1973 38.7786 58.1973 45.588C58.1973 52.3974 63.7174 57.9175 70.5268 57.9175Z" fill="#222222"/>
<path d="M60.9037 38.9403C62.8961 36.9479 63.2999 34.1213 61.8056 32.627C60.3113 31.1327 57.4847 31.5365 55.4923 33.5289C53.4999 35.5213 53.0961 38.3479 54.5904 39.8422C56.0847 41.3364 58.9113 40.9327 60.9037 38.9403Z" fill="#222222"/>
<path d="M83.3778 35.0249C84.2079 33.0815 82.7803 30.6088 80.1891 29.5019C77.598 28.3951 74.8245 29.0732 73.9943 31.0166C73.1642 32.96 74.5918 35.4327 77.1829 36.5395C79.7741 37.6464 82.5476 36.9683 83.3778 35.0249Z" fill="#222222"/>
<path d="M104.86 116.771C105.171 116.179 105.349 115.526 105.381 114.857C105.413 114.189 105.298 113.522 105.044 112.903C104.79 112.284 104.403 111.728 103.911 111.275C103.419 110.821 102.834 110.481 102.196 110.279L84.3807 72.5917L76.2314 78.3061L96.3057 113.554C96.0362 114.648 96.1773 115.803 96.7022 116.799C97.2271 117.796 98.0995 118.566 99.1539 118.962C100.208 119.359 101.372 119.355 102.423 118.951C103.475 118.547 104.342 117.772 104.86 116.771Z" fill="#FFB8B8"/>
<path d="M88.4657 78.8792L79.0041 83.1101C78.7349 83.2305 78.4428 83.2914 78.148 83.2888C77.8531 83.2861 77.5622 83.2199 77.2952 83.0948C77.0282 82.9696 76.7913 82.7883 76.6007 82.5633C76.41 82.3383 76.2701 82.0749 76.1905 81.7909L73.4003 71.8416C72.7922 70.4608 72.7566 68.8952 73.3011 67.488C73.8456 66.0809 74.9258 64.9471 76.305 64.3353C77.6842 63.7234 79.2497 63.6834 80.6583 64.224C82.0669 64.7646 83.2037 65.8417 83.8194 67.2192L89.3585 75.9027C89.517 76.1514 89.62 76.4313 89.6606 76.7234C89.7012 77.0155 89.6784 77.3129 89.5936 77.5953C89.5089 77.8778 89.3643 78.1387 89.1697 78.3602C88.975 78.5818 88.7349 78.7588 88.4657 78.8792Z" fill="#BDBDBD"/>
<path d="M44.7682 120.508C45.4199 120.356 46.0306 120.064 46.5571 119.651C47.0836 119.238 47.5132 118.715 47.8156 118.118C48.118 117.521 48.2858 116.865 48.3073 116.196C48.3287 115.528 48.2033 114.862 47.9399 114.247L64.8119 76.1287L55.1602 73.6978L41.6105 111.931C40.6066 112.442 39.8251 113.304 39.414 114.353C39.0029 115.402 38.9909 116.565 39.3801 117.622C39.7693 118.679 40.5328 119.557 41.5259 120.089C42.5189 120.62 43.6726 120.769 44.7682 120.508Z" fill="#FFB8B8"/>
<path d="M40.1689 189.601L45.0769 191.387L54.3053 173.307L47.0614 170.67L40.1689 189.601Z" fill="#FFB8B8"/>
<path d="M52.8828 199.391L37.4579 193.775L39.6278 187.815L49.0931 191.262C50.6737 191.837 51.9609 193.017 52.6716 194.542C53.3823 196.066 53.4583 197.811 52.8828 199.391Z" fill="#222222"/>
<path d="M51.7777 179.196C51.4766 179.196 51.1791 179.129 50.9069 179L45.2665 176.329C44.8041 176.112 44.4397 175.729 44.245 175.257C44.0504 174.785 44.0396 174.257 44.2148 173.777L60.1332 129.696C60.265 129.331 60.4977 129.01 60.8042 128.772C61.1107 128.534 61.4785 128.388 61.8648 128.35C62.2511 128.313 62.6402 128.385 62.9868 128.56C63.3334 128.735 63.6233 129.004 63.823 129.337L72.2425 143.37C72.4298 143.682 72.5306 144.039 72.5345 144.404C72.5384 144.768 72.4453 145.127 72.2646 145.444L53.5671 178.164C53.3859 178.478 53.1251 178.739 52.8109 178.92C52.4967 179.101 52.1404 179.196 51.7777 179.196Z" fill="#222222"/>
<path d="M70.918 58.9953C76.6971 58.9953 81.3819 54.3105 81.3819 48.5314C81.3819 42.7524 76.6971 38.0675 70.918 38.0675C65.139 38.0675 60.4541 42.7524 60.4541 48.5314C60.4541 54.3105 65.139 58.9953 70.918 58.9953Z" fill="#FFB8B8"/>
<path d="M85.7217 96.1066L67.1942 91.0114L57.3402 71.3035C56.8668 70.3567 56.6433 69.3046 56.6908 68.2472C56.7384 67.1897 57.0555 66.162 57.6121 65.2615C58.1686 64.3611 58.946 63.6178 59.8706 63.1024C60.7951 62.5869 61.8361 62.3164 62.8946 62.3164H77.6353C79.1653 62.3154 80.6417 62.8801 81.7807 63.9018C85.7349 67.4441 94.0424 77.6564 85.8019 95.9285L85.7217 96.1066Z" fill="#BDBDBD"/>
<path d="M62.5282 82.946L53.1411 78.552C52.874 78.427 52.637 78.2459 52.4463 78.021C52.2555 77.7961 52.1154 77.5328 52.0356 77.2489C51.9558 76.965 51.9381 76.6672 51.9837 76.3759C52.0293 76.0845 52.1372 75.8064 52.3 75.5605L58.0048 66.9449C58.6523 65.5822 59.8137 64.5317 61.2345 64.024C62.6552 63.5162 64.2193 63.5924 65.5839 64.2361C66.9485 64.8797 68.0021 66.0381 68.5139 67.4574C69.0257 68.8767 68.9539 70.441 68.3141 71.8074L65.3642 81.6757C65.2796 81.9582 65.1352 82.2192 64.9407 82.4409C64.7462 82.6625 64.5062 82.8397 64.237 82.9602C63.9679 83.0808 63.6759 83.1419 63.3811 83.1394C63.0862 83.137 62.7953 83.071 62.5282 82.946Z" fill="#BDBDBD"/>
<path d="M73.8851 194.541H79.1079L81.5929 174.395L73.8838 174.395L73.8851 194.541Z" fill="#FFB8B8"/>
<path d="M89.1816 199.39L72.7661 199.391L72.7658 193.049L82.839 193.048C84.5211 193.048 86.1343 193.716 87.3238 194.906C88.5133 196.095 89.1816 197.708 89.1816 199.39Z" fill="#222222"/>
<path d="M75.8579 186.864C75.3883 186.865 74.9328 186.703 74.5682 186.407C74.2036 186.111 73.9523 185.699 73.8565 185.239C72.3552 178.165 64.5577 141.932 58.4718 123.268C52.2797 104.279 62.8252 95.6302 65.002 94.0893C65.2339 93.9255 65.418 93.7031 65.5358 93.4449L67.1173 89.9658C67.2813 89.6066 67.545 89.3022 67.8772 89.0887C68.2093 88.8752 68.5958 88.7616 68.9906 88.7616H69.0035C80.8595 88.8324 84.8452 92.5698 86.0085 94.1735C86.18 94.4123 86.2976 94.6856 86.3531 94.9745C86.4085 95.2633 86.4005 95.5607 86.3295 95.8462L78.828 126.796C78.7815 126.987 78.771 127.186 78.797 127.382L86.2604 183.576C86.2962 183.846 86.278 184.121 86.2066 184.384C86.1353 184.647 86.0123 184.893 85.8448 185.108C85.6774 185.323 85.4688 185.502 85.2312 185.636C84.9937 185.769 84.732 185.854 84.4613 185.885L76.0988 186.85C76.0188 186.859 75.9384 186.864 75.8579 186.864Z" fill="#222222"/>
<path d="M59.9229 41.9496C62.314 43.5976 65.1521 44.4747 68.0562 44.4631C67.0203 45.1814 65.841 45.6666 64.5995 45.8852C68.4607 46.7135 72.4512 46.7359 76.3215 45.9511C77.1818 45.8132 78.0119 45.5281 78.7753 45.1083C79.1558 44.8958 79.4873 44.6057 79.7483 44.2567C80.0092 43.9077 80.1938 43.5076 80.29 43.0826C80.5472 41.6134 79.4024 40.2786 78.2127 39.379C76.3911 38.0227 74.2909 37.0883 72.0639 36.6433C69.8369 36.1982 67.5388 36.2538 65.3359 36.8059C63.8975 37.1777 62.4565 37.8059 61.5222 38.9611C60.5879 40.1163 60.3112 41.8971 61.2013 43.0866L59.9229 41.9496Z" fill="#222222"/>
<path d="M252 87.3376C255.059 87.3376 257.539 84.8579 257.539 81.7991C257.539 78.7403 255.059 76.2606 252 76.2606C248.942 76.2606 246.462 78.7403 246.462 81.7991C246.462 84.8579 248.942 87.3376 252 87.3376Z" fill="#006466"/>
<path d="M251.451 83.9119C251.327 83.9122 251.205 83.8719 251.106 83.7971L251.1 83.7925L249.798 82.7959C249.738 82.7498 249.687 82.6922 249.649 82.6265C249.61 82.5607 249.585 82.488 249.575 82.4126C249.565 82.3373 249.57 82.2606 249.59 82.1871C249.609 82.1136 249.643 82.0447 249.69 81.9843C249.736 81.924 249.794 81.8733 249.859 81.8353C249.925 81.7972 249.998 81.7726 250.073 81.7627C250.149 81.7528 250.225 81.7579 250.299 81.7777C250.372 81.7974 250.441 81.8315 250.501 81.8779L251.344 82.5244L253.337 79.9261C253.383 79.8658 253.441 79.8153 253.506 79.7773C253.572 79.7393 253.645 79.7146 253.72 79.7047C253.795 79.6947 253.872 79.6997 253.945 79.7194C254.018 79.739 254.087 79.7729 254.148 79.8191C254.269 79.9125 254.349 80.0506 254.369 80.2026C254.389 80.3546 254.348 80.5083 254.255 80.6301L251.911 83.6862C251.857 83.7567 251.788 83.8137 251.708 83.8528C251.628 83.8919 251.54 83.9122 251.451 83.9119Z" fill="white"/>
<path d="M252 103.527C255.059 103.527 257.539 101.047 257.539 97.9886C257.539 94.9297 255.059 92.4501 252 92.4501C248.942 92.4501 246.462 94.9297 246.462 97.9886C246.462 101.047 248.942 103.527 252 103.527Z" fill="#006466"/>
<path d="M251.451 100.101C251.327 100.102 251.205 100.061 251.106 99.9866L251.1 99.9819L249.798 98.9854C249.738 98.9393 249.687 98.8817 249.649 98.8159C249.61 98.7502 249.585 98.6775 249.575 98.6021C249.565 98.5267 249.57 98.4501 249.59 98.3766C249.609 98.3031 249.643 98.2342 249.69 98.1738C249.736 98.1134 249.794 98.0628 249.859 98.0247C249.925 97.9867 249.998 97.962 250.073 97.9521C250.149 97.9423 250.225 97.9473 250.299 97.9671C250.372 97.9869 250.441 98.021 250.501 98.0674L251.344 98.7138L253.337 96.1156C253.383 96.0553 253.441 96.0047 253.506 95.9667C253.572 95.9287 253.645 95.9041 253.72 95.8941C253.795 95.8842 253.872 95.8892 253.945 95.9088C254.018 95.9284 254.087 95.9623 254.148 96.0085C254.269 96.102 254.349 96.24 254.369 96.392C254.389 96.544 254.348 96.6978 254.255 96.8195L251.911 99.8757C251.857 99.9461 251.788 100.003 251.708 100.042C251.628 100.081 251.54 100.102 251.451 100.101Z" fill="white"/>
<path d="M254.983 122.273C258.042 122.273 260.521 119.793 260.521 116.734C260.521 113.675 258.042 111.196 254.983 111.196C251.924 111.196 249.444 113.675 249.444 116.734C249.444 119.793 251.924 122.273 254.983 122.273Z" fill="#006466"/>
<path d="M254.434 118.847C254.309 118.847 254.188 118.807 254.088 118.732L254.082 118.728L252.78 117.731C252.72 117.685 252.669 117.627 252.631 117.562C252.593 117.496 252.568 117.423 252.558 117.348C252.548 117.272 252.553 117.196 252.572 117.122C252.592 117.049 252.626 116.98 252.672 116.919C252.718 116.859 252.776 116.808 252.842 116.77C252.908 116.732 252.98 116.708 253.056 116.698C253.131 116.688 253.208 116.693 253.281 116.713C253.355 116.732 253.424 116.767 253.484 116.813L254.327 117.459L256.319 114.861C256.365 114.801 256.423 114.75 256.489 114.712C256.555 114.674 256.627 114.65 256.702 114.64C256.778 114.63 256.854 114.635 256.928 114.654C257.001 114.674 257.07 114.708 257.13 114.754C257.252 114.848 257.331 114.986 257.351 115.138C257.371 115.29 257.33 115.443 257.237 115.565L254.894 118.621C254.84 118.692 254.77 118.749 254.69 118.788C254.61 118.827 254.523 118.847 254.434 118.847Z" fill="white"/>
<path d="M308.39 162.976C308.332 162.976 308.296 162.975 308.284 162.974L301.407 162.975V161.961H308.308C308.468 161.966 311.728 162.058 314.731 158.414C319.207 152.982 322.883 139.536 314.976 106.325C304.343 61.6675 313.211 22.2151 317.517 7.32584C317.729 6.58921 317.767 5.81332 317.628 5.0595C317.489 4.30567 317.176 3.59456 316.715 2.98235C316.253 2.37013 315.656 1.87358 314.97 1.53194C314.284 1.19031 313.527 1.01294 312.761 1.01385H210.071C209.291 1.0149 208.521 1.20001 207.825 1.55416C207.129 1.90832 206.527 2.42154 206.067 3.05217C204.243 5.56153 201.739 10.3822 200.173 19.0989L199.175 18.9197C200.775 10.0137 203.36 5.05114 205.247 2.45614C205.801 1.69626 206.527 1.07784 207.365 0.651085C208.203 0.224328 209.131 0.00126218 210.071 2.75928e-06H312.761C313.685 -0.00088624 314.596 0.213053 315.423 0.624919C316.25 1.03679 316.969 1.63529 317.525 2.37316C318.081 3.11102 318.458 3.96802 318.625 4.87646C318.793 5.78489 318.747 6.71987 318.491 7.60752C314.207 22.4196 305.385 61.6673 315.962 106.09C323.981 139.769 320.126 153.506 315.48 159.1C312.416 162.789 309.039 162.976 308.39 162.976Z" fill="#F2F2F2"/>
<path d="M289.887 181.479C289.829 181.479 289.793 181.477 289.781 181.476L282.905 181.477V180.463H289.806C289.966 180.468 293.225 180.561 296.229 176.916C300.705 171.485 304.38 158.039 296.473 124.827C285.84 80.17 294.708 40.7176 299.014 25.8283C299.227 25.0917 299.264 24.3158 299.125 23.562C298.986 22.8082 298.673 22.0971 298.212 21.4849C297.751 20.8726 297.153 20.3761 296.467 20.0345C295.781 19.6928 295.024 19.5154 294.258 19.5164H191.568C190.788 19.5174 190.018 19.7025 189.322 20.0567C188.627 20.4108 188.024 20.924 187.564 21.5547C185.74 24.064 183.236 28.8847 181.67 37.6014L180.672 37.4222C182.272 28.5162 184.857 23.5536 186.744 20.9586C187.298 20.1988 188.024 19.5803 188.862 19.1536C189.701 18.7268 190.628 18.5038 191.568 18.5025H294.258C295.182 18.5016 296.093 18.7156 296.92 19.1274C297.747 19.5393 298.467 20.1378 299.022 20.8757C299.578 21.6135 299.955 22.4705 300.122 23.379C300.29 24.2874 300.244 25.2224 299.988 26.11C295.704 40.9221 286.882 80.1698 297.459 124.593C305.478 158.271 301.623 172.009 296.977 177.602C293.913 181.292 290.537 181.479 289.887 181.479Z" fill="#BDBDBD"/>
<path d="M278.956 143.097C268.377 98.6744 277.2 59.4236 281.486 44.6145C281.742 43.7268 281.787 42.792 281.619 41.8837C281.451 40.9755 281.075 40.1187 280.519 39.3809C279.963 38.643 279.244 38.0444 278.417 37.6322C277.591 37.22 276.68 37.0054 275.756 37.0055H173.064C172.124 37.0064 171.197 37.2291 170.359 37.6555C169.521 38.0819 168.796 38.7 168.241 39.4595C164.096 45.1598 155.494 64.0631 165.102 116.368C170.24 144.35 170.163 163.428 168.484 175.996C167.543 183.072 166.09 188.083 164.773 191.461L164.633 191.819C164.356 192.503 164.211 193.233 164.207 193.97C164.197 194.803 164.364 195.629 164.697 196.393C165.03 197.156 165.52 197.841 166.137 198.401C166.539 198.778 166.994 199.094 167.487 199.338C167.897 199.547 168.331 199.706 168.778 199.811C169.234 199.923 169.702 199.978 170.172 199.978H271.279C271.291 199.978 271.325 199.982 271.385 199.982C272.033 199.982 275.411 199.794 278.474 196.105C283.118 190.511 286.974 176.776 278.956 143.097ZM277.724 195.419C274.721 199.066 271.462 198.972 271.304 198.968H170.172C169.362 198.968 168.565 198.769 167.849 198.389C167.134 198.01 166.523 197.461 166.069 196.791C165.669 196.211 165.401 195.551 165.282 194.858C165.164 194.164 165.198 193.452 165.383 192.773C165.431 192.576 165.494 192.382 165.57 192.194C167.074 188.329 168.189 184.325 168.898 180.239C171.3 167.139 171.748 146.923 166.099 116.185C156.564 64.2676 164.995 45.6498 169.059 40.0559C169.521 39.4262 170.123 38.9138 170.819 38.56C171.515 38.2063 172.284 38.0211 173.064 38.0195H275.756C276.522 38.0189 277.278 38.1965 277.964 38.5381C278.65 38.8797 279.247 39.376 279.708 39.9879C280.169 40.5998 280.481 41.3105 280.621 42.0639C280.76 42.8173 280.722 43.5927 280.511 44.3291C276.204 59.2191 267.338 98.6744 277.972 143.332C285.879 176.541 282.202 189.987 277.724 195.419Z" fill="#222222"/>
<path d="M230.17 85.378H177.262C176.187 85.378 175.155 84.9508 174.395 84.1903C173.634 83.4297 173.207 82.3982 173.207 81.3227C173.207 80.2471 173.634 79.2157 174.395 78.4551C175.155 77.6946 176.187 77.2673 177.262 77.2673H230.17C231.246 77.2673 232.277 77.6946 233.038 78.4551C233.798 79.2157 234.226 80.2471 234.226 81.3227C234.226 82.3982 233.798 83.4297 233.038 84.1903C232.277 84.9508 231.246 85.378 230.17 85.378Z" fill="#BDBDBD"/>
<path d="M230.17 102.845H177.262C176.187 102.845 175.155 102.418 174.395 101.658C173.634 100.897 173.207 99.8657 173.207 98.7901C173.207 97.7146 173.634 96.6831 174.395 95.9225C175.155 95.162 176.187 94.7347 177.262 94.7347H230.17C231.246 94.7347 232.277 95.162 233.038 95.9225C233.798 96.6831 234.226 97.7146 234.226 98.7901C234.226 99.8657 233.798 100.897 233.038 101.658C232.277 102.418 231.246 102.845 230.17 102.845Z" fill="#BDBDBD"/>
<path d="M234.431 120.739H181.523C180.448 120.739 179.416 120.312 178.656 119.551C177.895 118.791 177.468 117.759 177.468 116.684C177.468 115.608 177.895 114.577 178.656 113.816C179.416 113.056 180.448 112.628 181.523 112.628H234.431C235.507 112.628 236.538 113.056 237.299 113.816C238.059 114.577 238.486 115.608 238.486 116.684C238.486 117.759 238.059 118.791 237.299 119.551C236.538 120.312 235.507 120.739 234.431 120.739Z" fill="#BDBDBD"/>
<path d="M237.413 139.485H184.506C183.43 139.485 182.398 139.057 181.638 138.297C180.877 137.536 180.45 136.505 180.45 135.429C180.45 134.354 180.877 133.322 181.638 132.562C182.398 131.801 183.43 131.374 184.506 131.374H237.413C238.489 131.374 239.52 131.801 240.281 132.562C241.041 133.322 241.469 134.354 241.469 135.429C241.469 136.505 241.041 137.536 240.281 138.297C239.52 139.057 238.489 139.485 237.413 139.485Z" fill="#BDBDBD"/>
<path d="M237.436 53.8898H199.417C198.884 53.8903 198.356 53.7858 197.864 53.5823C197.371 53.3787 196.924 53.0801 196.547 52.7035C196.17 52.3268 195.871 51.8796 195.667 51.3873C195.462 50.895 195.357 50.3673 195.357 49.8344C195.357 49.3015 195.462 48.7738 195.667 48.2815C195.871 47.7893 196.17 47.342 196.547 46.9654C196.924 46.5887 197.371 46.2901 197.864 46.0866C198.356 45.883 198.884 45.7785 199.417 45.7791H237.436C238.511 45.7791 239.543 46.2063 240.304 46.9668C241.064 47.7274 241.491 48.7589 241.491 49.8344C241.491 50.91 241.064 51.9415 240.304 52.702C239.543 53.4625 238.511 53.8898 237.436 53.8898Z" fill="#006466"/>
<path d="M258.391 140.968C261.45 140.968 263.93 138.488 263.93 135.429C263.93 132.371 261.45 129.891 258.391 129.891C255.332 129.891 252.853 132.371 252.853 135.429C252.853 138.488 255.332 140.968 258.391 140.968Z" fill="#BDBDBD"/>
<path d="M239.969 157.804H187.061C185.986 157.804 184.954 157.377 184.194 156.617C183.433 155.856 183.006 154.825 183.006 153.749C183.006 152.673 183.433 151.642 184.194 150.881C184.954 150.121 185.986 149.694 187.061 149.694H239.969C241.045 149.694 242.076 150.121 242.837 150.881C243.597 151.642 244.024 152.673 244.024 153.749C244.024 154.825 243.597 155.856 242.837 156.617C242.076 157.377 241.045 157.804 239.969 157.804Z" fill="#BDBDBD"/>
<path d="M260.948 159.287C264.006 159.287 266.486 156.808 266.486 153.749C266.486 150.69 264.006 148.21 260.948 148.21C257.889 148.21 255.409 150.69 255.409 153.749C255.409 156.808 257.889 159.287 260.948 159.287Z" fill="#BDBDBD"/>
</svg>
