<svg width="327" height="200" viewBox="0 0 327 200" fill="none" xmlns="http://www.w3.org/2000/svg">
<path d="M173.059 149.538C172.36 153.767 168.679 157.006 164.256 157.006C159.833 157.006 156.149 153.767 155.454 149.538H132.928V198.353H195.585V149.538L173.059 149.538Z" fill="#BDBDBD"/>
<path d="M140.21 198.171H134.018V199.265H140.21V198.171Z" fill="#BDBDBD"/>
<path d="M195.036 198.353H188.844V199.447H195.036V198.353Z" fill="#BDBDBD"/>
<path d="M290.265 150.813H38.2469C36.3198 150.813 34.752 149.246 34.752 147.318V3.49498C34.752 1.56781 36.3198 0 38.2469 0H290.265C292.192 0 293.76 1.56781 293.76 3.49498V147.322C293.76 149.25 292.192 150.817 290.265 150.817L290.265 150.813Z" fill="#222222"/>
<path d="M287.745 6.19226H41.126V145.348H287.745V6.19226Z" fill="white"/>
<path d="M0 199.641C0 199.838 0.157961 200 0.359371 200H325.78C325.977 200 326.139 199.842 326.139 199.641C326.139 199.439 325.981 199.281 325.78 199.281H0.359371C0.161915 199.281 0 199.439 0 199.641Z" fill="#222222"/>
<path d="M243.308 64.293H181.899C180.209 64.293 178.839 65.6633 178.839 67.3536V67.3536C178.839 69.0439 180.209 70.4142 181.899 70.4142H243.308C244.999 70.4142 246.369 69.0439 246.369 67.3536C246.369 65.6633 244.999 64.293 243.308 64.293Z" fill="#006466"/>
<path d="M243.308 89.1727H195.129C193.439 89.1727 192.068 90.543 192.068 92.2333V92.2333C192.068 93.9236 193.439 95.2939 195.129 95.2939H243.308C244.999 95.2939 246.369 93.9236 246.369 92.2333C246.369 90.543 244.999 89.1727 243.308 89.1727Z" fill="#006466"/>
<path d="M243.309 105.364H234.226C232.535 105.364 231.165 106.735 231.165 108.425V108.425C231.165 110.115 232.535 111.485 234.226 111.485H243.309C244.999 111.485 246.369 110.115 246.369 108.425V108.425C246.369 106.735 244.999 105.364 243.309 105.364Z" fill="#006466"/>
<path d="M148.727 81.2744H102.917C101.227 81.2744 99.8564 82.6447 99.8564 84.335V84.335C99.8564 86.0253 101.227 87.3956 102.917 87.3956H148.727C150.417 87.3956 151.788 86.0253 151.788 84.335C151.788 82.6447 150.417 81.2744 148.727 81.2744Z" fill="#BDBDBD"/>
<path d="M116.344 97.0708H102.917C101.227 97.0708 99.8564 98.4411 99.8564 100.131V100.131C99.8564 101.822 101.227 103.192 102.917 103.192H116.344C118.034 103.192 119.405 101.822 119.405 100.131C119.405 98.4411 118.034 97.0708 116.344 97.0708Z" fill="#BDBDBD"/>
<path d="M243.308 72.981H199.473C197.782 72.981 196.412 74.3512 196.412 76.0415V76.0416C196.412 77.7319 197.782 79.1021 199.473 79.1021H243.308C244.998 79.1021 246.369 77.7319 246.369 76.0415C246.369 74.3512 244.998 72.981 243.308 72.981Z" fill="#006466"/>
<path d="M96.3018 43.7577H249.923" stroke="#222222" stroke-width="2" stroke-miterlimit="10"/>
<path d="M101.238 38.4264H134.912" stroke="#222222" stroke-width="2" stroke-miterlimit="10"/>
<path d="M52.8819 105.424L50.1885 116.068L68.7871 115.838L66.6587 106.113L52.8819 105.424Z" fill="#EC9C9F"/>
<path d="M49.4417 141.788L45.4037 159.454L37.9717 194.824L41.4159 195.513L65.089 142.798L49.4417 141.788Z" fill="#EC9C9F"/>
<path d="M57.2158 145.812L64.6744 162.328L75.6279 195.513L80.2201 194.365L70.2928 137.161L57.2158 145.812Z" fill="#EC9C9F"/>
<path d="M51.2327 111.685C51.2327 111.685 42.929 126.307 44.4433 142.459C44.4433 142.459 56.6851 151.729 76.351 143.148L68.2557 110.844L51.2327 111.685Z" fill="#222222"/>
<path d="M37.3966 199.042C37.0013 198.718 36.7878 198.356 36.7623 197.966C36.7331 197.521 36.9534 197.042 37.4168 196.545C37.428 196.402 37.5718 194.628 37.8924 194.311C37.8655 194.216 37.7022 193.587 37.9699 193.178C38.0959 192.986 38.2992 192.873 38.5739 192.845L38.5859 192.843L38.5918 192.854C38.5996 192.868 39.3795 194.24 40.5528 194.36C41.2255 194.429 41.8989 194.079 42.5545 193.318C42.5781 193.262 42.7633 192.336 42.8828 191.723L42.8876 191.698L49.2804 195.101L53.0173 196.148C53.4869 196.279 53.8149 196.716 53.8149 197.209C53.8149 197.63 53.5729 198.019 53.1984 198.202L51.3871 199.083C50.6303 199.452 49.7863 199.646 48.9466 199.646H39.1214C38.4848 199.646 37.8723 199.432 37.3966 199.042Z" fill="#222222"/>
<path d="M73.9044 199.042C73.5091 198.718 73.2956 198.356 73.2701 197.966C73.241 197.521 73.4612 197.042 73.9247 196.545C73.9358 196.402 74.0796 194.628 74.4002 194.311C74.3733 194.216 74.21 193.587 74.4777 193.178C74.6037 192.986 74.807 192.873 75.0817 192.845L75.0937 192.843L75.0996 192.854C75.1074 192.868 75.8873 194.24 77.0606 194.36C77.7333 194.429 78.4067 194.079 79.0623 193.318C79.0859 193.262 79.2711 192.336 79.3907 191.723L79.3954 191.698L85.7882 195.101L89.5251 196.148C89.9947 196.279 90.3228 196.716 90.3228 197.209C90.3228 197.63 90.0808 198.019 89.7062 198.202L87.8949 199.083C87.1381 199.452 86.2942 199.646 85.4544 199.646H75.6292C74.9926 199.646 74.3801 199.432 73.9044 199.042Z" fill="#222222"/>
<path d="M55.5537 72.3938C55.5537 68.2507 58.9124 64.8921 63.0554 64.8921C67.1986 64.8921 70.5572 68.2507 70.5572 72.3938C70.5572 75.7539 68.348 78.5976 65.303 79.5526L63.8527 89.1368L56.4597 82.976C56.4597 82.976 58.0569 80.9417 58.9134 78.6478C56.889 77.3044 55.5537 75.0055 55.5537 72.3938Z" fill="#EC9C9F"/>
<path d="M55.7565 79.7993L64.5922 85.4474L68.6705 92.6497C69.8514 94.7351 70.2502 97.1732 69.7954 99.5262L67.9216 109.22H48.3848L51.4717 88.9956C51.8657 86.4142 52.8489 83.9583 54.3451 81.8182L55.7565 79.7993Z" fill="#006466"/>
<path d="M53.1458 82.2502C53.1458 82.2502 53.4961 84.908 56.7417 84.9948C61.1308 85.1122 63.3253 85.1709 63.3253 85.1709C63.3253 85.1709 57.7599 71.6266 60.0483 73.1525C62.3367 74.6783 68.4392 68.2815 68.4392 68.2815L70.2399 71.6586C70.2399 71.6586 74.5417 70.1008 69.7741 66.2861C69.7741 66.2861 64.0857 61.8883 58.0468 64.5292C52.0079 67.1701 53.1458 82.2502 53.1458 82.2502Z" fill="#222222"/>
<path d="M93.7347 135.575H27.7842V150.187H93.7347V135.575Z" fill="#BDBDBD"/>
<path d="M35.7005 146.98C38.0996 146.98 40.0445 145.035 40.0445 142.636C40.0445 140.237 38.0996 138.292 35.7005 138.292C33.3013 138.292 31.3564 140.237 31.3564 142.636C31.3564 145.035 33.3013 146.98 35.7005 146.98Z" stroke="#222222" stroke-width="2" stroke-miterlimit="10"/>
<path d="M41.624 139.082H67.3997" stroke="#222222" stroke-width="2" stroke-miterlimit="10"/>
<path d="M41.624 142.636H86.5943" stroke="#222222" stroke-width="2" stroke-miterlimit="10"/>
<path d="M41.624 145.525H90.4332" stroke="#222222" stroke-width="2" stroke-miterlimit="10"/>
<path d="M57.2677 130.377L57.11 123.107L61.3547 123.015L61.5124 130.285C62.3043 131.021 62.8271 132.163 62.8552 133.458C62.9044 135.724 61.4239 137.594 59.5485 137.635C57.673 137.676 56.1128 135.872 56.0637 133.605C56.0356 132.31 56.5084 131.146 57.2677 130.377Z" fill="#EC9C9F"/>
<path d="M63.1286 93.9907V129.229H55.7568L53.5781 94.2882" fill="#006466"/>
</svg>
