<svg width="250" height="200" viewBox="0 0 250 200" fill="none" xmlns="http://www.w3.org/2000/svg">
<path d="M44.6411 108.762H4.21584C3.09812 108.761 2.02655 108.316 1.2362 107.526C0.445851 106.736 0.0012737 105.664 0 104.546V55.9883C0.0012737 54.8706 0.445851 53.799 1.2362 53.0087C2.02655 52.2183 3.09812 51.7737 4.21584 51.7725H44.6411C45.7588 51.7737 46.8304 52.2183 47.6207 53.0087C48.4111 53.799 48.8557 54.8706 48.8569 55.9883V104.546C48.8557 105.664 48.4111 106.736 47.6207 107.526C46.8304 108.316 45.7588 108.761 44.6411 108.762ZM4.21584 52.3105C3.24075 52.3116 2.30592 52.6994 1.61643 53.3889C0.926936 54.0784 0.539096 55.0132 0.537996 55.9883V104.546C0.539096 105.521 0.926936 106.456 1.61643 107.146C2.30592 107.835 3.24075 108.223 4.21584 108.224H44.6411C45.6162 108.223 46.551 107.835 47.2405 107.146C47.93 106.456 48.3178 105.521 48.3189 104.546V55.9883C48.3178 55.0132 47.93 54.0784 47.2405 53.3889C46.551 52.6994 45.6162 52.3116 44.6411 52.3105H4.21584Z" fill="#222222"/>
<path d="M33.8792 55.764H14.9797C14.0882 55.763 13.2335 55.4084 12.6031 54.778C11.9728 54.1477 11.6182 53.293 11.6172 52.4015V51.6813C11.6182 50.7898 11.9728 49.9352 12.6031 49.3048C13.2335 48.6744 14.0882 48.3199 14.9797 48.3188H33.8792C34.7707 48.3199 35.6253 48.6744 36.2557 49.3048C36.8861 49.9352 37.2407 50.7898 37.2417 51.6813V52.4015C37.2407 53.293 36.8861 54.1477 36.2557 54.778C35.6253 55.4084 34.7707 55.763 33.8792 55.764Z" fill="#CCCCCC"/>
<path d="M42.9669 82.181H5.8905C5.63901 82.1813 5.38993 82.132 5.15749 82.036C4.92506 81.94 4.71384 81.799 4.5359 81.6213C4.35796 81.4436 4.2168 81.2325 4.12049 81.0002C4.02418 80.7679 3.97461 80.5189 3.97461 80.2674C3.97461 80.0159 4.02418 79.7669 4.12049 79.5346C4.2168 79.3022 4.35796 79.0912 4.5359 78.9134C4.71384 78.7357 4.92506 78.5948 5.15749 78.4988C5.38993 78.4027 5.63901 78.3535 5.8905 78.3538H42.9669C43.474 78.3544 43.9602 78.5562 44.3186 78.9151C44.677 79.2739 44.8783 79.7603 44.8783 80.2674C44.8783 80.7745 44.677 81.2609 44.3186 81.6197C43.9602 81.9785 43.474 82.1804 42.9669 82.181Z" fill="#006466"/>
<path d="M42.9669 90.3138H5.8905C5.63901 90.3141 5.38993 90.2648 5.15749 90.1688C4.92506 90.0728 4.71384 89.9319 4.5359 89.7541C4.35796 89.5764 4.2168 89.3653 4.12049 89.133C4.02418 88.9007 3.97461 88.6517 3.97461 88.4002C3.97461 88.1487 4.02418 87.8997 4.12049 87.6674C4.2168 87.435 4.35796 87.224 4.5359 87.0463C4.71384 86.8685 4.92506 86.7276 5.15749 86.6316C5.38993 86.5356 5.63901 86.4863 5.8905 86.4866H42.9669C43.474 86.4872 43.9602 86.6891 44.3186 87.0479C44.677 87.4067 44.8783 87.8931 44.8783 88.4002C44.8783 88.9073 44.677 89.3937 44.3186 89.7525C43.9602 90.1113 43.474 90.3132 42.9669 90.3138Z" fill="#006466"/>
<path d="M33.0389 74.0483H15.8163C15.5648 74.0486 15.3157 73.9993 15.0833 73.9033C14.8508 73.8073 14.6396 73.6663 14.4617 73.4886C14.2837 73.3109 14.1426 73.0998 14.0463 72.8675C13.95 72.6352 13.9004 72.3862 13.9004 72.1347C13.9004 71.8832 13.95 71.6342 14.0463 71.4018C14.1426 71.1695 14.2837 70.9585 14.4617 70.7807C14.6396 70.603 14.8508 70.4621 15.0833 70.3661C15.3157 70.27 15.5648 70.2208 15.8163 70.2211H33.0389C33.2904 70.2208 33.5395 70.27 33.7719 70.3661C34.0043 70.4621 34.2155 70.603 34.3935 70.7807C34.5714 70.9585 34.7126 71.1695 34.8089 71.4018C34.9052 71.6342 34.9548 71.8832 34.9548 72.1347C34.9548 72.3862 34.9052 72.6352 34.8089 72.8675C34.7126 73.0998 34.5714 73.3109 34.3935 73.4886C34.2155 73.6663 34.0043 73.8073 33.7719 73.9033C33.5395 73.9993 33.2904 74.0486 33.0389 74.0483Z" fill="#006466"/>
<path d="M130.514 60.4435H90.0889C88.9712 60.4422 87.8996 59.9976 87.1092 59.2073C86.3189 58.4169 85.8743 57.3454 85.873 56.2276V7.66941C85.8743 6.55169 86.3189 5.48011 87.1092 4.68977C87.8996 3.89942 88.9712 3.45484 90.0889 3.45358H130.514C131.632 3.45484 132.703 3.89942 133.494 4.68977C134.284 5.48011 134.729 6.55169 134.73 7.66941V56.2276C134.729 57.3454 134.284 58.4169 133.494 59.2073C132.703 59.9976 131.632 60.4422 130.514 60.4435ZM90.0889 3.99157C89.1138 3.99266 88.179 4.3805 87.4895 5.06999C86.8 5.75949 86.4121 6.69432 86.411 7.66941V56.2276C86.4121 57.2027 86.8 58.1376 87.4895 58.8271C88.179 59.5166 89.1138 59.9044 90.0889 59.9055H130.514C131.489 59.9044 132.424 59.5166 133.114 58.8271C133.803 58.1376 134.191 57.2027 134.192 56.2276V7.66941C134.191 6.69432 133.803 5.75948 133.114 5.06999C132.424 4.3805 131.489 3.99266 130.514 3.99157H90.0889Z" fill="#222222"/>
<path d="M119.752 7.44513H100.853C99.9612 7.44413 99.1066 7.08954 98.4762 6.45917C97.8458 5.8288 97.4912 4.97413 97.4902 4.08265V3.36248C97.4912 2.471 97.8458 1.61632 98.4762 0.985954C99.1066 0.355585 99.9612 0.00100247 100.853 0H119.752C120.644 0.00100247 121.498 0.355585 122.129 0.985954C122.759 1.61632 123.114 2.471 123.115 3.36248V4.08265C123.114 4.97413 122.759 5.8288 122.129 6.45917C121.498 7.08954 120.644 7.44413 119.752 7.44513Z" fill="#CCCCCC"/>
<path d="M128.84 33.8622H91.7636C91.5121 33.8625 91.263 33.8132 91.0305 33.7171C90.7981 33.6211 90.5869 33.4802 90.409 33.3025C90.231 33.1247 90.0899 32.9137 89.9935 32.6814C89.8972 32.4491 89.8477 32.2 89.8477 31.9485C89.8477 31.697 89.8972 31.448 89.9935 31.2157C90.0899 30.9834 90.231 30.7723 90.409 30.5946C90.5869 30.4169 90.7981 30.276 91.0305 30.1799C91.263 30.0839 91.5121 30.0346 91.7636 30.0349H128.84C129.091 30.0346 129.341 30.0839 129.573 30.1799C129.805 30.276 130.017 30.4169 130.195 30.5946C130.373 30.7723 130.514 30.9834 130.61 31.2157C130.706 31.448 130.756 31.697 130.756 31.9485C130.756 32.2 130.706 32.4491 130.61 32.6814C130.514 32.9137 130.373 33.1247 130.195 33.3025C130.017 33.4802 129.805 33.6211 129.573 33.7171C129.341 33.8132 129.091 33.8625 128.84 33.8622Z" fill="#006466"/>
<path d="M128.84 41.9949H91.7632C91.5119 41.9949 91.2631 41.9454 91.0309 41.8493C90.7987 41.7531 90.5878 41.6121 90.4101 41.4344C90.2324 41.2567 90.0914 41.0458 89.9953 40.8136C89.8991 40.5814 89.8496 40.3326 89.8496 40.0813C89.8496 39.83 89.8991 39.5812 89.9953 39.349C90.0914 39.1168 90.2324 38.9059 90.4101 38.7282C90.5878 38.5505 90.7987 38.4095 91.0309 38.3133C91.2631 38.2172 91.5119 38.1677 91.7632 38.1677H128.84C129.091 38.1677 129.34 38.2172 129.572 38.3133C129.804 38.4095 130.015 38.5505 130.193 38.7282C130.37 38.9059 130.511 39.1168 130.608 39.349C130.704 39.5812 130.753 39.83 130.753 40.0813C130.753 40.3326 130.704 40.5814 130.608 40.8136C130.511 41.0458 130.37 41.2567 130.193 41.4344C130.015 41.6121 129.804 41.7531 129.572 41.8493C129.34 41.9454 129.091 41.9949 128.84 41.9949Z" fill="#006466"/>
<path d="M118.914 25.7291H101.691C101.44 25.7294 101.191 25.6801 100.958 25.5841C100.726 25.488 100.515 25.3471 100.337 25.1694C100.159 24.9917 100.018 24.7806 99.9213 24.5483C99.825 24.316 99.7754 24.067 99.7754 23.8155C99.7754 23.564 99.825 23.315 99.9213 23.0826C100.018 22.8503 100.159 22.6393 100.337 22.4615C100.515 22.2838 100.726 22.1429 100.958 22.0469C101.191 21.9508 101.44 21.9016 101.691 21.9019H118.914C119.421 21.9019 119.908 22.1035 120.267 22.4623C120.626 22.8212 120.828 23.308 120.828 23.8155C120.828 24.323 120.626 24.8097 120.267 25.1686C119.908 25.5275 119.421 25.7291 118.914 25.7291Z" fill="#006466"/>
<path d="M212.99 142.258L177.494 161.603C176.511 162.137 175.358 162.259 174.286 161.943C173.213 161.628 172.31 160.899 171.774 159.919L148.538 117.281C148.004 116.299 147.882 115.145 148.197 114.073C148.513 113.001 149.241 112.098 150.222 111.562L185.718 92.2172C186.7 91.6834 187.854 91.561 188.926 91.8768C189.998 92.1926 190.902 92.9207 191.438 93.9016L214.674 136.539C215.208 137.521 215.33 138.675 215.015 139.747C214.699 140.819 213.971 141.722 212.99 142.258ZM150.48 112.034C149.624 112.502 148.989 113.29 148.713 114.225C148.438 115.161 148.544 116.167 149.01 117.024L172.247 159.661C172.714 160.517 173.502 161.152 174.438 161.428C175.373 161.703 176.379 161.596 177.236 161.131L212.732 141.786C213.588 141.318 214.223 140.53 214.499 139.595C214.774 138.66 214.667 137.653 214.202 136.796L190.965 94.159C190.498 93.3033 189.71 92.6681 188.774 92.3926C187.839 92.1171 186.832 92.2239 185.976 92.6896L150.48 112.034Z" fill="#222222"/>
<path d="M178.177 100.872L161.582 109.916C160.799 110.342 159.879 110.44 159.024 110.188C158.169 109.936 157.448 109.355 157.021 108.573L156.676 107.94C156.25 107.157 156.153 106.237 156.405 105.382C156.657 104.527 157.237 103.806 158.02 103.379L174.615 94.3349C175.398 93.9092 176.318 93.8116 177.173 94.0634C178.028 94.3153 178.749 94.8961 179.176 95.6784L179.521 96.3107C179.947 97.094 180.044 98.0141 179.792 98.8693C179.541 99.7244 178.96 100.445 178.177 100.872Z" fill="#CCCCCC"/>
<path d="M198.799 119.719L166.243 137.461C166.023 137.582 165.781 137.657 165.531 137.684C165.281 137.711 165.028 137.688 164.787 137.617C164.546 137.546 164.321 137.428 164.126 137.27C163.93 137.112 163.768 136.917 163.647 136.697C163.527 136.476 163.452 136.234 163.425 135.984C163.398 135.734 163.421 135.482 163.492 135.24C163.563 134.999 163.681 134.775 163.839 134.579C163.996 134.384 164.191 134.221 164.412 134.101L196.968 116.359C197.413 116.116 197.937 116.06 198.424 116.203C198.911 116.347 199.321 116.677 199.564 117.123C199.807 117.569 199.862 118.093 199.719 118.579C199.576 119.066 199.245 119.476 198.799 119.719Z" fill="#CCCCCC"/>
<path d="M202.692 126.86L170.136 144.603C169.915 144.723 169.673 144.799 169.423 144.825C169.173 144.852 168.921 144.829 168.68 144.758C168.439 144.687 168.214 144.569 168.018 144.411C167.823 144.254 167.66 144.059 167.54 143.838C167.42 143.617 167.344 143.375 167.317 143.125C167.291 142.875 167.314 142.623 167.385 142.382C167.456 142.141 167.573 141.916 167.731 141.72C167.889 141.525 168.084 141.362 168.305 141.242L200.86 123.5C201.081 123.38 201.323 123.304 201.573 123.277C201.823 123.251 202.076 123.273 202.317 123.344C202.558 123.415 202.782 123.533 202.978 123.691C203.173 123.849 203.336 124.044 203.456 124.264C203.577 124.485 203.652 124.727 203.679 124.977C203.705 125.227 203.683 125.48 203.612 125.721C203.541 125.962 203.423 126.187 203.265 126.382C203.107 126.578 202.912 126.74 202.692 126.86Z" fill="#CCCCCC"/>
<path d="M186.192 117.328L171.07 125.57C170.849 125.69 170.607 125.766 170.357 125.792C170.107 125.819 169.854 125.796 169.613 125.725C169.372 125.654 169.147 125.536 168.952 125.379C168.756 125.221 168.594 125.026 168.474 124.805C168.353 124.585 168.278 124.342 168.251 124.093C168.224 123.843 168.247 123.59 168.318 123.349C168.389 123.108 168.507 122.883 168.665 122.688C168.823 122.492 169.017 122.33 169.238 122.209L184.361 113.968C184.581 113.847 184.824 113.772 185.074 113.745C185.323 113.719 185.576 113.741 185.817 113.812C186.058 113.883 186.283 114.001 186.478 114.159C186.674 114.317 186.837 114.512 186.957 114.732C187.077 114.953 187.153 115.195 187.179 115.445C187.206 115.695 187.183 115.948 187.112 116.189C187.041 116.43 186.923 116.654 186.766 116.85C186.608 117.046 186.413 117.208 186.192 117.328Z" fill="#CCCCCC"/>
<path d="M75.1067 43.9744L56.1992 54.9521L56.4693 55.4174L75.3768 44.4396L75.1067 43.9744Z" fill="#222222"/>
<path d="M75.9089 46.9209L78.5795 42.2683L73.2148 42.281L75.9089 46.9209Z" fill="#222222"/>
<path d="M131.065 116.192C131.022 116.192 130.98 116.181 130.942 116.162L58.2725 78.8324C58.2092 78.7997 58.1615 78.7432 58.1398 78.6754C58.118 78.6075 58.1241 78.5338 58.1567 78.4704C58.1892 78.4071 58.2456 78.3592 58.3134 78.3373C58.3812 78.3154 58.4549 78.3213 58.5184 78.3538L131.188 115.683C131.242 115.711 131.284 115.756 131.31 115.811C131.335 115.865 131.341 115.927 131.326 115.986C131.312 116.045 131.279 116.097 131.231 116.134C131.184 116.171 131.125 116.192 131.065 116.192Z" fill="#222222"/>
<path d="M129.141 117.95L134.499 117.687L131.592 113.178L129.141 117.95Z" fill="#222222"/>
<path d="M206.046 147.056C205.668 146.868 205.335 146.599 205.072 146.269C204.809 145.938 204.622 145.554 204.523 145.143C204.425 144.732 204.417 144.305 204.502 143.891C204.586 143.477 204.761 143.087 205.012 142.747L202.852 121.62H207.521L209.239 142.25C209.781 142.711 210.135 143.354 210.234 144.058C210.333 144.763 210.171 145.479 209.777 146.071C209.384 146.664 208.786 147.091 208.099 147.273C207.411 147.454 206.681 147.377 206.046 147.056Z" fill="#EC9C9F"/>
<path d="M201.757 109.961C205.406 109.961 208.364 107.003 208.364 103.354C208.364 99.7051 205.406 96.7471 201.757 96.7471C198.108 96.7471 195.15 99.7051 195.15 103.354C195.15 107.003 198.108 109.961 201.757 109.961Z" fill="#EC9C9F"/>
<path d="M200.254 133.896L190.394 131.743C190.134 131.685 189.901 131.545 189.729 131.343C189.558 131.14 189.457 130.887 189.443 130.622C189.329 128.422 189.247 122.73 190.942 117.416C191.27 116.397 191.798 115.455 192.496 114.644C193.194 113.833 194.048 113.17 195.006 112.694C195.965 112.219 197.01 111.941 198.078 111.876C199.146 111.812 200.216 111.962 201.225 112.318C202.29 112.693 203.263 113.288 204.082 114.064C204.901 114.841 205.546 115.782 205.975 116.826C206.404 117.87 206.608 118.993 206.573 120.121C206.538 121.249 206.265 122.357 205.771 123.372C203.585 127.862 202.208 131.113 201.678 133.037C201.596 133.335 201.402 133.59 201.138 133.75C200.873 133.91 200.556 133.962 200.254 133.896Z" fill="#006466"/>
<path d="M190.964 196.662L187.666 196.662L186.098 183.942L190.965 183.942L190.964 196.662Z" fill="#EC9C9F"/>
<path d="M185.311 195.72H191.671V199.724H181.307C181.307 198.662 181.729 197.644 182.48 196.893C183.231 196.142 184.249 195.72 185.311 195.72Z" fill="#222222"/>
<path d="M223.942 192.388L221.053 193.977L213.549 183.586L217.814 181.241L223.942 192.388Z" fill="#EC9C9F"/>
<path d="M218.535 194.286L224.108 191.222L226.037 194.731L216.955 199.725C216.443 198.794 216.322 197.698 216.618 196.678C216.915 195.658 217.604 194.798 218.535 194.286Z" fill="#222222"/>
<path d="M191.026 189.598L185.949 189.207C185.665 189.186 185.398 189.065 185.194 188.866C184.991 188.667 184.864 188.402 184.837 188.118C184.114 180.571 180.939 142.327 189.525 130.552L189.549 130.52L189.587 130.505C189.664 130.477 197.321 127.747 201.714 132.751C201.852 132.91 201.946 133.102 201.987 133.308C202.028 133.515 202.014 133.728 201.947 133.928L201.78 134.431C201.732 134.573 201.719 134.725 201.742 134.874C201.765 135.022 201.824 135.163 201.913 135.284C203.132 136.932 207.236 143.28 208.848 155.763C208.858 155.842 208.879 155.92 208.909 155.994L220.816 185.244C220.877 185.394 220.907 185.554 220.905 185.715C220.903 185.876 220.869 186.035 220.805 186.183C220.741 186.331 220.647 186.465 220.531 186.576C220.414 186.688 220.277 186.774 220.126 186.832L216.379 188.259C216.106 188.362 215.806 188.363 215.532 188.262C215.259 188.162 215.03 187.967 214.888 187.712L197.7 156.527C197.631 156.403 197.525 156.304 197.397 156.243C197.269 156.183 197.125 156.165 196.985 156.191C196.846 156.217 196.719 156.287 196.621 156.39C196.524 156.493 196.462 156.625 196.444 156.765L192.319 188.547C192.282 188.838 192.139 189.106 191.918 189.3C191.698 189.494 191.414 189.601 191.12 189.602C191.089 189.602 191.058 189.601 191.026 189.598Z" fill="#222222"/>
<path d="M176.073 111.029C176.106 111.174 176.127 111.321 176.137 111.47L187.693 118.136L190.501 116.519L193.496 120.439L188.802 123.785C188.422 124.055 187.966 124.195 187.5 124.184C187.035 124.172 186.585 124.01 186.22 123.722L174.304 114.321C173.766 114.52 173.181 114.551 172.625 114.409C172.069 114.267 171.57 113.96 171.194 113.527C170.817 113.095 170.581 112.558 170.518 111.988C170.454 111.418 170.565 110.842 170.836 110.337C171.108 109.832 171.526 109.421 172.037 109.16C172.547 108.899 173.125 108.799 173.693 108.874C174.262 108.949 174.794 109.195 175.219 109.58C175.644 109.965 175.942 110.47 176.073 111.029Z" fill="#EC9C9F"/>
<path d="M187.851 117.47C187.886 117.299 187.957 117.138 188.059 116.998C188.162 116.857 188.294 116.741 188.446 116.656L193.748 113.691C194.453 113.147 195.344 112.905 196.227 113.017C197.11 113.13 197.912 113.588 198.458 114.291C199.004 114.994 199.248 115.885 199.138 116.768C199.028 117.651 198.573 118.454 197.871 119.002L193.643 123.392C193.523 123.518 193.376 123.615 193.214 123.679C193.053 123.743 192.879 123.771 192.705 123.761C192.532 123.752 192.362 123.705 192.208 123.624C192.054 123.543 191.919 123.43 191.813 123.292L188.078 118.452C187.972 118.314 187.897 118.155 187.857 117.986C187.818 117.816 187.816 117.64 187.851 117.47Z" fill="#006466"/>
<path d="M201.577 126.611C201.442 126.502 201.332 126.364 201.254 126.209C201.177 126.053 201.134 125.882 201.129 125.708L200.938 119.636C200.78 118.76 200.976 117.857 201.482 117.125C201.988 116.394 202.764 115.892 203.639 115.732C204.515 115.571 205.418 115.764 206.151 116.268C206.885 116.772 207.388 117.547 207.551 118.422L209.502 124.196C209.557 124.361 209.577 124.536 209.559 124.709C209.541 124.882 209.486 125.049 209.397 125.199C209.309 125.349 209.189 125.478 209.046 125.577C208.904 125.677 208.741 125.744 208.57 125.775L202.554 126.861C202.382 126.892 202.207 126.886 202.038 126.843C201.869 126.8 201.712 126.721 201.577 126.611Z" fill="#006466"/>
<path d="M200.712 101.834C199.014 102.996 196.784 104.191 195.05 102.953C193.911 102.141 193.552 100.636 194.014 99.3152C194.845 96.9404 197.126 95.8948 199.308 95.0934C202.145 94.0516 205.233 93.2227 208.161 93.9689C211.089 94.715 213.677 97.55 213.149 100.525C212.724 102.918 210.467 104.908 210.787 107.317C211.11 109.741 213.836 111.018 216.243 111.451C218.65 111.884 221.343 112.023 223.073 113.752C225.279 115.958 224.728 119.9 222.652 122.228C220.576 124.557 217.442 125.612 214.406 126.33C210.384 127.28 206.033 127.78 202.212 126.202C198.391 124.624 195.418 120.377 196.525 116.395C196.993 114.712 198.094 113.291 199.158 111.907C200.222 110.522 201.3 109.075 201.706 107.377C202.045 105.962 201.794 104.319 200.856 103.257C200.685 103.071 200.578 102.836 200.549 102.586C200.52 102.335 200.572 102.082 200.696 101.862L200.712 101.834Z" fill="#222222"/>
<path d="M249.175 200H146.687C146.616 200 146.547 199.972 146.497 199.921C146.446 199.871 146.418 199.802 146.418 199.731C146.418 199.66 146.446 199.591 146.497 199.541C146.547 199.49 146.616 199.462 146.687 199.462H249.175C249.247 199.462 249.315 199.49 249.365 199.541C249.416 199.591 249.444 199.66 249.444 199.731C249.444 199.802 249.416 199.871 249.365 199.921C249.315 199.972 249.247 200 249.175 200Z" fill="#222222"/>
</svg>
